G04*
G04 #@! TF.GenerationSoftware,Altium Limited,Altium Designer,22.2.1 (43)*
G04*
G04 Layer_Color=8388736*
%FSLAX25Y25*%
%MOIN*%
G70*
G04*
G04 #@! TF.SameCoordinates,3F60BFF8-F64E-45F8-B6E0-E43E19044127*
G04*
G04*
G04 #@! TF.FilePolarity,Negative*
G04*
G01*
G75*
%ADD16C,0.02000*%
%ADD76R,0.09265X0.10446*%
G04:AMPARAMS|DCode=77|XSize=92.65mil|YSize=104.46mil|CornerRadius=25.16mil|HoleSize=0mil|Usage=FLASHONLY|Rotation=180.000|XOffset=0mil|YOffset=0mil|HoleType=Round|Shape=RoundedRectangle|*
%AMROUNDEDRECTD77*
21,1,0.09265,0.05413,0,0,180.0*
21,1,0.04232,0.10446,0,0,180.0*
1,1,0.05032,-0.02116,0.02707*
1,1,0.05032,0.02116,0.02707*
1,1,0.05032,0.02116,-0.02707*
1,1,0.05032,-0.02116,-0.02707*
%
%ADD77ROUNDEDRECTD77*%
G04:AMPARAMS|DCode=78|XSize=43.43mil|YSize=43.43mil|CornerRadius=12.86mil|HoleSize=0mil|Usage=FLASHONLY|Rotation=90.000|XOffset=0mil|YOffset=0mil|HoleType=Round|Shape=RoundedRectangle|*
%AMROUNDEDRECTD78*
21,1,0.04343,0.01772,0,0,90.0*
21,1,0.01772,0.04343,0,0,90.0*
1,1,0.02572,0.00886,0.00886*
1,1,0.02572,0.00886,-0.00886*
1,1,0.02572,-0.00886,-0.00886*
1,1,0.02572,-0.00886,0.00886*
%
%ADD78ROUNDEDRECTD78*%
G04:AMPARAMS|DCode=79|XSize=43.43mil|YSize=43.43mil|CornerRadius=12.86mil|HoleSize=0mil|Usage=FLASHONLY|Rotation=180.000|XOffset=0mil|YOffset=0mil|HoleType=Round|Shape=RoundedRectangle|*
%AMROUNDEDRECTD79*
21,1,0.04343,0.01772,0,0,180.0*
21,1,0.01772,0.04343,0,0,180.0*
1,1,0.02572,-0.00886,0.00886*
1,1,0.02572,0.00886,0.00886*
1,1,0.02572,0.00886,-0.00886*
1,1,0.02572,-0.00886,-0.00886*
%
%ADD79ROUNDEDRECTD79*%
G04:AMPARAMS|DCode=80|XSize=98.55mil|YSize=70.99mil|CornerRadius=19.75mil|HoleSize=0mil|Usage=FLASHONLY|Rotation=90.000|XOffset=0mil|YOffset=0mil|HoleType=Round|Shape=RoundedRectangle|*
%AMROUNDEDRECTD80*
21,1,0.09855,0.03150,0,0,90.0*
21,1,0.05906,0.07099,0,0,90.0*
1,1,0.03950,0.01575,0.02953*
1,1,0.03950,0.01575,-0.02953*
1,1,0.03950,-0.01575,-0.02953*
1,1,0.03950,-0.01575,0.02953*
%
%ADD80ROUNDEDRECTD80*%
G04:AMPARAMS|DCode=81|XSize=86.74mil|YSize=57.21mil|CornerRadius=16.3mil|HoleSize=0mil|Usage=FLASHONLY|Rotation=180.000|XOffset=0mil|YOffset=0mil|HoleType=Round|Shape=RoundedRectangle|*
%AMROUNDEDRECTD81*
21,1,0.08674,0.02461,0,0,180.0*
21,1,0.05413,0.05721,0,0,180.0*
1,1,0.03261,-0.02707,0.01230*
1,1,0.03261,0.02707,0.01230*
1,1,0.03261,0.02707,-0.01230*
1,1,0.03261,-0.02707,-0.01230*
%
%ADD81ROUNDEDRECTD81*%
%ADD82R,0.08674X0.05721*%
G04:AMPARAMS|DCode=83|XSize=138mil|YSize=58mil|CornerRadius=16.5mil|HoleSize=0mil|Usage=FLASHONLY|Rotation=90.000|XOffset=0mil|YOffset=0mil|HoleType=Round|Shape=RoundedRectangle|*
%AMROUNDEDRECTD83*
21,1,0.13800,0.02500,0,0,90.0*
21,1,0.10500,0.05800,0,0,90.0*
1,1,0.03300,0.01250,0.05250*
1,1,0.03300,0.01250,-0.05250*
1,1,0.03300,-0.01250,-0.05250*
1,1,0.03300,-0.01250,0.05250*
%
%ADD83ROUNDEDRECTD83*%
%ADD84R,0.05800X0.13800*%
%ADD85R,0.01384X0.02467*%
%ADD86R,0.02073X0.01384*%
G04:AMPARAMS|DCode=87|XSize=67.06mil|YSize=69.02mil|CornerRadius=18.76mil|HoleSize=0mil|Usage=FLASHONLY|Rotation=270.000|XOffset=0mil|YOffset=0mil|HoleType=Round|Shape=RoundedRectangle|*
%AMROUNDEDRECTD87*
21,1,0.06706,0.03150,0,0,270.0*
21,1,0.02953,0.06902,0,0,270.0*
1,1,0.03753,-0.01575,-0.01476*
1,1,0.03753,-0.01575,0.01476*
1,1,0.03753,0.01575,0.01476*
1,1,0.03753,0.01575,-0.01476*
%
%ADD87ROUNDEDRECTD87*%
G04:AMPARAMS|DCode=88|XSize=23.75mil|YSize=61.15mil|CornerRadius=7.94mil|HoleSize=0mil|Usage=FLASHONLY|Rotation=270.000|XOffset=0mil|YOffset=0mil|HoleType=Round|Shape=RoundedRectangle|*
%AMROUNDEDRECTD88*
21,1,0.02375,0.04528,0,0,270.0*
21,1,0.00787,0.06115,0,0,270.0*
1,1,0.01587,-0.02264,-0.00394*
1,1,0.01587,-0.02264,0.00394*
1,1,0.01587,0.02264,0.00394*
1,1,0.01587,0.02264,-0.00394*
%
%ADD88ROUNDEDRECTD88*%
%ADD89R,0.06312X0.09068*%
G04:AMPARAMS|DCode=90|XSize=90.68mil|YSize=63.12mil|CornerRadius=17.78mil|HoleSize=0mil|Usage=FLASHONLY|Rotation=90.000|XOffset=0mil|YOffset=0mil|HoleType=Round|Shape=RoundedRectangle|*
%AMROUNDEDRECTD90*
21,1,0.09068,0.02756,0,0,90.0*
21,1,0.05512,0.06312,0,0,90.0*
1,1,0.03556,0.01378,0.02756*
1,1,0.03556,0.01378,-0.02756*
1,1,0.03556,-0.01378,-0.02756*
1,1,0.03556,-0.01378,0.02756*
%
%ADD90ROUNDEDRECTD90*%
G04:AMPARAMS|DCode=91|XSize=90.68mil|YSize=63.12mil|CornerRadius=17.78mil|HoleSize=0mil|Usage=FLASHONLY|Rotation=180.000|XOffset=0mil|YOffset=0mil|HoleType=Round|Shape=RoundedRectangle|*
%AMROUNDEDRECTD91*
21,1,0.09068,0.02756,0,0,180.0*
21,1,0.05512,0.06312,0,0,180.0*
1,1,0.03556,-0.02756,0.01378*
1,1,0.03556,0.02756,0.01378*
1,1,0.03556,0.02756,-0.01378*
1,1,0.03556,-0.02756,-0.01378*
%
%ADD91ROUNDEDRECTD91*%
%ADD92R,0.09068X0.06312*%
%ADD93R,0.05085X0.01975*%
G04:AMPARAMS|DCode=94|XSize=50.85mil|YSize=19.75mil|CornerRadius=3.97mil|HoleSize=0mil|Usage=FLASHONLY|Rotation=180.000|XOffset=0mil|YOffset=0mil|HoleType=Round|Shape=RoundedRectangle|*
%AMROUNDEDRECTD94*
21,1,0.05085,0.01181,0,0,180.0*
21,1,0.04291,0.01975,0,0,180.0*
1,1,0.00794,-0.02146,0.00591*
1,1,0.00794,0.02146,0.00591*
1,1,0.00794,0.02146,-0.00591*
1,1,0.00794,-0.02146,-0.00591*
%
%ADD94ROUNDEDRECTD94*%
G04:AMPARAMS|DCode=95|XSize=50.85mil|YSize=19.75mil|CornerRadius=3.97mil|HoleSize=0mil|Usage=FLASHONLY|Rotation=90.000|XOffset=0mil|YOffset=0mil|HoleType=Round|Shape=RoundedRectangle|*
%AMROUNDEDRECTD95*
21,1,0.05085,0.01181,0,0,90.0*
21,1,0.04291,0.01975,0,0,90.0*
1,1,0.00794,0.00591,0.02146*
1,1,0.00794,0.00591,-0.02146*
1,1,0.00794,-0.00591,-0.02146*
1,1,0.00794,-0.00591,0.02146*
%
%ADD95ROUNDEDRECTD95*%
%ADD96R,0.01975X0.05085*%
%ADD97R,0.03162X0.06902*%
G04:AMPARAMS|DCode=98|XSize=31.62mil|YSize=69.02mil|CornerRadius=9.91mil|HoleSize=0mil|Usage=FLASHONLY|Rotation=180.000|XOffset=0mil|YOffset=0mil|HoleType=Round|Shape=RoundedRectangle|*
%AMROUNDEDRECTD98*
21,1,0.03162,0.04921,0,0,180.0*
21,1,0.01181,0.06902,0,0,180.0*
1,1,0.01981,-0.00591,0.02461*
1,1,0.01981,0.00591,0.02461*
1,1,0.01981,0.00591,-0.02461*
1,1,0.01981,-0.00591,-0.02461*
%
%ADD98ROUNDEDRECTD98*%
G04:AMPARAMS|DCode=99|XSize=43.43mil|YSize=47.37mil|CornerRadius=12.86mil|HoleSize=0mil|Usage=FLASHONLY|Rotation=270.000|XOffset=0mil|YOffset=0mil|HoleType=Round|Shape=RoundedRectangle|*
%AMROUNDEDRECTD99*
21,1,0.04343,0.02165,0,0,270.0*
21,1,0.01772,0.04737,0,0,270.0*
1,1,0.02572,-0.01083,-0.00886*
1,1,0.02572,-0.01083,0.00886*
1,1,0.02572,0.01083,0.00886*
1,1,0.02572,0.01083,-0.00886*
%
%ADD99ROUNDEDRECTD99*%
%ADD100R,0.04737X0.04343*%
G04:AMPARAMS|DCode=101|XSize=29.59mil|YSize=19.75mil|CornerRadius=5.94mil|HoleSize=0mil|Usage=FLASHONLY|Rotation=0.000|XOffset=0mil|YOffset=0mil|HoleType=Round|Shape=RoundedRectangle|*
%AMROUNDEDRECTD101*
21,1,0.02959,0.00787,0,0,0.0*
21,1,0.01772,0.01975,0,0,0.0*
1,1,0.01187,0.00886,-0.00394*
1,1,0.01187,-0.00886,-0.00394*
1,1,0.01187,-0.00886,0.00394*
1,1,0.01187,0.00886,0.00394*
%
%ADD101ROUNDEDRECTD101*%
%ADD102R,0.02959X0.01975*%
%ADD103R,0.01975X0.02959*%
G04:AMPARAMS|DCode=104|XSize=29.59mil|YSize=19.75mil|CornerRadius=5.94mil|HoleSize=0mil|Usage=FLASHONLY|Rotation=270.000|XOffset=0mil|YOffset=0mil|HoleType=Round|Shape=RoundedRectangle|*
%AMROUNDEDRECTD104*
21,1,0.02959,0.00787,0,0,270.0*
21,1,0.01772,0.01975,0,0,270.0*
1,1,0.01187,-0.00394,-0.00886*
1,1,0.01187,-0.00394,0.00886*
1,1,0.01187,0.00394,0.00886*
1,1,0.01187,0.00394,-0.00886*
%
%ADD104ROUNDEDRECTD104*%
G04:AMPARAMS|DCode=105|XSize=63.12mil|YSize=51.31mil|CornerRadius=14.83mil|HoleSize=0mil|Usage=FLASHONLY|Rotation=270.000|XOffset=0mil|YOffset=0mil|HoleType=Round|Shape=RoundedRectangle|*
%AMROUNDEDRECTD105*
21,1,0.06312,0.02165,0,0,270.0*
21,1,0.03347,0.05131,0,0,270.0*
1,1,0.02965,-0.01083,-0.01673*
1,1,0.02965,-0.01083,0.01673*
1,1,0.02965,0.01083,0.01673*
1,1,0.02965,0.01083,-0.01673*
%
%ADD105ROUNDEDRECTD105*%
%ADD106R,0.05131X0.06312*%
%ADD107R,0.03950X0.03950*%
G04:AMPARAMS|DCode=108|XSize=39.5mil|YSize=39.5mil|CornerRadius=11.87mil|HoleSize=0mil|Usage=FLASHONLY|Rotation=90.000|XOffset=0mil|YOffset=0mil|HoleType=Round|Shape=RoundedRectangle|*
%AMROUNDEDRECTD108*
21,1,0.03950,0.01575,0,0,90.0*
21,1,0.01575,0.03950,0,0,90.0*
1,1,0.02375,0.00787,0.00787*
1,1,0.02375,0.00787,-0.00787*
1,1,0.02375,-0.00787,-0.00787*
1,1,0.02375,-0.00787,0.00787*
%
%ADD108ROUNDEDRECTD108*%
G04:AMPARAMS|DCode=109|XSize=39.5mil|YSize=39.5mil|CornerRadius=11.87mil|HoleSize=0mil|Usage=FLASHONLY|Rotation=0.000|XOffset=0mil|YOffset=0mil|HoleType=Round|Shape=RoundedRectangle|*
%AMROUNDEDRECTD109*
21,1,0.03950,0.01575,0,0,0.0*
21,1,0.01575,0.03950,0,0,0.0*
1,1,0.02375,0.00787,-0.00787*
1,1,0.02375,-0.00787,-0.00787*
1,1,0.02375,-0.00787,0.00787*
1,1,0.02375,0.00787,0.00787*
%
%ADD109ROUNDEDRECTD109*%
%ADD110R,0.03950X0.03950*%
%ADD111R,0.29934X0.08674*%
G04:AMPARAMS|DCode=112|XSize=46.58mil|YSize=48.55mil|CornerRadius=13.65mil|HoleSize=0mil|Usage=FLASHONLY|Rotation=270.000|XOffset=0mil|YOffset=0mil|HoleType=Round|Shape=RoundedRectangle|*
%AMROUNDEDRECTD112*
21,1,0.04658,0.02126,0,0,270.0*
21,1,0.01929,0.04855,0,0,270.0*
1,1,0.02729,-0.01063,-0.00965*
1,1,0.02729,-0.01063,0.00965*
1,1,0.02729,0.01063,0.00965*
1,1,0.02729,0.01063,-0.00965*
%
%ADD112ROUNDEDRECTD112*%
G04:AMPARAMS|DCode=113|XSize=118.24mil|YSize=76.9mil|CornerRadius=21.22mil|HoleSize=0mil|Usage=FLASHONLY|Rotation=180.000|XOffset=0mil|YOffset=0mil|HoleType=Round|Shape=RoundedRectangle|*
%AMROUNDEDRECTD113*
21,1,0.11824,0.03445,0,0,180.0*
21,1,0.07579,0.07690,0,0,180.0*
1,1,0.04245,-0.03789,0.01722*
1,1,0.04245,0.03789,0.01722*
1,1,0.04245,0.03789,-0.01722*
1,1,0.04245,-0.03789,-0.01722*
%
%ADD113ROUNDEDRECTD113*%
G04:AMPARAMS|DCode=114|XSize=118.24mil|YSize=76.9mil|CornerRadius=21.22mil|HoleSize=0mil|Usage=FLASHONLY|Rotation=90.000|XOffset=0mil|YOffset=0mil|HoleType=Round|Shape=RoundedRectangle|*
%AMROUNDEDRECTD114*
21,1,0.11824,0.03445,0,0,90.0*
21,1,0.07579,0.07690,0,0,90.0*
1,1,0.04245,0.01722,0.03789*
1,1,0.04245,0.01722,-0.03789*
1,1,0.04245,-0.01722,-0.03789*
1,1,0.04245,-0.01722,0.03789*
%
%ADD114ROUNDEDRECTD114*%
G04:AMPARAMS|DCode=115|XSize=63.12mil|YSize=50mil|CornerRadius=14.5mil|HoleSize=0mil|Usage=FLASHONLY|Rotation=90.000|XOffset=0mil|YOffset=0mil|HoleType=Round|Shape=RoundedRectangle|*
%AMROUNDEDRECTD115*
21,1,0.06312,0.02100,0,0,90.0*
21,1,0.03412,0.05000,0,0,90.0*
1,1,0.02900,0.01050,0.01706*
1,1,0.02900,0.01050,-0.01706*
1,1,0.02900,-0.01050,-0.01706*
1,1,0.02900,-0.01050,0.01706*
%
%ADD115ROUNDEDRECTD115*%
G04:AMPARAMS|DCode=116|XSize=63.12mil|YSize=50mil|CornerRadius=14.5mil|HoleSize=0mil|Usage=FLASHONLY|Rotation=180.000|XOffset=0mil|YOffset=0mil|HoleType=Round|Shape=RoundedRectangle|*
%AMROUNDEDRECTD116*
21,1,0.06312,0.02100,0,0,180.0*
21,1,0.03412,0.05000,0,0,180.0*
1,1,0.02900,-0.01706,0.01050*
1,1,0.02900,0.01706,0.01050*
1,1,0.02900,0.01706,-0.01050*
1,1,0.02900,-0.01706,-0.01050*
%
%ADD116ROUNDEDRECTD116*%
%ADD117R,0.04400X0.17400*%
G04:AMPARAMS|DCode=118|XSize=44mil|YSize=174mil|CornerRadius=12mil|HoleSize=0mil|Usage=FLASHONLY|Rotation=0.000|XOffset=0mil|YOffset=0mil|HoleType=Round|Shape=RoundedRectangle|*
%AMROUNDEDRECTD118*
21,1,0.04400,0.15000,0,0,0.0*
21,1,0.02000,0.17400,0,0,0.0*
1,1,0.02400,0.01000,-0.07500*
1,1,0.02400,-0.01000,-0.07500*
1,1,0.02400,-0.01000,0.07500*
1,1,0.02400,0.01000,0.07500*
%
%ADD118ROUNDEDRECTD118*%
G04:AMPARAMS|DCode=119|XSize=55.24mil|YSize=47.37mil|CornerRadius=13.84mil|HoleSize=0mil|Usage=FLASHONLY|Rotation=0.000|XOffset=0mil|YOffset=0mil|HoleType=Round|Shape=RoundedRectangle|*
%AMROUNDEDRECTD119*
21,1,0.05524,0.01968,0,0,0.0*
21,1,0.02756,0.04737,0,0,0.0*
1,1,0.02769,0.01378,-0.00984*
1,1,0.02769,-0.01378,-0.00984*
1,1,0.02769,-0.01378,0.00984*
1,1,0.02769,0.01378,0.00984*
%
%ADD119ROUNDEDRECTD119*%
G04:AMPARAMS|DCode=120|XSize=55.24mil|YSize=47.37mil|CornerRadius=13.84mil|HoleSize=0mil|Usage=FLASHONLY|Rotation=270.000|XOffset=0mil|YOffset=0mil|HoleType=Round|Shape=RoundedRectangle|*
%AMROUNDEDRECTD120*
21,1,0.05524,0.01968,0,0,270.0*
21,1,0.02756,0.04737,0,0,270.0*
1,1,0.02769,-0.00984,-0.01378*
1,1,0.02769,-0.00984,0.01378*
1,1,0.02769,0.00984,0.01378*
1,1,0.02769,0.00984,-0.01378*
%
%ADD120ROUNDEDRECTD120*%
G04:AMPARAMS|DCode=121|XSize=21.72mil|YSize=59.12mil|CornerRadius=6.43mil|HoleSize=0mil|Usage=FLASHONLY|Rotation=180.000|XOffset=0mil|YOffset=0mil|HoleType=Round|Shape=RoundedRectangle|*
%AMROUNDEDRECTD121*
21,1,0.02172,0.04626,0,0,180.0*
21,1,0.00886,0.05912,0,0,180.0*
1,1,0.01286,-0.00443,0.02313*
1,1,0.01286,0.00443,0.02313*
1,1,0.01286,0.00443,-0.02313*
1,1,0.01286,-0.00443,-0.02313*
%
%ADD121ROUNDEDRECTD121*%
%ADD122R,0.02172X0.05912*%
G04:AMPARAMS|DCode=123|XSize=39.04mil|YSize=14.24mil|CornerRadius=3.28mil|HoleSize=0mil|Usage=FLASHONLY|Rotation=0.000|XOffset=0mil|YOffset=0mil|HoleType=Round|Shape=RoundedRectangle|*
%AMROUNDEDRECTD123*
21,1,0.03904,0.00768,0,0,0.0*
21,1,0.03248,0.01424,0,0,0.0*
1,1,0.00656,0.01624,-0.00384*
1,1,0.00656,-0.01624,-0.00384*
1,1,0.00656,-0.01624,0.00384*
1,1,0.00656,0.01624,0.00384*
%
%ADD123ROUNDEDRECTD123*%
%ADD124R,0.03904X0.01424*%
G04:AMPARAMS|DCode=125|XSize=39.04mil|YSize=14.24mil|CornerRadius=3.28mil|HoleSize=0mil|Usage=FLASHONLY|Rotation=90.000|XOffset=0mil|YOffset=0mil|HoleType=Round|Shape=RoundedRectangle|*
%AMROUNDEDRECTD125*
21,1,0.03904,0.00768,0,0,90.0*
21,1,0.03248,0.01424,0,0,90.0*
1,1,0.00656,0.00384,0.01624*
1,1,0.00656,0.00384,-0.01624*
1,1,0.00656,-0.00384,-0.01624*
1,1,0.00656,-0.00384,0.01624*
%
%ADD125ROUNDEDRECTD125*%
%ADD126R,0.08471X0.08471*%
%ADD127R,0.03786X0.01424*%
G04:AMPARAMS|DCode=128|XSize=14.24mil|YSize=37.86mil|CornerRadius=4.56mil|HoleSize=0mil|Usage=FLASHONLY|Rotation=0.000|XOffset=0mil|YOffset=0mil|HoleType=Round|Shape=RoundedRectangle|*
%AMROUNDEDRECTD128*
21,1,0.01424,0.02874,0,0,0.0*
21,1,0.00512,0.03786,0,0,0.0*
1,1,0.00912,0.00256,-0.01437*
1,1,0.00912,-0.00256,-0.01437*
1,1,0.00912,-0.00256,0.01437*
1,1,0.00912,0.00256,0.01437*
%
%ADD128ROUNDEDRECTD128*%
G04:AMPARAMS|DCode=129|XSize=14.24mil|YSize=37.86mil|CornerRadius=4.56mil|HoleSize=0mil|Usage=FLASHONLY|Rotation=90.000|XOffset=0mil|YOffset=0mil|HoleType=Round|Shape=RoundedRectangle|*
%AMROUNDEDRECTD129*
21,1,0.01424,0.02874,0,0,90.0*
21,1,0.00512,0.03786,0,0,90.0*
1,1,0.00912,0.01437,0.00256*
1,1,0.00912,0.01437,-0.00256*
1,1,0.00912,-0.01437,-0.00256*
1,1,0.00912,-0.01437,0.00256*
%
%ADD129ROUNDEDRECTD129*%
%ADD130R,0.18904X0.18904*%
G04:AMPARAMS|DCode=131|XSize=33.92mil|YSize=98.49mil|CornerRadius=9.48mil|HoleSize=0mil|Usage=FLASHONLY|Rotation=270.000|XOffset=0mil|YOffset=0mil|HoleType=Round|Shape=RoundedRectangle|*
%AMROUNDEDRECTD131*
21,1,0.03392,0.07953,0,0,270.0*
21,1,0.01496,0.09849,0,0,270.0*
1,1,0.01896,-0.03976,-0.00748*
1,1,0.01896,-0.03976,0.00748*
1,1,0.01896,0.03976,0.00748*
1,1,0.01896,0.03976,-0.00748*
%
%ADD131ROUNDEDRECTD131*%
%ADD132R,0.09849X0.03392*%
G04:AMPARAMS|DCode=133|XSize=30.71mil|YSize=32.28mil|CornerRadius=9.25mil|HoleSize=0mil|Usage=FLASHONLY|Rotation=180.000|XOffset=0mil|YOffset=0mil|HoleType=Round|Shape=RoundedRectangle|*
%AMROUNDEDRECTD133*
21,1,0.03071,0.01378,0,0,180.0*
21,1,0.01221,0.03228,0,0,180.0*
1,1,0.01850,-0.00610,0.00689*
1,1,0.01850,0.00610,0.00689*
1,1,0.01850,0.00610,-0.00689*
1,1,0.01850,-0.00610,-0.00689*
%
%ADD133ROUNDEDRECTD133*%
G04:AMPARAMS|DCode=134|XSize=30.71mil|YSize=32.28mil|CornerRadius=9.25mil|HoleSize=0mil|Usage=FLASHONLY|Rotation=90.000|XOffset=0mil|YOffset=0mil|HoleType=Round|Shape=RoundedRectangle|*
%AMROUNDEDRECTD134*
21,1,0.03071,0.01378,0,0,90.0*
21,1,0.01221,0.03228,0,0,90.0*
1,1,0.01850,0.00689,0.00610*
1,1,0.01850,0.00689,-0.00610*
1,1,0.01850,-0.00689,-0.00610*
1,1,0.01850,-0.00689,0.00610*
%
%ADD134ROUNDEDRECTD134*%
G04:AMPARAMS|DCode=135|XSize=30.71mil|YSize=30.8mil|CornerRadius=9.25mil|HoleSize=0mil|Usage=FLASHONLY|Rotation=270.000|XOffset=0mil|YOffset=0mil|HoleType=Round|Shape=RoundedRectangle|*
%AMROUNDEDRECTD135*
21,1,0.03071,0.01230,0,0,270.0*
21,1,0.01221,0.03080,0,0,270.0*
1,1,0.01850,-0.00615,-0.00610*
1,1,0.01850,-0.00615,0.00610*
1,1,0.01850,0.00615,0.00610*
1,1,0.01850,0.00615,-0.00610*
%
%ADD135ROUNDEDRECTD135*%
%ADD136C,0.06800*%
G04:AMPARAMS|DCode=137|XSize=68mil|YSize=68mil|CornerRadius=19mil|HoleSize=0mil|Usage=FLASHONLY|Rotation=270.000|XOffset=0mil|YOffset=0mil|HoleType=Round|Shape=RoundedRectangle|*
%AMROUNDEDRECTD137*
21,1,0.06800,0.03000,0,0,270.0*
21,1,0.03000,0.06800,0,0,270.0*
1,1,0.03800,-0.01500,-0.01500*
1,1,0.03800,-0.01500,0.01500*
1,1,0.03800,0.01500,0.01500*
1,1,0.03800,0.01500,-0.01500*
%
%ADD137ROUNDEDRECTD137*%
G04:AMPARAMS|DCode=138|XSize=68mil|YSize=68mil|CornerRadius=19mil|HoleSize=0mil|Usage=FLASHONLY|Rotation=180.000|XOffset=0mil|YOffset=0mil|HoleType=Round|Shape=RoundedRectangle|*
%AMROUNDEDRECTD138*
21,1,0.06800,0.03000,0,0,180.0*
21,1,0.03000,0.06800,0,0,180.0*
1,1,0.03800,-0.01500,0.01500*
1,1,0.03800,0.01500,0.01500*
1,1,0.03800,0.01500,-0.01500*
1,1,0.03800,-0.01500,-0.01500*
%
%ADD138ROUNDEDRECTD138*%
%ADD139C,0.07296*%
G04:AMPARAMS|DCode=140|XSize=72.96mil|YSize=72.96mil|CornerRadius=20.24mil|HoleSize=0mil|Usage=FLASHONLY|Rotation=90.000|XOffset=0mil|YOffset=0mil|HoleType=Round|Shape=RoundedRectangle|*
%AMROUNDEDRECTD140*
21,1,0.07296,0.03248,0,0,90.0*
21,1,0.03248,0.07296,0,0,90.0*
1,1,0.04048,0.01624,0.01624*
1,1,0.04048,0.01624,-0.01624*
1,1,0.04048,-0.01624,-0.01624*
1,1,0.04048,-0.01624,0.01624*
%
%ADD140ROUNDEDRECTD140*%
G04:AMPARAMS|DCode=141|XSize=72.96mil|YSize=72.96mil|CornerRadius=20.24mil|HoleSize=0mil|Usage=FLASHONLY|Rotation=0.000|XOffset=0mil|YOffset=0mil|HoleType=Round|Shape=RoundedRectangle|*
%AMROUNDEDRECTD141*
21,1,0.07296,0.03248,0,0,0.0*
21,1,0.03248,0.07296,0,0,0.0*
1,1,0.04048,0.01624,-0.01624*
1,1,0.04048,-0.01624,-0.01624*
1,1,0.04048,-0.01624,0.01624*
1,1,0.04048,0.01624,0.01624*
%
%ADD141ROUNDEDRECTD141*%
%ADD142O,0.06902X0.04000*%
%ADD143O,0.04000X0.05918*%
%ADD144C,0.08674*%
%ADD145C,0.18800*%
%ADD146C,0.11036*%
D16*
X369200Y236000D02*
X390000D01*
X-0Y0D02*
X0Y236000D01*
X230300D01*
Y353500D01*
X369200Y353500D01*
X0Y0D02*
X197000D01*
X390000D01*
X390000D02*
X390000Y236000D01*
X369200D02*
Y353500D01*
D76*
X33000Y207199D02*
D03*
X31000Y193701D02*
D03*
D77*
X33000Y219601D02*
D03*
X31000Y181299D02*
D03*
D78*
X168750Y43900D02*
D03*
X175050D02*
D03*
X262250Y271700D02*
D03*
X255950D02*
D03*
X272850Y250300D02*
D03*
X279150D02*
D03*
X302750Y343700D02*
D03*
X309050D02*
D03*
X320250Y325700D02*
D03*
X326550D02*
D03*
X144150Y50500D02*
D03*
X150450D02*
D03*
X12500Y123500D02*
D03*
X6201D02*
D03*
X23850Y229000D02*
D03*
X30150D02*
D03*
X175750Y126900D02*
D03*
X169450D02*
D03*
D79*
X237900Y310550D02*
D03*
Y316850D02*
D03*
X318300Y270350D02*
D03*
Y264050D02*
D03*
X264100Y332650D02*
D03*
Y326350D02*
D03*
X346200Y286550D02*
D03*
Y280250D02*
D03*
X70525Y78650D02*
D03*
Y84950D02*
D03*
X73500Y70150D02*
D03*
Y63850D02*
D03*
X87700Y154850D02*
D03*
Y148550D02*
D03*
X94000Y148350D02*
D03*
Y154650D02*
D03*
X13000Y134550D02*
D03*
Y140850D02*
D03*
X19000Y140999D02*
D03*
Y134700D02*
D03*
X7200Y134550D02*
D03*
Y140850D02*
D03*
X38600Y141150D02*
D03*
Y134850D02*
D03*
X44600Y141050D02*
D03*
Y134750D02*
D03*
X62700Y134850D02*
D03*
Y141150D02*
D03*
X44700Y214150D02*
D03*
Y207850D02*
D03*
X134000Y188350D02*
D03*
Y194650D02*
D03*
X31847Y109066D02*
D03*
Y115365D02*
D03*
X32700Y141199D02*
D03*
Y134900D02*
D03*
X50600Y141050D02*
D03*
Y134750D02*
D03*
X68600D02*
D03*
Y141050D02*
D03*
X56700Y141128D02*
D03*
Y134828D02*
D03*
D80*
X70612Y165300D02*
D03*
X59588D02*
D03*
D81*
X149800Y120526D02*
D03*
D82*
Y111274D02*
D03*
D83*
X29000Y164500D02*
D03*
D84*
X20000D02*
D03*
D85*
X38989Y114567D02*
D03*
Y102264D02*
D03*
X40957D02*
D03*
X42926D02*
D03*
X44894D02*
D03*
X46863D02*
D03*
X48831D02*
D03*
X50800D02*
D03*
X52768D02*
D03*
X54737D02*
D03*
X56705D02*
D03*
Y114567D02*
D03*
X54737D02*
D03*
X52768D02*
D03*
X50800D02*
D03*
X48831D02*
D03*
X46863D02*
D03*
X44894D02*
D03*
X42926D02*
D03*
X40957D02*
D03*
D86*
X38743Y111369D02*
D03*
Y109400D02*
D03*
Y107431D02*
D03*
Y105463D02*
D03*
X56951D02*
D03*
Y107431D02*
D03*
Y109400D02*
D03*
Y111369D02*
D03*
D87*
X5500Y196500D02*
D03*
Y204374D02*
D03*
D88*
X16130Y195319D02*
D03*
Y197878D02*
D03*
Y200437D02*
D03*
Y202996D02*
D03*
Y205555D02*
D03*
D89*
X262231Y280772D02*
D03*
X320069Y316028D02*
D03*
X24000Y78000D02*
D03*
D90*
X262231Y316599D02*
D03*
X244515Y280772D02*
D03*
Y316599D02*
D03*
X337785Y280201D02*
D03*
Y316028D02*
D03*
X320069Y280201D02*
D03*
X24000Y113827D02*
D03*
X6284Y78000D02*
D03*
Y113827D02*
D03*
D91*
X273001Y258615D02*
D03*
X308828D02*
D03*
X273001Y276331D02*
D03*
X309099Y318669D02*
D03*
X273272Y336385D02*
D03*
X309099D02*
D03*
D92*
X308828Y276331D02*
D03*
X273272Y318669D02*
D03*
D93*
X175800Y59000D02*
D03*
X145400Y220600D02*
D03*
D94*
X175800Y61600D02*
D03*
Y64100D02*
D03*
X167700D02*
D03*
Y59000D02*
D03*
X145400Y223200D02*
D03*
Y225700D02*
D03*
X137300D02*
D03*
Y220600D02*
D03*
D95*
X290015Y302173D02*
D03*
X295114D02*
D03*
Y294073D02*
D03*
X292615D02*
D03*
X177400Y101900D02*
D03*
X172300D02*
D03*
Y110000D02*
D03*
X174800D02*
D03*
D96*
X290015Y294073D02*
D03*
X177400Y110000D02*
D03*
D97*
X137600Y152570D02*
D03*
D98*
X142600D02*
D03*
X147600D02*
D03*
X152600D02*
D03*
X157600D02*
D03*
X162600D02*
D03*
X167600D02*
D03*
X172600D02*
D03*
X137600Y173830D02*
D03*
X142600D02*
D03*
X147600D02*
D03*
X152600D02*
D03*
X157600D02*
D03*
X162600D02*
D03*
X167600D02*
D03*
X172600D02*
D03*
D99*
X159271Y106917D02*
D03*
Y102094D02*
D03*
X165668D02*
D03*
D100*
Y106917D02*
D03*
D101*
X69759Y195300D02*
D03*
D102*
X64641D02*
D03*
D103*
X22000Y208359D02*
D03*
D104*
Y203241D02*
D03*
D105*
X84100Y58900D02*
D03*
Y67561D02*
D03*
X90399D02*
D03*
D106*
Y58900D02*
D03*
D107*
X168850Y48800D02*
D03*
X18150Y228000D02*
D03*
X169550Y121200D02*
D03*
D108*
X175150Y48800D02*
D03*
X11850Y228000D02*
D03*
X175850Y121200D02*
D03*
D109*
X63800Y77750D02*
D03*
X66300Y63850D02*
D03*
X147700Y61850D02*
D03*
X44600Y225650D02*
D03*
X83100Y154950D02*
D03*
X94500Y167650D02*
D03*
X134500Y207150D02*
D03*
X31605Y96588D02*
D03*
D110*
X63800Y84050D02*
D03*
X66300Y70150D02*
D03*
X147700Y55550D02*
D03*
X44600Y219350D02*
D03*
X83100Y148650D02*
D03*
X94500Y161350D02*
D03*
X134500Y200850D02*
D03*
X31605Y102887D02*
D03*
D111*
X237033Y207135D02*
D03*
Y125245D02*
D03*
X237000Y30610D02*
D03*
Y112500D02*
D03*
X270500Y207445D02*
D03*
Y125555D02*
D03*
Y30555D02*
D03*
Y112445D02*
D03*
X304000Y207445D02*
D03*
Y125555D02*
D03*
Y30610D02*
D03*
Y112500D02*
D03*
X337500Y207445D02*
D03*
Y125555D02*
D03*
Y30610D02*
D03*
Y112500D02*
D03*
X371700Y207745D02*
D03*
Y125855D02*
D03*
X371000Y30610D02*
D03*
Y112500D02*
D03*
D112*
X89392Y88300D02*
D03*
X83408D02*
D03*
X127108Y49200D02*
D03*
X133092D02*
D03*
D113*
X45500Y186910D02*
D03*
Y200690D02*
D03*
D114*
X72090Y177200D02*
D03*
X58310D02*
D03*
X75490Y151700D02*
D03*
X61710D02*
D03*
D115*
X167700Y71200D02*
D03*
X176100D02*
D03*
X308900Y285000D02*
D03*
X300500D02*
D03*
X281400Y310000D02*
D03*
X273000D02*
D03*
X135200Y55700D02*
D03*
X126800D02*
D03*
X58300Y188900D02*
D03*
X66700D02*
D03*
X135084Y63766D02*
D03*
X126684D02*
D03*
D116*
X270900Y294400D02*
D03*
Y286000D02*
D03*
X311200Y310300D02*
D03*
Y301900D02*
D03*
X83200Y74800D02*
D03*
Y83200D02*
D03*
X90300Y83100D02*
D03*
Y74700D02*
D03*
X139600Y115700D02*
D03*
Y124100D02*
D03*
X130100D02*
D03*
Y115700D02*
D03*
X120800D02*
D03*
Y124100D02*
D03*
X111700D02*
D03*
Y115700D02*
D03*
X149200Y100700D02*
D03*
Y92300D02*
D03*
X141200D02*
D03*
Y100700D02*
D03*
X26000Y133800D02*
D03*
Y142200D02*
D03*
X161400Y219500D02*
D03*
Y227900D02*
D03*
X130200Y220000D02*
D03*
Y228400D02*
D03*
X174700Y95500D02*
D03*
Y87100D02*
D03*
X169900Y227900D02*
D03*
Y219500D02*
D03*
X130300Y166600D02*
D03*
Y158200D02*
D03*
D117*
X63500Y208000D02*
D03*
D118*
X71500D02*
D03*
D119*
X160300Y121337D02*
D03*
Y113463D02*
D03*
X48200Y179937D02*
D03*
Y172063D02*
D03*
X42100Y172163D02*
D03*
Y180037D02*
D03*
X152900Y219763D02*
D03*
Y227637D02*
D03*
X164600Y95774D02*
D03*
Y87900D02*
D03*
X83900Y183663D02*
D03*
Y191537D02*
D03*
X157200Y87900D02*
D03*
Y95774D02*
D03*
X98600Y68874D02*
D03*
Y61000D02*
D03*
X91800Y117937D02*
D03*
Y110063D02*
D03*
D120*
X20063Y153500D02*
D03*
X27937D02*
D03*
X56542Y123738D02*
D03*
X48668D02*
D03*
X44563Y94000D02*
D03*
X52437D02*
D03*
X32668Y123738D02*
D03*
X40542D02*
D03*
X86937Y123500D02*
D03*
X79063D02*
D03*
X78126Y116000D02*
D03*
X86000D02*
D03*
X11063Y220500D02*
D03*
X18937D02*
D03*
X177737Y54200D02*
D03*
X169863D02*
D03*
X170463Y116000D02*
D03*
X178337D02*
D03*
D121*
X158142Y210185D02*
D03*
X155583D02*
D03*
X153024D02*
D03*
X150465D02*
D03*
X147906D02*
D03*
X145346D02*
D03*
X142787D02*
D03*
X158142Y186957D02*
D03*
X155583D02*
D03*
X153024D02*
D03*
X150465D02*
D03*
X147906D02*
D03*
X145346D02*
D03*
D122*
X142787D02*
D03*
D123*
X51153Y161437D02*
D03*
Y159468D02*
D03*
Y155532D02*
D03*
Y153563D02*
D03*
X37846D02*
D03*
Y155532D02*
D03*
Y157500D02*
D03*
Y159468D02*
D03*
X51153Y157500D02*
D03*
D124*
X37846Y161437D02*
D03*
D125*
X40563Y164154D02*
D03*
X42531D02*
D03*
X44500D02*
D03*
X46468D02*
D03*
X48437D02*
D03*
Y150847D02*
D03*
X46468D02*
D03*
X44500D02*
D03*
X42531D02*
D03*
X40563D02*
D03*
D126*
X44500Y157500D02*
D03*
D127*
X101976Y100827D02*
D03*
D128*
X104673Y103524D02*
D03*
X106642D02*
D03*
X108610D02*
D03*
X110579D02*
D03*
X112547D02*
D03*
X114516D02*
D03*
X116484D02*
D03*
X118453D02*
D03*
X120421D02*
D03*
X122390D02*
D03*
X124358D02*
D03*
X126327D02*
D03*
Y76476D02*
D03*
X124358D02*
D03*
X122390D02*
D03*
X120421D02*
D03*
X118453D02*
D03*
X116484D02*
D03*
X114516D02*
D03*
X112547D02*
D03*
X110579D02*
D03*
X108610D02*
D03*
X106642D02*
D03*
X104673D02*
D03*
D129*
X129024Y100827D02*
D03*
Y98858D02*
D03*
Y96890D02*
D03*
Y94921D02*
D03*
Y92953D02*
D03*
Y90984D02*
D03*
Y89016D02*
D03*
Y87047D02*
D03*
Y85079D02*
D03*
Y83110D02*
D03*
Y81142D02*
D03*
Y79173D02*
D03*
X101976D02*
D03*
Y81142D02*
D03*
Y83110D02*
D03*
Y85079D02*
D03*
Y87047D02*
D03*
Y89016D02*
D03*
Y90984D02*
D03*
Y92953D02*
D03*
Y94921D02*
D03*
Y96890D02*
D03*
Y98858D02*
D03*
D130*
X115500Y90000D02*
D03*
D131*
X54677Y59400D02*
D03*
X39323D02*
D03*
X54677Y64400D02*
D03*
X39323D02*
D03*
X54677Y69400D02*
D03*
X39323D02*
D03*
X54677Y74400D02*
D03*
X39323D02*
D03*
X54677Y79400D02*
D03*
D132*
X39323D02*
D03*
D133*
X18000Y176768D02*
D03*
Y180232D02*
D03*
X112400Y67432D02*
D03*
Y63968D02*
D03*
Y52432D02*
D03*
Y48968D02*
D03*
X31600Y74568D02*
D03*
Y78032D02*
D03*
D134*
X12968Y146400D02*
D03*
X16432D02*
D03*
X108868Y58200D02*
D03*
X34465Y87100D02*
D03*
X31000D02*
D03*
D135*
X112400Y58200D02*
D03*
D136*
X186100Y85600D02*
D03*
Y75600D02*
D03*
Y65600D02*
D03*
Y55600D02*
D03*
Y45600D02*
D03*
X123200Y141000D02*
D03*
X133200D02*
D03*
X143200D02*
D03*
X185900Y96900D02*
D03*
Y106900D02*
D03*
Y116900D02*
D03*
X171000Y20700D02*
D03*
X181000D02*
D03*
X191000D02*
D03*
X358300Y272100D02*
D03*
Y282100D02*
D03*
Y292100D02*
D03*
D137*
X186100Y35600D02*
D03*
X185900Y126900D02*
D03*
X358300Y302100D02*
D03*
D138*
X113200Y141000D02*
D03*
X161000Y20700D02*
D03*
D139*
X93500Y197850D02*
D03*
Y187850D02*
D03*
X167200Y141500D02*
D03*
X177200D02*
D03*
X67200Y101800D02*
D03*
Y111800D02*
D03*
X8000Y175000D02*
D03*
X308900Y219200D02*
D03*
X149700Y30500D02*
D03*
X358000Y326700D02*
D03*
D140*
X93500Y177850D02*
D03*
X67200Y121800D02*
D03*
X8000Y165000D02*
D03*
X149700Y20500D02*
D03*
X358000Y316700D02*
D03*
D141*
X157200Y141500D02*
D03*
X298900Y219200D02*
D03*
D142*
X5500Y186658D02*
D03*
Y214216D02*
D03*
D143*
X16130Y190594D02*
D03*
Y210279D02*
D03*
D144*
X235600Y17000D02*
D03*
X236100Y220400D02*
D03*
X381200D02*
D03*
X378500Y17000D02*
D03*
X358900Y342700D02*
D03*
X240900Y341700D02*
D03*
X358900Y253700D02*
D03*
X240900D02*
D03*
D145*
X115032Y198571D02*
D03*
X185898D02*
D03*
X185898Y220224D02*
D03*
X115032D02*
D03*
X185898Y176917D02*
D03*
X115032D02*
D03*
D146*
X212800Y228800D02*
D03*
X8700Y52900D02*
D03*
X213000Y7300D02*
D03*
M02*
