M48
;Layer_Color=9474304
;FILE_FORMAT=2:5
INCH,LZ
;TYPE=PLATED
T1F00S00C0.01200
T4F00S00C0.03000
T5F00S00C0.04331
T6F00S00C0.05906
T7F00S00C0.07874
T8F00S00C0.14000
;TYPE=NON_PLATED
T9F00S00C0.05906
T10F00S00C0.07874
%
T01
X0058074Y0039568
X0063073
X0068073
X0073074
X0078074
X0083074
X0088073
X0093073
X0098074
X0103074
X0108073
X0109373Y0044468
X0105473Y0044568
X0100574
X0095574
X0090574
X0085574
X0080573
X0075573
X0070574
X0065574
X0060574
X00627Y00546
Y00603
X00584Y0083
X0060263Y0091537
X00646Y00881
X00603Y01072
X0059605Y0120391
X00567Y0137656
X0071553Y0133288
X00933Y01329
X00923Y01295
X01026Y0126818
X01024Y01193
X01115Y01195
X01127Y0127509
X0109Y01295
X0110837Y0132909
X01025Y01355
X01217Y01294
X01287
X01301Y01206
X01208Y01205
X01396Y01206
X01464Y01294
X01536Y01295
X01564Y01135
X01737Y0116
X01734Y0106
X01747Y00913
X01695Y00862
X01723Y00805
X0173Y00751
X0163354Y00749
X01646Y00804
X0162417Y0099319
X01492Y00882
X0142495Y00885
X01235Y0087
Y0082
X01185
Y0087
X0113
Y0082
X01075
Y0087
Y00925
X0113
X01185
X01235
Y0098
X01185
X0113
X01075
X01057Y01086
X00993Y0108357
X0093855Y0106481
X0090164Y01064
X00887Y01
X00886Y00948
X0095942
X00958Y01
X00969Y00885
X00937Y00882
X00905Y00782
X00835Y00781
X00842Y00543
X0100574Y0054568
X0105573
X0109333Y0054512
X0109352Y0049542
X01155Y00495
Y00545
Y00596
X0115392Y006452
X0115374Y0069368
X0109264Y0067052
X0109373Y0062068
X0105573Y0064568
X0105664Y0069552
X0109347Y0072135
X01055Y00595
X01002Y00648
X0098074Y0049568
X0103074
X0115574Y0044568
X0116374Y0039568
X012088Y0039485
X012095Y0043082
X0120784Y0047559
X0120616Y0052649
X0120593Y0057535
X0120612Y0062567
X01402Y00638
X01404Y00557
X01429Y00469
X0136051Y0044559
X0136074Y0040568
X0136173Y0035568
X0136282Y0030551
X0136173Y0025568
X0136074Y0020568
X0136173Y0015568
X0136074Y0010568
X0136173Y0005568
X0132174Y0003168
X0132073Y0008168
X0132174Y0013168
X0132073Y0018168
X0132174Y0023168
X0132073Y0028168
X0132081Y0032951
X0132073Y0038168
X0128574Y0039568
X0125774
X0125574Y0044568
X0130573
X0175128Y0040947
X01728Y00543
X01797Y00616
X0194384Y0059984
X0199Y006451
X01968Y01192
Y01248
X01902Y01219
X02038
X0178Y01244
X0092Y01145
X0035Y01122
X0031855Y0119195
X00269Y01238
X00175Y01235
X0019Y0137528
X0026Y013765
X00327Y0137728
X00389Y00986
X0048847Y0094016
X0049472Y00881
X0053063Y0084337
X0050573Y0044568
X0055573
X0053074Y0039568
X0048074
X0043073
X0038074
X0033073
X0028073
X0023074
X0018074
X0013073
X0008073
X0003507Y0039713
X00055Y00445
X0010573Y0044568
X0015574
X0020573
X0025574
X0030573
X0035574
X0040573
X0045573
X00474Y01546
Y01604
X00416
Y01546
X00445Y01575
X00421Y01767
X00482Y01766
X0054Y02009
X00485Y0208
X0022Y02001
X00212Y01953
X00115Y01965
X0007Y02215
X0016Y01535
X00671Y01517
X0090653Y0157027
X00928Y01451
X013404Y0155921
X01426Y01677
X01521Y01824
X01376Y01882
X01302Y02156
X01455Y02153
X0149258Y0224294
X01571Y02279
X01656
X01747Y02278
X01768Y01525
X0170257Y0148633
X0072Y01856
X00715Y01893
X00732Y01953
X00765Y0205
X02832Y02503
X02954Y02849
X02926Y02891
X03113Y02972
X03462Y02905
X02708Y02993
X02861Y03098
X02979Y03437
X02379Y03067
T04
X03093Y00402
X03189Y02194
T05
X00672Y01018
Y01118
Y01218
X01132Y0141
X01232
X01332
X01432
X01572Y01415
X01672
X01772
X01859Y01269
Y01169
Y01069
Y00969
X01861Y00856
Y00756
Y00656
Y00556
Y00456
Y00356
X0191Y00207
X0181
X0171
X0161
X01497Y00205
Y00305
X0008Y0165
Y0175
X00935Y017785
Y018785
Y019785
X02989Y02192
X03089
X03583Y02721
Y02821
Y02921
Y03021
X0358Y03167
Y03267
T06
X02409Y02537
X03589
Y03427
X02409Y03417
T07
X00087Y00529
X02128Y02288
T08
X0115032Y0176917
Y0198571
Y0220224
X0185898
X0185898Y0198571
X0185898Y0176917
T09
X03785Y0017
X02356
X02361Y02204
X03812
T10
X0213Y00073
M30
