G04*
G04 #@! TF.GenerationSoftware,Altium Limited,Altium Designer,22.2.1 (43)*
G04*
G04 Layer_Color=65535*
%FSLAX25Y25*%
%MOIN*%
G70*
G04*
G04 #@! TF.SameCoordinates,3F60BFF8-F64E-45F8-B6E0-E43E19044127*
G04*
G04*
G04 #@! TF.FilePolarity,Positive*
G04*
G01*
G75*
%ADD10C,0.00600*%
%ADD11C,0.00394*%
%ADD12C,0.01000*%
%ADD13C,0.00500*%
%ADD14C,0.00787*%
%ADD15C,0.00807*%
%ADD16C,0.02000*%
D10*
X27400Y202700D02*
G03*
X27400Y202700I-300J0D01*
G01*
X37200Y198200D02*
G03*
X37200Y198200I-300J0D01*
G01*
X90000Y173950D02*
G03*
X90000Y173950I-300J0D01*
G01*
X153600Y145300D02*
G03*
X153600Y145300I-300J0D01*
G01*
X71300Y125700D02*
G03*
X71300Y125700I-300J0D01*
G01*
X4400Y161100D02*
G03*
X4400Y161100I-300J0D01*
G01*
X354400Y312800D02*
G03*
X354400Y312800I-300J0D01*
G01*
X39247Y117616D02*
G03*
X39247Y117616I-300J0D01*
G01*
X19100Y207737D02*
G03*
X19100Y207737I-300J0D01*
G01*
X264073Y288285D02*
G03*
X264073Y288285I-300J0D01*
G01*
X301614Y277873D02*
G03*
X301614Y277873I-300J0D01*
G01*
X281085Y317127D02*
G03*
X281085Y317127I-300J0D01*
G01*
X318827Y308514D02*
G03*
X318827Y308514I-300J0D01*
G01*
X25842Y85513D02*
G03*
X25842Y85513I-300J0D01*
G01*
X174400Y57200D02*
G03*
X174400Y57200I-300J0D01*
G01*
X288514Y295773D02*
G03*
X288514Y295773I-300J0D01*
G01*
X144000Y218800D02*
G03*
X144000Y218800I-300J0D01*
G01*
X179500Y108300D02*
G03*
X179500Y108300I-300J0D01*
G01*
X137200Y158300D02*
G03*
X137200Y158300I-300J0D01*
G01*
X167700Y109900D02*
G03*
X167700Y109900I-300J0D01*
G01*
X65850Y197100D02*
G03*
X65850Y197100I-50J0D01*
G01*
X23850Y207200D02*
G03*
X23850Y207200I-50J0D01*
G01*
X94150Y55731D02*
G03*
X94150Y55731I-300J0D01*
G01*
X60200Y207000D02*
G03*
X60200Y207000I-300J0D01*
G01*
X142165Y192671D02*
G03*
X142165Y192671I-300J0D01*
G01*
X39100Y163200D02*
G03*
X39100Y163200I-300J0D01*
G01*
X102500Y103400D02*
G03*
X102500Y103400I-300J0D01*
G01*
X44800Y82000D02*
G03*
X44800Y82000I-300J0D01*
G01*
X25126Y204345D02*
Y222455D01*
X40874Y204345D02*
Y222455D01*
X25126Y204345D02*
X27193D01*
X25126Y222455D02*
X27193D01*
X38807Y204345D02*
X40874D01*
X38807Y222455D02*
X40874D01*
X23126Y178445D02*
X25193D01*
X23126Y196555D02*
X25193D01*
X36807Y178445D02*
X38874D01*
X36807Y196555D02*
X38874D01*
X23126Y178445D02*
Y196555D01*
X38874Y178445D02*
Y196555D01*
X171506Y42166D02*
X172294D01*
X171500Y45600D02*
X172287D01*
X258700Y273400D02*
X259487D01*
X258706Y269966D02*
X259494D01*
X239634Y313306D02*
Y314094D01*
X236200Y313300D02*
Y314087D01*
X316600Y266800D02*
Y267587D01*
X320034Y266806D02*
Y267594D01*
X262366Y329106D02*
Y329894D01*
X265800Y329113D02*
Y329900D01*
X275613Y248600D02*
X276400D01*
X275606Y252034D02*
X276394D01*
X305506Y341966D02*
X306294D01*
X305500Y345400D02*
X306287D01*
X323013Y324000D02*
X323800D01*
X323006Y327434D02*
X323794D01*
X344466Y283006D02*
Y283794D01*
X347900Y283013D02*
Y283800D01*
X72225Y81413D02*
Y82200D01*
X68791Y81406D02*
Y82194D01*
X71766Y66606D02*
Y67394D01*
X75200Y66613D02*
Y67400D01*
X146913Y48800D02*
X147700D01*
X146906Y52234D02*
X147694D01*
X85966Y151306D02*
Y152094D01*
X89400Y151313D02*
Y152100D01*
X95700Y151113D02*
Y151900D01*
X92266Y151106D02*
Y151894D01*
X8957Y125234D02*
X9744D01*
X8963Y121800D02*
X9750D01*
X14700Y137313D02*
Y138100D01*
X11266Y137306D02*
Y138094D01*
X17266Y137456D02*
Y138243D01*
X20700Y137462D02*
Y138250D01*
X8900Y137313D02*
Y138100D01*
X5466Y137306D02*
Y138094D01*
X26606Y227266D02*
X27394D01*
X26600Y230700D02*
X27387D01*
X36900Y137600D02*
Y138387D01*
X40334Y137606D02*
Y138394D01*
X42866Y137506D02*
Y138294D01*
X46300Y137513D02*
Y138300D01*
X64400Y137613D02*
Y138400D01*
X60966Y137606D02*
Y138394D01*
X42966Y210606D02*
Y211394D01*
X46400Y210613D02*
Y211400D01*
X135700Y191113D02*
Y191900D01*
X132266Y191106D02*
Y191894D01*
X33581Y111822D02*
Y112609D01*
X30147Y111816D02*
Y112603D01*
X31000Y137650D02*
Y138437D01*
X34434Y137656D02*
Y138443D01*
X48866Y137506D02*
Y138294D01*
X52300Y137513D02*
Y138300D01*
X172200Y128600D02*
X172987D01*
X172206Y125166D02*
X172994D01*
X70334Y137506D02*
Y138294D01*
X66900Y137500D02*
Y138287D01*
X55000Y137578D02*
Y138365D01*
X58434Y137584D02*
Y138372D01*
X64706Y161166D02*
X65494D01*
X64706Y169434D02*
X65494D01*
X148200Y136000D02*
Y146000D01*
X118200Y136000D02*
Y146000D01*
X108200D02*
X148200D01*
X108200Y136000D02*
Y146000D01*
Y136000D02*
X148200D01*
X353300Y267100D02*
Y307100D01*
X363300D01*
Y267100D02*
Y307100D01*
X353300Y297100D02*
X363300D01*
X353300Y267100D02*
X363300D01*
X99000Y172850D02*
Y203850D01*
X88500Y172850D02*
X99000D01*
X88500Y203850D02*
X99000D01*
X88500Y172850D02*
Y203850D01*
X152200Y146500D02*
X183200D01*
Y136000D02*
Y146500D01*
X152200Y136000D02*
Y146500D01*
Y136000D02*
X183200D01*
X61700Y95800D02*
Y126800D01*
X72200D01*
X61700Y95800D02*
X72200D01*
Y126800D01*
X13500Y160000D02*
Y180300D01*
X3000Y160000D02*
X13500D01*
X3000Y180300D02*
X13500D01*
X3000Y160000D02*
Y180300D01*
X353000Y311700D02*
Y332000D01*
X363500D01*
X353000Y311700D02*
X363500D01*
Y332000D01*
X154500Y115600D02*
Y116387D01*
X145100Y115500D02*
Y116287D01*
X24100Y170600D02*
X24887D01*
X24206Y158366D02*
X24994D01*
X37347Y116216D02*
X39847D01*
X37347Y114216D02*
Y116216D01*
Y100616D02*
Y102616D01*
Y100616D02*
X39347D01*
X55847Y116216D02*
X58347D01*
Y114216D02*
Y116216D01*
Y100616D02*
Y102616D01*
X56347Y100616D02*
X58347D01*
X39347D02*
X39847D01*
X55847D02*
X56347D01*
X16721Y185870D02*
Y186579D01*
Y214295D02*
Y215004D01*
X9811Y185870D02*
X16721D01*
X9811Y215004D02*
X16721D01*
X241562Y286874D02*
X265184D01*
Y310496D01*
X241562D02*
X265184D01*
X241562Y286874D02*
Y310496D01*
X279103Y255662D02*
X302726D01*
X279103D02*
Y279284D01*
X302726D01*
Y255662D02*
Y279284D01*
X279374Y315716D02*
Y339338D01*
Y315716D02*
X302996D01*
Y339338D01*
X279374D02*
X302996D01*
X340738Y286303D02*
Y309926D01*
X317116Y286303D02*
X340738D01*
X317116D02*
Y309926D01*
X340738D01*
X3331Y84102D02*
X26953D01*
Y107724D01*
X3331D02*
X26953D01*
X3331Y84102D02*
Y107724D01*
X135415Y156901D02*
X174785D01*
X135415Y169499D02*
X174785D01*
X135415Y156901D02*
Y169499D01*
X174785Y156901D02*
Y169499D01*
X156300Y102000D02*
Y107000D01*
X168600Y102000D02*
Y107000D01*
X66856Y193543D02*
X67644D01*
X66813Y197057D02*
X67600D01*
X23757Y205400D02*
Y206187D01*
X20243Y205356D02*
Y206144D01*
X84627Y71392D02*
X89627D01*
X84750Y55209D02*
X89750D01*
X86013Y86500D02*
X86800D01*
X86013Y90100D02*
X86800D01*
X129713Y51000D02*
X130500D01*
X129713Y47400D02*
X130500D01*
X40382Y193456D02*
Y194244D01*
X50618Y193456D02*
Y194244D01*
X64856Y172082D02*
X65644D01*
X64856Y182318D02*
X65644D01*
X68156Y146582D02*
X68944D01*
X68156Y156818D02*
X68944D01*
X171513Y73700D02*
X172300D01*
X171506Y68666D02*
X172294D01*
X273434Y289806D02*
Y290594D01*
X268400Y289813D02*
Y290600D01*
X304300Y282500D02*
X305087D01*
X304306Y287534D02*
X305094D01*
X276806Y307466D02*
X277594D01*
X276813Y312500D02*
X277600D01*
X313700Y305700D02*
Y306487D01*
X308666Y305706D02*
Y306494D01*
X80666Y78606D02*
Y79394D01*
X85700Y78600D02*
Y79387D01*
X92800Y78500D02*
Y79287D01*
X87766Y78506D02*
Y79294D01*
X130606Y53166D02*
X131394D01*
X130613Y58200D02*
X131400D01*
X137100Y119513D02*
Y120300D01*
X142134Y119506D02*
Y120294D01*
X132634Y119506D02*
Y120294D01*
X127600Y119513D02*
Y120300D01*
X118300Y119513D02*
Y120300D01*
X123334Y119506D02*
Y120294D01*
X114234Y119506D02*
Y120294D01*
X109200Y119513D02*
Y120300D01*
X151700Y96100D02*
Y96887D01*
X146666Y96106D02*
Y96894D01*
X138666Y96106D02*
Y96894D01*
X143700Y96100D02*
Y96887D01*
X62113Y191400D02*
X62900D01*
X62106Y186366D02*
X62894D01*
X23466Y137606D02*
Y138394D01*
X28500Y137600D02*
Y138387D01*
X158900Y223313D02*
Y224100D01*
X163934Y223306D02*
Y224094D01*
X127666Y223806D02*
Y224594D01*
X132700Y223800D02*
Y224587D01*
X177200Y90900D02*
Y91687D01*
X172166Y90906D02*
Y91694D01*
X172434Y223306D02*
Y224094D01*
X167400Y223313D02*
Y224100D01*
X132800Y162000D02*
Y162787D01*
X127766Y162006D02*
Y162794D01*
X130490Y61232D02*
X131278D01*
X130496Y66266D02*
X131284D01*
X50500Y209000D02*
Y216500D01*
Y209000D02*
X60000D01*
X75000D02*
X84500D01*
Y216500D01*
X162367Y117006D02*
Y117794D01*
X158233Y117006D02*
Y117794D01*
X50267Y175606D02*
Y176394D01*
X46133Y175606D02*
Y176394D01*
X40033Y175706D02*
Y176494D01*
X44167Y175706D02*
Y176494D01*
X23606Y155567D02*
X24394D01*
X23606Y151433D02*
X24394D01*
X150833Y223306D02*
Y224094D01*
X154967Y223306D02*
Y224094D01*
X52211Y121671D02*
X52999D01*
X52211Y125805D02*
X52999D01*
X48106Y96067D02*
X48894D01*
X48106Y91933D02*
X48894D01*
X36211Y125805D02*
X36999D01*
X36211Y121671D02*
X36999D01*
X166667Y91443D02*
Y92231D01*
X162533Y91443D02*
Y92231D01*
X82606Y121433D02*
X83394D01*
X82606Y125567D02*
X83394D01*
X81669Y118067D02*
X82457D01*
X81669Y113933D02*
X82457D01*
X81833Y187206D02*
Y187994D01*
X85967Y187206D02*
Y187994D01*
X155133Y91443D02*
Y92231D01*
X159267Y91443D02*
Y92231D01*
X14606Y222567D02*
X15394D01*
X14606Y218433D02*
X15394D01*
X100667Y64543D02*
Y65331D01*
X96533Y64543D02*
Y65331D01*
X93867Y113606D02*
Y114394D01*
X89733Y113606D02*
Y114394D01*
X173406Y52133D02*
X174194D01*
X173406Y56267D02*
X174194D01*
X174006Y118067D02*
X174794D01*
X174006Y113933D02*
X174794D01*
X160504Y191287D02*
Y205854D01*
X140425Y191287D02*
Y205854D01*
X160504D01*
X140425Y191287D02*
X160504D01*
X37610Y163209D02*
Y164390D01*
Y150610D02*
Y151791D01*
X51390Y163209D02*
Y164390D01*
Y150610D02*
Y151791D01*
X37610Y164390D02*
X38791D01*
X37610Y150610D02*
X38791D01*
X50209Y164390D02*
X51390D01*
X50209Y150610D02*
X51390D01*
X100933Y75433D02*
X102587D01*
X100933D02*
Y77087D01*
X128413Y75433D02*
X130067D01*
Y77087D01*
Y102913D02*
Y104567D01*
X128413D02*
X130067D01*
X100933D02*
X102587D01*
X100933Y102913D02*
Y104567D01*
X45720Y81900D02*
X48280D01*
X45720Y56900D02*
Y81900D01*
Y56900D02*
X48280D01*
Y81900D01*
X197761Y137300D02*
X194762D01*
X195762Y138300D01*
X194762Y139299D01*
X197761D01*
Y140299D02*
X195762D01*
X194762Y141299D01*
X195762Y142298D01*
X197761D01*
X196262D01*
Y140299D01*
X195262Y145297D02*
X194762Y144798D01*
Y143798D01*
X195262Y143298D01*
X197261D01*
X197761Y143798D01*
Y144798D01*
X197261Y145297D01*
X196262D01*
Y144298D01*
X197761Y146297D02*
X194762D01*
X197761Y148296D01*
X194762D01*
Y151295D02*
Y149296D01*
X197761D01*
Y151295D01*
X196262Y149296D02*
Y150296D01*
X194762Y152295D02*
Y154295D01*
Y153295D01*
X197761D01*
X194762Y155294D02*
Y156294D01*
Y155794D01*
X197761D01*
Y155294D01*
Y156294D01*
X195262Y159793D02*
X194762Y159293D01*
Y158293D01*
X195262Y157793D01*
X197261D01*
X197761Y158293D01*
Y159293D01*
X197261Y159793D01*
X199801Y139299D02*
Y137300D01*
X202800D01*
Y139299D01*
X201301Y137300D02*
Y138300D01*
X202800Y140299D02*
X199801D01*
X202800Y142298D01*
X199801D01*
X200301Y145297D02*
X199801Y144798D01*
Y143798D01*
X200301Y143298D01*
X202300D01*
X202800Y143798D01*
Y144798D01*
X202300Y145297D01*
X199801Y147797D02*
Y146797D01*
X200301Y146297D01*
X202300D01*
X202800Y146797D01*
Y147797D01*
X202300Y148296D01*
X200301D01*
X199801Y147797D01*
Y149296D02*
X202800D01*
Y150796D01*
X202300Y151295D01*
X200301D01*
X199801Y150796D01*
Y149296D01*
Y154295D02*
Y152295D01*
X202800D01*
Y154295D01*
X201301Y152295D02*
Y153295D01*
X202800Y155294D02*
X199801D01*
Y156794D01*
X200301Y157293D01*
X201301D01*
X201800Y156794D01*
Y155294D01*
Y156294D02*
X202800Y157293D01*
X338861Y329400D02*
X335862D01*
X336862Y330400D01*
X335862Y331399D01*
X338861D01*
Y333898D02*
Y332899D01*
X338361Y332399D01*
X337362D01*
X336862Y332899D01*
Y333898D01*
X337362Y334398D01*
X337861D01*
Y332399D01*
X338861Y335398D02*
X336862D01*
Y336898D01*
X337362Y337397D01*
X338861D01*
X336862Y338397D02*
X338361D01*
X338861Y338897D01*
Y340396D01*
X336862D01*
X341401Y331399D02*
X340901Y330900D01*
Y329900D01*
X341401Y329400D01*
X343400D01*
X343900Y329900D01*
Y330900D01*
X343400Y331399D01*
X343900Y332899D02*
Y333898D01*
X343400Y334398D01*
X342401D01*
X341901Y333898D01*
Y332899D01*
X342401Y332399D01*
X343400D01*
X343900Y332899D01*
Y335398D02*
X341901D01*
Y336898D01*
X342401Y337397D01*
X343900D01*
X341401Y338897D02*
X341901D01*
Y338397D01*
Y339397D01*
Y338897D01*
X343400D01*
X343900Y339397D01*
X341901Y340896D02*
X343900D01*
X342900D01*
X342401Y341396D01*
X341901Y341896D01*
Y342396D01*
X343900Y344395D02*
Y345395D01*
X343400Y345895D01*
X342401D01*
X341901Y345395D01*
Y344395D01*
X342401Y343895D01*
X343400D01*
X343900Y344395D01*
Y346894D02*
Y347894D01*
Y347394D01*
X340901D01*
Y346894D01*
X157017Y29566D02*
X156601Y29150D01*
Y28317D01*
X157017Y27900D01*
X158684D01*
X159100Y28317D01*
Y29150D01*
X158684Y29566D01*
X157850D01*
Y28733D01*
X159100Y30399D02*
X156601D01*
X159100Y32065D01*
X156601D01*
Y32898D02*
X159100D01*
Y34148D01*
X158684Y34565D01*
X157017D01*
X156601Y34148D01*
Y32898D01*
X281999Y343799D02*
X281500Y344299D01*
X280500D01*
X280000Y343799D01*
Y341800D01*
X280500Y341300D01*
X281500D01*
X281999Y341800D01*
Y342799D01*
X281000D01*
X284499Y344299D02*
X283499D01*
X282999Y343799D01*
Y341800D01*
X283499Y341300D01*
X284499D01*
X284998Y341800D01*
Y343799D01*
X284499Y344299D01*
X349101Y269200D02*
X351184D01*
X351600Y269617D01*
Y270450D01*
X351184Y270866D01*
X349101D01*
X351600Y271699D02*
X349101D01*
Y272949D01*
X349517Y273365D01*
X350350D01*
X350767Y272949D01*
Y271699D01*
X349101Y276200D02*
X351600D01*
Y277450D01*
X351184Y277866D01*
X349517D01*
X349101Y277450D01*
Y276200D01*
Y279949D02*
Y279116D01*
X349517Y278699D01*
X351184D01*
X351600Y279116D01*
Y279949D01*
X351184Y280365D01*
X349517D01*
X349101Y279949D01*
Y281198D02*
X351600D01*
X350767Y282031D01*
X351600Y282864D01*
X349101D01*
X351600Y283698D02*
X349101D01*
X351600Y285364D01*
X349101D01*
X349517Y326366D02*
X349101Y325950D01*
Y325116D01*
X349517Y324700D01*
X351184D01*
X351600Y325116D01*
Y325950D01*
X351184Y326366D01*
X350350D01*
Y325533D01*
X351600Y327199D02*
X349101D01*
X351600Y328865D01*
X349101D01*
Y329698D02*
X351600D01*
Y330948D01*
X351184Y331364D01*
X349517D01*
X349101Y330948D01*
Y329698D01*
X302300Y250601D02*
Y253600D01*
X300800D01*
X300301Y253100D01*
Y252600D01*
X300800Y252100D01*
X302300D01*
X300800D01*
X300301Y251601D01*
Y251101D01*
X300800Y250601D01*
X302300D01*
X299301Y253600D02*
Y251601D01*
X298301Y250601D01*
X297302Y251601D01*
Y253600D01*
Y252100D01*
X299301D01*
X294303Y251101D02*
X294802Y250601D01*
X295802D01*
X296302Y251101D01*
Y253100D01*
X295802Y253600D01*
X294802D01*
X294303Y253100D01*
X293303Y250601D02*
Y253600D01*
Y252600D01*
X291304Y250601D01*
X292803Y252100D01*
X291304Y253600D01*
X237301Y287300D02*
X239800D01*
X240300Y287800D01*
Y288800D01*
X239800Y289299D01*
X237301D01*
X240300Y290299D02*
X237301D01*
Y291798D01*
X237801Y292298D01*
X238801D01*
X239300Y291798D01*
Y290299D01*
X349617Y312900D02*
X349201Y313316D01*
Y314150D01*
X349617Y314566D01*
X350034D01*
X350450Y314150D01*
Y313733D01*
Y314150D01*
X350867Y314566D01*
X351284D01*
X351700Y314150D01*
Y313316D01*
X351284Y312900D01*
X349201Y315399D02*
X350867D01*
X351700Y316232D01*
X350867Y317065D01*
X349201D01*
X351700Y319565D02*
Y317898D01*
X350034Y319565D01*
X349617D01*
X349201Y319148D01*
Y318315D01*
X349617Y317898D01*
X349517Y301366D02*
X349101Y300950D01*
Y300116D01*
X349517Y299700D01*
X351184D01*
X351600Y300116D01*
Y300950D01*
X351184Y301366D01*
X350350D01*
Y300533D01*
X349101Y303449D02*
Y302616D01*
X349517Y302199D01*
X351184D01*
X351600Y302616D01*
Y303449D01*
X351184Y303865D01*
X349517D01*
X349101Y303449D01*
Y287700D02*
X351600D01*
Y288950D01*
X351184Y289366D01*
X350767D01*
X350350Y288950D01*
Y287700D01*
Y288950D01*
X349934Y289366D01*
X349517D01*
X349101Y288950D01*
Y287700D01*
X351600Y290199D02*
X349934D01*
X349101Y291032D01*
X349934Y291865D01*
X351600D01*
X350350D01*
Y290199D01*
X349517Y294365D02*
X349101Y293948D01*
Y293115D01*
X349517Y292698D01*
X351184D01*
X351600Y293115D01*
Y293948D01*
X351184Y294365D01*
X349101Y295198D02*
X351600D01*
X350767D01*
X349101Y296864D01*
X350350Y295614D01*
X351600Y296864D01*
X342801Y297300D02*
X345800D01*
Y298799D01*
X345300Y299299D01*
X343301D01*
X342801Y298799D01*
Y297300D01*
Y301799D02*
Y300799D01*
X343301Y300299D01*
X345300D01*
X345800Y300799D01*
Y301799D01*
X345300Y302298D01*
X343301D01*
X342801Y301799D01*
Y303298D02*
X345800D01*
X344800Y304298D01*
X345800Y305297D01*
X342801D01*
X345800Y306297D02*
X342801D01*
X345800Y308296D01*
X342801D01*
X3100Y5516D02*
Y3016D01*
X4766D01*
X5599D02*
Y5516D01*
X6849D01*
X7265Y5099D01*
Y4266D01*
X6849Y3850D01*
X5599D01*
X9764Y5516D02*
X8098D01*
Y3016D01*
X9764D01*
X8098Y4266D02*
X8931D01*
X10598Y5516D02*
Y3016D01*
X11847D01*
X12264Y3433D01*
Y5099D01*
X11847Y5516D01*
X10598D01*
X13097D02*
X14763D01*
X13930D01*
Y3016D01*
X15596Y2600D02*
X17262D01*
X19761Y5099D02*
X19345Y5516D01*
X18512D01*
X18095Y5099D01*
Y4683D01*
X18512Y4266D01*
X19345D01*
X19761Y3850D01*
Y3433D01*
X19345Y3016D01*
X18512D01*
X18095Y3433D01*
X22261Y3016D02*
X20594D01*
X22261Y4683D01*
Y5099D01*
X21844Y5516D01*
X21011D01*
X20594Y5099D01*
X23094D02*
X23510Y5516D01*
X24343D01*
X24760Y5099D01*
Y3433D01*
X24343Y3016D01*
X23510D01*
X23094Y3433D01*
Y5099D01*
X27259Y3016D02*
X25593D01*
X27259Y4683D01*
Y5099D01*
X26842Y5516D01*
X26009D01*
X25593Y5099D01*
X29758Y3016D02*
X28092D01*
X29758Y4683D01*
Y5099D01*
X29342Y5516D01*
X28508D01*
X28092Y5099D01*
X3100Y8433D02*
Y10932D01*
X4350D01*
X4766Y10516D01*
Y9683D01*
X4350Y9266D01*
X3100D01*
X3933D02*
X4766Y8433D01*
X6016Y10099D02*
X6849D01*
X7265Y9683D01*
Y8433D01*
X6016D01*
X5599Y8850D01*
X6016Y9266D01*
X7265D01*
X8098Y7600D02*
X8515D01*
X8931Y8016D01*
Y10099D01*
X11014D02*
X11847D01*
X12264Y9683D01*
Y8433D01*
X11014D01*
X10598Y8850D01*
X11014Y9266D01*
X12264D01*
X13513Y10516D02*
Y10099D01*
X13097D01*
X13930D01*
X13513D01*
Y8850D01*
X13930Y8433D01*
X19345Y10516D02*
X18928Y10932D01*
X18095D01*
X17679Y10516D01*
Y8850D01*
X18095Y8433D01*
X18928D01*
X19345Y8850D01*
X20178Y10932D02*
Y8433D01*
Y9683D01*
X20594Y10099D01*
X21427D01*
X21844Y9683D01*
Y8433D01*
X23094Y10099D02*
X23927D01*
X24343Y9683D01*
Y8433D01*
X23094D01*
X22677Y8850D01*
X23094Y9266D01*
X24343D01*
X25176Y7600D02*
Y10099D01*
X26426D01*
X26842Y9683D01*
Y8850D01*
X26426Y8433D01*
X25176D01*
X27675D02*
X28508D01*
X28092D01*
Y10932D01*
X27675D01*
X31008Y8433D02*
X30175D01*
X29758Y8850D01*
Y9683D01*
X30175Y10099D01*
X31008D01*
X31424Y9683D01*
Y9266D01*
X29758D01*
X4766Y15683D02*
X4350Y16099D01*
X3517D01*
X3100Y15683D01*
Y15266D01*
X3517Y14850D01*
X4350D01*
X4766Y14433D01*
Y14017D01*
X4350Y13600D01*
X3517D01*
X3100Y14017D01*
X6016Y15266D02*
X6849D01*
X7265Y14850D01*
Y13600D01*
X6016D01*
X5599Y14017D01*
X6016Y14433D01*
X7265D01*
X8098Y13600D02*
X8931D01*
X8515D01*
Y16099D01*
X8098D01*
X10598Y13600D02*
X11431D01*
X11847Y14017D01*
Y14850D01*
X11431Y15266D01*
X10598D01*
X10181Y14850D01*
Y14017D01*
X10598Y13600D01*
X12680D02*
Y15266D01*
X13930D01*
X14346Y14850D01*
Y13600D01*
X15179D02*
X16013D01*
X15596D01*
Y15266D01*
X15179D01*
X21427Y15683D02*
X21011Y16099D01*
X20178D01*
X19761Y15683D01*
Y15266D01*
X20178Y14850D01*
X21011D01*
X21427Y14433D01*
Y14017D01*
X21011Y13600D01*
X20178D01*
X19761Y14017D01*
X22261Y16099D02*
Y13600D01*
Y14850D01*
X22677Y15266D01*
X23510D01*
X23927Y14850D01*
Y13600D01*
X25176Y15266D02*
X26009D01*
X26426Y14850D01*
Y13600D01*
X25176D01*
X24760Y14017D01*
X25176Y14433D01*
X26426D01*
X27259Y16099D02*
Y13600D01*
Y14850D01*
X27675Y15266D01*
X28508D01*
X28925Y14850D01*
Y13600D01*
X4766Y20683D02*
X4350Y21099D01*
X3517D01*
X3100Y20683D01*
Y19016D01*
X3517Y18600D01*
X4350D01*
X4766Y19016D01*
X5599Y21099D02*
Y19016D01*
X6016Y18600D01*
X6849D01*
X7265Y19016D01*
Y21099D01*
X8098D02*
Y18600D01*
X9348D01*
X9764Y19016D01*
Y19433D01*
X9348Y19850D01*
X8098D01*
X9348D01*
X9764Y20266D01*
Y20683D01*
X9348Y21099D01*
X8098D01*
X10598D02*
X11431D01*
X11014D01*
Y18600D01*
X10598D01*
X11431D01*
X12680Y21099D02*
X14346D01*
X13513D01*
Y18600D01*
X322700Y220199D02*
Y218533D01*
X323533Y217700D01*
X324366Y218533D01*
Y220199D01*
X325199Y218950D02*
X326865D01*
X287600Y220399D02*
Y218733D01*
X288433Y217900D01*
X289266Y218733D01*
Y220399D01*
X290099Y219150D02*
X291765D01*
X290932Y219983D02*
Y218317D01*
X250866Y221983D02*
X250450Y222399D01*
X249617D01*
X249200Y221983D01*
Y221566D01*
X249617Y221150D01*
X250450D01*
X250866Y220733D01*
Y220317D01*
X250450Y219900D01*
X249617D01*
X249200Y220317D01*
X252116Y219900D02*
X252949D01*
X253365Y220317D01*
Y221150D01*
X252949Y221566D01*
X252116D01*
X251699Y221150D01*
Y220317D01*
X252116Y219900D01*
X254198D02*
X255031D01*
X254615D01*
Y222399D01*
X254198D01*
X256698Y221566D02*
X257531D01*
X257947Y221150D01*
Y219900D01*
X256698D01*
X256281Y220317D01*
X256698Y220733D01*
X257947D01*
X258780Y221566D02*
Y219900D01*
Y220733D01*
X259197Y221150D01*
X259613Y221566D01*
X260030D01*
X263779Y219900D02*
Y222399D01*
X265028D01*
X265445Y221983D01*
Y221150D01*
X265028Y220733D01*
X263779D01*
X266694Y221566D02*
X267527D01*
X267944Y221150D01*
Y219900D01*
X266694D01*
X266278Y220317D01*
X266694Y220733D01*
X267944D01*
X268777Y219900D02*
Y221566D01*
X270027D01*
X270443Y221150D01*
Y219900D01*
X272526D02*
X271693D01*
X271276Y220317D01*
Y221150D01*
X271693Y221566D01*
X272526D01*
X272942Y221150D01*
Y220733D01*
X271276D01*
X273775Y219900D02*
X274608D01*
X274192D01*
Y222399D01*
X273775D01*
X191100Y129599D02*
X192766D01*
X191933D01*
Y127100D01*
X193599Y129599D02*
X195265Y127100D01*
Y129599D02*
X193599Y127100D01*
X197765D02*
X196098D01*
X197765Y128766D01*
Y129183D01*
X197348Y129599D01*
X196515D01*
X196098Y129183D01*
X191100Y114100D02*
Y116599D01*
X192350D01*
X192766Y116183D01*
Y115350D01*
X192350Y114933D01*
X191100D01*
X191933D02*
X192766Y114100D01*
X193599Y116599D02*
X195265Y114100D01*
Y116599D02*
X193599Y114100D01*
X197765D02*
X196098D01*
X197765Y115766D01*
Y116183D01*
X197348Y116599D01*
X196515D01*
X196098Y116183D01*
X191100Y108099D02*
Y106017D01*
X191516Y105600D01*
X192350D01*
X192766Y106017D01*
Y108099D01*
X193599D02*
Y105600D01*
X195265D01*
X196098Y108099D02*
X197765D01*
X196931D01*
Y105600D01*
X198598D02*
Y108099D01*
X199847D01*
X200264Y107683D01*
Y106850D01*
X199847Y106433D01*
X198598D01*
X201097Y108099D02*
Y105600D01*
X201930Y106433D01*
X202763Y105600D01*
Y108099D01*
X203596Y105600D02*
Y108099D01*
X204846D01*
X205262Y107683D01*
Y106850D01*
X204846Y106433D01*
X203596D01*
X204429D02*
X205262Y105600D01*
X193266Y97683D02*
X192850Y98099D01*
X192016D01*
X191600Y97683D01*
Y96017D01*
X192016Y95600D01*
X192850D01*
X193266Y96017D01*
Y96850D01*
X192433D01*
X194099Y95600D02*
Y98099D01*
X195765Y95600D01*
Y98099D01*
X196598D02*
Y95600D01*
X197848D01*
X198265Y96017D01*
Y97683D01*
X197848Y98099D01*
X196598D01*
X192766Y86599D02*
X191100D01*
Y84100D01*
X192766D01*
X191100Y85350D02*
X191933D01*
X193599Y86599D02*
X195265Y84100D01*
Y86599D02*
X193599Y84100D01*
X196098Y86599D02*
X197765D01*
X196931D01*
Y84100D01*
X200264Y86183D02*
X199847Y86599D01*
X199014D01*
X198598Y86183D01*
Y84517D01*
X199014Y84100D01*
X199847D01*
X200264Y84517D01*
X202346Y86599D02*
X201513D01*
X201097Y86183D01*
Y84517D01*
X201513Y84100D01*
X202346D01*
X202763Y84517D01*
Y86183D01*
X202346Y86599D01*
X203596Y84100D02*
Y86599D01*
X204429Y85766D01*
X205262Y86599D01*
Y84100D01*
X191100Y76599D02*
Y74100D01*
X192766D01*
X195265Y76183D02*
X194849Y76599D01*
X194016D01*
X193599Y76183D01*
Y74516D01*
X194016Y74100D01*
X194849D01*
X195265Y74516D01*
X196098Y76599D02*
Y74100D01*
X197348D01*
X197765Y74516D01*
Y76183D01*
X197348Y76599D01*
X196098D01*
X200264Y76183D02*
X199847Y76599D01*
X199014D01*
X198598Y76183D01*
Y74516D01*
X199014Y74100D01*
X199847D01*
X200264Y74516D01*
X202763Y76183D02*
X202346Y76599D01*
X201513D01*
X201097Y76183D01*
Y75766D01*
X201513Y75350D01*
X202346D01*
X202763Y74933D01*
Y74516D01*
X202346Y74100D01*
X201513D01*
X201097Y74516D01*
X191100Y66600D02*
Y69099D01*
X191933Y68266D01*
X192766Y69099D01*
Y66600D01*
X194849Y69099D02*
X194016D01*
X193599Y68683D01*
Y67017D01*
X194016Y66600D01*
X194849D01*
X195265Y67017D01*
Y68683D01*
X194849Y69099D01*
X197765Y68683D02*
X197348Y69099D01*
X196515D01*
X196098Y68683D01*
Y68266D01*
X196515Y67850D01*
X197348D01*
X197765Y67433D01*
Y67017D01*
X197348Y66600D01*
X196515D01*
X196098Y67017D01*
X198598Y69099D02*
X199431D01*
X199014D01*
Y66600D01*
X198598D01*
X199431D01*
X192766Y56683D02*
X192350Y57099D01*
X191516D01*
X191100Y56683D01*
Y56266D01*
X191516Y55850D01*
X192350D01*
X192766Y55433D01*
Y55016D01*
X192350Y54600D01*
X191516D01*
X191100Y55016D01*
X195265Y56683D02*
X194849Y57099D01*
X194016D01*
X193599Y56683D01*
Y55016D01*
X194016Y54600D01*
X194849D01*
X195265Y55016D01*
X196098Y57099D02*
Y54600D01*
X197765D01*
X198598Y57099D02*
Y54600D01*
Y55433D01*
X200264Y57099D01*
X199014Y55850D01*
X200264Y54600D01*
X192766Y46183D02*
X192350Y46599D01*
X191516D01*
X191100Y46183D01*
Y44517D01*
X191516Y44100D01*
X192350D01*
X192766Y44517D01*
Y45350D01*
X191933D01*
X193599Y44100D02*
Y46599D01*
X195265Y44100D01*
Y46599D01*
X196098D02*
Y44100D01*
X197348D01*
X197765Y44517D01*
Y46183D01*
X197348Y46599D01*
X196098D01*
X191100Y36599D02*
Y34100D01*
X192766D01*
X195265Y36183D02*
X194849Y36599D01*
X194016D01*
X193599Y36183D01*
Y34517D01*
X194016Y34100D01*
X194849D01*
X195265Y34517D01*
X196098Y36599D02*
Y34100D01*
X197348D01*
X197765Y34517D01*
Y36183D01*
X197348Y36599D01*
X196098D01*
X198598Y34100D02*
Y36599D01*
X199847D01*
X200264Y36183D01*
Y35350D01*
X199847Y34933D01*
X198598D01*
X201097Y36599D02*
Y34100D01*
X201930Y34933D01*
X202763Y34100D01*
Y36599D01*
X203596Y34100D02*
Y36599D01*
X204846D01*
X205262Y36183D01*
Y35350D01*
X204846Y34933D01*
X203596D01*
X204429D02*
X205262Y34100D01*
X190600Y13599D02*
Y11517D01*
X191016Y11100D01*
X191850D01*
X192266Y11517D01*
Y13599D01*
X193099Y11100D02*
Y13599D01*
X194349D01*
X194765Y13183D01*
Y12350D01*
X194349Y11933D01*
X193099D01*
X177600Y13599D02*
Y11100D01*
X178850D01*
X179266Y11517D01*
Y13183D01*
X178850Y13599D01*
X177600D01*
X181349D02*
X180516D01*
X180099Y13183D01*
Y11517D01*
X180516Y11100D01*
X181349D01*
X181765Y11517D01*
Y13183D01*
X181349Y13599D01*
X182598D02*
Y11100D01*
X183431Y11933D01*
X184265Y11100D01*
Y13599D01*
X185098Y11100D02*
Y13599D01*
X186764Y11100D01*
Y13599D01*
X165100D02*
Y11100D01*
X166350D01*
X166766Y11517D01*
Y11933D01*
X166350Y12350D01*
X165100D01*
X166350D01*
X166766Y12766D01*
Y13183D01*
X166350Y13599D01*
X165100D01*
X167599Y11100D02*
Y12766D01*
X168432Y13599D01*
X169265Y12766D01*
Y11100D01*
Y12350D01*
X167599D01*
X171765Y13183D02*
X171348Y13599D01*
X170515D01*
X170098Y13183D01*
Y11517D01*
X170515Y11100D01*
X171348D01*
X171765Y11517D01*
X172598Y13599D02*
Y11100D01*
Y11933D01*
X174264Y13599D01*
X173014Y12350D01*
X174264Y11100D01*
X158266Y13183D02*
X157850Y13599D01*
X157017D01*
X156600Y13183D01*
Y11517D01*
X157017Y11100D01*
X157850D01*
X158266Y11517D01*
Y12350D01*
X157433D01*
X160349Y13599D02*
X159516D01*
X159099Y13183D01*
Y11517D01*
X159516Y11100D01*
X160349D01*
X160765Y11517D01*
Y13183D01*
X160349Y13599D01*
X146600Y13183D02*
X147017Y13599D01*
X147850D01*
X148266Y13183D01*
Y12766D01*
X147850Y12350D01*
X147433D01*
X147850D01*
X148266Y11933D01*
Y11517D01*
X147850Y11100D01*
X147017D01*
X146600Y11517D01*
X149099Y13599D02*
Y11933D01*
X149932Y11100D01*
X150765Y11933D01*
Y13599D01*
X153264Y11100D02*
X151598D01*
X153264Y12766D01*
Y13183D01*
X152848Y13599D01*
X152015D01*
X151598Y13183D01*
X177992Y42740D02*
X180991D01*
Y44739D01*
X178492Y47739D02*
X177992Y47239D01*
Y46239D01*
X178492Y45739D01*
X180491D01*
X180991Y46239D01*
Y47239D01*
X180491Y47739D01*
X177992Y48738D02*
X180991D01*
Y50238D01*
X180491Y50738D01*
X178492D01*
X177992Y50238D01*
Y48738D01*
X144100Y46099D02*
Y43600D01*
X145766D01*
X148265Y46099D02*
X146599D01*
Y43600D01*
X148265D01*
X146599Y44850D02*
X147432D01*
X149098Y46099D02*
Y43600D01*
X150348D01*
X150765Y44017D01*
Y45683D01*
X150348Y46099D01*
X149098D01*
X123699Y72799D02*
X121700D01*
Y69800D01*
X123699D01*
X121700Y71299D02*
X122700D01*
X126698Y72799D02*
X124699D01*
Y71299D01*
X125699D01*
X124699D01*
Y69800D01*
X127698D02*
Y72799D01*
X129198D01*
X129697Y72299D01*
Y71299D01*
X129198Y70800D01*
X127698D01*
X128698D02*
X129697Y69800D01*
X130697Y72299D02*
X131197Y72799D01*
X132197D01*
X132696Y72299D01*
Y71799D01*
X132197Y71299D01*
X131697D01*
X132197D01*
X132696Y70800D01*
Y70300D01*
X132197Y69800D01*
X131197D01*
X130697Y70300D01*
X135696Y69800D02*
X133696D01*
X135696Y71799D01*
Y72299D01*
X135196Y72799D01*
X134196D01*
X133696Y72299D01*
X64100Y61599D02*
X65766D01*
X64933D01*
Y59100D01*
X66599Y61599D02*
X68265Y59100D01*
Y61599D02*
X66599Y59100D01*
X61600Y73100D02*
Y75599D01*
X62850D01*
X63266Y75183D01*
Y74350D01*
X62850Y73933D01*
X61600D01*
X62433D02*
X63266Y73100D01*
X64099Y75599D02*
X65765Y73100D01*
Y75599D02*
X64099Y73100D01*
X22500Y56899D02*
Y53900D01*
X24000D01*
X24499Y54400D01*
Y56399D01*
X24000Y56899D01*
X22500D01*
X26999Y53900D02*
X25999D01*
X25499Y54400D01*
Y55399D01*
X25999Y55899D01*
X26999D01*
X27498Y55399D01*
Y54899D01*
X25499D01*
X28498Y56899D02*
Y53900D01*
X29998D01*
X30497Y54400D01*
Y54899D01*
Y55399D01*
X29998Y55899D01*
X28498D01*
X31497D02*
Y54400D01*
X31997Y53900D01*
X33496D01*
Y55899D01*
X35496Y52900D02*
X35996D01*
X36496Y53400D01*
Y55899D01*
X34996D01*
X34496Y55399D01*
Y54400D01*
X34996Y53900D01*
X36496D01*
X74317Y98266D02*
X73901Y97850D01*
Y97017D01*
X74317Y96600D01*
X75984D01*
X76400Y97017D01*
Y97850D01*
X75984Y98266D01*
X75150D01*
Y97433D01*
X76400Y99099D02*
X73901D01*
X76400Y100765D01*
X73901D01*
Y101598D02*
X76400D01*
Y102848D01*
X75984Y103264D01*
X74317D01*
X73901Y102848D01*
Y101598D01*
X74317Y108766D02*
X73901Y108350D01*
Y107517D01*
X74317Y107100D01*
X74734D01*
X75150Y107517D01*
Y108350D01*
X75567Y108766D01*
X75984D01*
X76400Y108350D01*
Y107517D01*
X75984Y107100D01*
X74317Y111265D02*
X73901Y110849D01*
Y110016D01*
X74317Y109599D01*
X75984D01*
X76400Y110016D01*
Y110849D01*
X75984Y111265D01*
X73901Y112098D02*
X76400D01*
Y113765D01*
X74317Y120266D02*
X73901Y119850D01*
Y119017D01*
X74317Y118600D01*
X74734D01*
X75150Y119017D01*
Y119850D01*
X75567Y120266D01*
X75984D01*
X76400Y119850D01*
Y119017D01*
X75984Y118600D01*
X73901Y121099D02*
X76400D01*
Y122349D01*
X75984Y122765D01*
X74317D01*
X73901Y122349D01*
Y121099D01*
X76400Y123598D02*
X74734D01*
X73901Y124431D01*
X74734Y125265D01*
X76400D01*
X75150D01*
Y123598D01*
X164289Y111663D02*
X166788D01*
X167288Y112163D01*
Y113163D01*
X166788Y113663D01*
X164289D01*
Y114663D02*
X167288D01*
Y116662D01*
X164289Y117661D02*
Y119661D01*
Y118661D01*
X167288D01*
X177222Y134450D02*
X176805Y134867D01*
X175972D01*
X175556Y134450D01*
Y132784D01*
X175972Y132368D01*
X176805D01*
X177222Y132784D01*
X179721Y134450D02*
X179305Y134867D01*
X178472D01*
X178055Y134450D01*
Y134034D01*
X178472Y133617D01*
X179305D01*
X179721Y133201D01*
Y132784D01*
X179305Y132368D01*
X178472D01*
X178055Y132784D01*
X166115Y132368D02*
Y134034D01*
X166948Y134867D01*
X167781Y134034D01*
Y132368D01*
Y133617D01*
X166115D01*
X156177Y134867D02*
Y132368D01*
X157427D01*
X157843Y132784D01*
Y133201D01*
X157427Y133617D01*
X156177D01*
X157427D01*
X157843Y134034D01*
Y134450D01*
X157427Y134867D01*
X156177D01*
X143047Y134506D02*
X142630Y134922D01*
X141797D01*
X141381Y134506D01*
Y132840D01*
X141797Y132423D01*
X142630D01*
X143047Y132840D01*
Y133673D01*
X142214D01*
X143880Y132423D02*
Y134922D01*
X145546Y132423D01*
Y134922D01*
X146379D02*
Y132423D01*
X147629D01*
X148045Y132840D01*
Y134506D01*
X147629Y134922D01*
X146379D01*
X129566Y132534D02*
Y135033D01*
X130399Y134200D01*
X131232Y135033D01*
Y132534D01*
X133315Y135033D02*
X132482D01*
X132065Y134616D01*
Y132950D01*
X132482Y132534D01*
X133315D01*
X133731Y132950D01*
Y134616D01*
X133315Y135033D01*
X136230Y134616D02*
X135814Y135033D01*
X134981D01*
X134564Y134616D01*
Y134200D01*
X134981Y133783D01*
X135814D01*
X136230Y133367D01*
Y132950D01*
X135814Y132534D01*
X134981D01*
X134564Y132950D01*
X137063Y135033D02*
X137897D01*
X137480D01*
Y132534D01*
X137063D01*
X137897D01*
X118634D02*
Y135033D01*
X119467Y134200D01*
X120300Y135033D01*
Y132534D01*
X121133Y135033D02*
X121967D01*
X121550D01*
Y132534D01*
X121133D01*
X121967D01*
X124882Y134616D02*
X124466Y135033D01*
X123633D01*
X123216Y134616D01*
Y134200D01*
X123633Y133783D01*
X124466D01*
X124882Y133367D01*
Y132950D01*
X124466Y132534D01*
X123633D01*
X123216Y132950D01*
X126965Y135033D02*
X126132D01*
X125715Y134616D01*
Y132950D01*
X126132Y132534D01*
X126965D01*
X127381Y132950D01*
Y134616D01*
X126965Y135033D01*
X109266Y134583D02*
X108850Y134999D01*
X108017D01*
X107600Y134583D01*
Y134166D01*
X108017Y133750D01*
X108850D01*
X109266Y133333D01*
Y132916D01*
X108850Y132500D01*
X108017D01*
X107600Y132916D01*
X111765Y134583D02*
X111349Y134999D01*
X110516D01*
X110099Y134583D01*
Y132916D01*
X110516Y132500D01*
X111349D01*
X111765Y132916D01*
X112598Y134999D02*
Y132500D01*
X114265D01*
X115098Y134999D02*
Y132500D01*
Y133333D01*
X116764Y134999D01*
X115514Y133750D01*
X116764Y132500D01*
X129983Y192600D02*
X127484D01*
X128317Y193433D01*
X127484Y194266D01*
X129983D01*
Y195099D02*
X128317D01*
X127484Y195932D01*
X128317Y196765D01*
X129983D01*
X128734D01*
Y195099D01*
X127901Y199265D02*
X127484Y198848D01*
Y198015D01*
X127901Y197598D01*
X129567D01*
X129983Y198015D01*
Y198848D01*
X129567Y199265D01*
X128734D01*
Y198431D01*
X130400Y200098D02*
Y201764D01*
X127484Y204263D02*
Y202597D01*
X129983D01*
Y204263D01*
X128734Y202597D02*
Y203430D01*
X129983Y205096D02*
X127484D01*
X129983Y206762D01*
X127484D01*
X127901Y209261D02*
X127484Y208845D01*
Y208012D01*
X127901Y207595D01*
X129567D01*
X129983Y208012D01*
Y208845D01*
X129567Y209261D01*
X100401Y170600D02*
X102067D01*
X102900Y171433D01*
X102067Y172266D01*
X100401D01*
Y174349D02*
Y173516D01*
X100817Y173099D01*
X102483D01*
X102900Y173516D01*
Y174349D01*
X102483Y174765D01*
X100817D01*
X100401Y174349D01*
Y175598D02*
X102483D01*
X102900Y176015D01*
Y176848D01*
X102483Y177264D01*
X100401D01*
Y178098D02*
Y179764D01*
Y178931D01*
X102900D01*
X100401Y183100D02*
X102067D01*
X102900Y183933D01*
X102067Y184766D01*
X100401D01*
X102900Y185599D02*
X100401D01*
X101234Y186432D01*
X100401Y187265D01*
X102900D01*
X100817Y189764D02*
X100401Y189348D01*
Y188515D01*
X100817Y188098D01*
X102483D01*
X102900Y188515D01*
Y189348D01*
X102483Y189764D01*
X100401Y190598D02*
X102483D01*
X102900Y191014D01*
Y191847D01*
X102483Y192264D01*
X100401D01*
X102483Y195100D02*
X99984D01*
Y196350D01*
X100401Y196766D01*
X101234D01*
X101650Y196350D01*
Y195100D01*
Y195933D02*
X102483Y196766D01*
X102900Y197599D02*
Y199265D01*
X100401Y201764D02*
X99984Y201348D01*
Y200515D01*
X100401Y200098D01*
X100817D01*
X101234Y200515D01*
Y201348D01*
X101650Y201764D01*
X102067D01*
X102483Y201348D01*
Y200515D01*
X102067Y200098D01*
X99984Y204264D02*
Y202598D01*
X102483D01*
Y204264D01*
X101234Y202598D02*
Y203431D01*
X102483Y205097D02*
X99984D01*
X102483Y206763D01*
X99984D01*
X100401Y209262D02*
X99984Y208845D01*
Y208013D01*
X100401Y207596D01*
X100817D01*
X101234Y208013D01*
Y208845D01*
X101650Y209262D01*
X102067D01*
X102483Y208845D01*
Y208013D01*
X102067Y207596D01*
X99984Y211761D02*
Y210095D01*
X102483D01*
Y211761D01*
X101234Y210095D02*
Y210928D01*
X19901Y210600D02*
X21983D01*
X22400Y211017D01*
Y211850D01*
X21983Y212266D01*
X19901D01*
X20317Y214765D02*
X19901Y214349D01*
Y213516D01*
X20317Y213099D01*
X20734D01*
X21150Y213516D01*
Y214349D01*
X21567Y214765D01*
X21983D01*
X22400Y214349D01*
Y213516D01*
X21983Y213099D01*
X19901Y215598D02*
X22400D01*
Y216848D01*
X21983Y217265D01*
X21567D01*
X21150Y216848D01*
Y215598D01*
Y216848D01*
X20734Y217265D01*
X20317D01*
X19901Y216848D01*
Y215598D01*
X3817Y148266D02*
X3401Y147850D01*
Y147017D01*
X3817Y146600D01*
X4234D01*
X4650Y147017D01*
Y147850D01*
X5067Y148266D01*
X5483D01*
X5900Y147850D01*
Y147017D01*
X5483Y146600D01*
X3401Y150349D02*
Y149516D01*
X3817Y149099D01*
X5483D01*
X5900Y149516D01*
Y150349D01*
X5483Y150765D01*
X3817D01*
X3401Y150349D01*
Y151598D02*
X5900D01*
Y153264D01*
Y154098D02*
X4234D01*
X3401Y154931D01*
X4234Y155764D01*
X5900D01*
X4650D01*
Y154098D01*
X5900Y156597D02*
X3401D01*
Y157846D01*
X3817Y158263D01*
X4650D01*
X5067Y157846D01*
Y156597D01*
Y157430D02*
X5900Y158263D01*
X36253Y144987D02*
Y147986D01*
X37752D01*
X38252Y147486D01*
Y146486D01*
X37752Y145986D01*
X36253D01*
X39252Y144987D02*
Y147986D01*
X40251Y146986D01*
X41251Y147986D01*
Y144987D01*
X42251Y147986D02*
X43251D01*
X42751D01*
Y144987D01*
X42251D01*
X43251D01*
X46749Y147486D02*
X46249Y147986D01*
X45250D01*
X44750Y147486D01*
Y145486D01*
X45250Y144987D01*
X46249D01*
X46749Y145486D01*
X86484Y212600D02*
X88984D01*
Y213850D01*
X88567Y214266D01*
X88150D01*
X87734Y213850D01*
Y212600D01*
Y213850D01*
X87317Y214266D01*
X86901D01*
X86484Y213850D01*
Y212600D01*
X88984Y215099D02*
X87317D01*
X86484Y215932D01*
X87317Y216765D01*
X88984D01*
X87734D01*
Y215099D01*
X86484Y217598D02*
Y219265D01*
Y218431D01*
X88984D01*
X89400Y220098D02*
Y221764D01*
X86901Y224263D02*
X86484Y223846D01*
Y223013D01*
X86901Y222597D01*
X88567D01*
X88984Y223013D01*
Y223846D01*
X88567Y224263D01*
X86484Y226346D02*
Y225513D01*
X86901Y225096D01*
X88567D01*
X88984Y225513D01*
Y226346D01*
X88567Y226762D01*
X86901D01*
X86484Y226346D01*
X88984Y227595D02*
X86484D01*
X88984Y229261D01*
X86484D01*
X88984Y230094D02*
X86484D01*
X88984Y231761D01*
X86484D01*
X97401Y157100D02*
X99067D01*
X99900Y157933D01*
X99067Y158766D01*
X97401D01*
X99900Y159599D02*
X97401D01*
X98234Y160432D01*
X97401Y161265D01*
X99900D01*
X97817Y163765D02*
X97401Y163348D01*
Y162515D01*
X97817Y162098D01*
X99484D01*
X99900Y162515D01*
Y163348D01*
X99484Y163765D01*
X97401Y164598D02*
X99484D01*
X99900Y165014D01*
Y165847D01*
X99484Y166264D01*
X97401D01*
X80100Y160099D02*
Y158433D01*
X80933Y157600D01*
X81766Y158433D01*
Y160099D01*
X82599D02*
Y157600D01*
X83849D01*
X84265Y158017D01*
Y158433D01*
X83849Y158850D01*
X82599D01*
X83849D01*
X84265Y159266D01*
Y159683D01*
X83849Y160099D01*
X82599D01*
X85098Y157600D02*
Y159266D01*
X85931Y160099D01*
X86765Y159266D01*
Y157600D01*
Y158850D01*
X85098D01*
X87598Y160099D02*
X89264D01*
X88431D01*
Y157600D01*
X39901Y224100D02*
X42400D01*
Y225350D01*
X41984Y225766D01*
X41567D01*
X41150Y225350D01*
Y224100D01*
Y225350D01*
X40734Y225766D01*
X40317D01*
X39901Y225350D01*
Y224100D01*
X42400Y226599D02*
X40734D01*
X39901Y227432D01*
X40734Y228265D01*
X42400D01*
X41150D01*
Y226599D01*
X39901Y229098D02*
Y230765D01*
Y229931D01*
X42400D01*
X12100Y233099D02*
Y231016D01*
X12517Y230600D01*
X13350D01*
X13766Y231016D01*
Y233099D01*
X16265Y232683D02*
X15849Y233099D01*
X15016D01*
X14599Y232683D01*
Y232266D01*
X15016Y231850D01*
X15849D01*
X16265Y231433D01*
Y231016D01*
X15849Y230600D01*
X15016D01*
X14599Y231016D01*
X17098Y233099D02*
Y230600D01*
X18348D01*
X18765Y231016D01*
Y231433D01*
X18348Y231850D01*
X17098D01*
X18348D01*
X18765Y232266D01*
Y232683D01*
X18348Y233099D01*
X17098D01*
X34000Y95999D02*
X35000D01*
X34500D01*
Y93000D01*
X34000D01*
X35000D01*
X36499D02*
Y95999D01*
X37499Y94999D01*
X38498Y95999D01*
Y93000D01*
X39498Y95999D02*
Y93500D01*
X39998Y93000D01*
X40998D01*
X41498Y93500D01*
Y95999D01*
X3500Y67400D02*
Y70399D01*
X5000D01*
X5499Y69899D01*
Y68900D01*
X5000Y68400D01*
X3500D01*
X4500D02*
X5499Y67400D01*
X7999D02*
X6999D01*
X6499Y67900D01*
Y68900D01*
X6999Y69399D01*
X7999D01*
X8498Y68900D01*
Y68400D01*
X6499D01*
X9498Y67400D02*
X10998D01*
X11497Y67900D01*
X10998Y68400D01*
X9998D01*
X9498Y68900D01*
X9998Y69399D01*
X11497D01*
X13997Y67400D02*
X12997D01*
X12497Y67900D01*
Y68900D01*
X12997Y69399D01*
X13997D01*
X14496Y68900D01*
Y68400D01*
X12497D01*
X15996Y69899D02*
Y69399D01*
X15496D01*
X16496D01*
X15996D01*
Y67900D01*
X16496Y67400D01*
X102100Y218200D02*
X99101D01*
Y219700D01*
X99601Y220199D01*
X100601D01*
X101100Y219700D01*
Y218200D01*
X99101Y222698D02*
Y221699D01*
X99601Y221199D01*
X101600D01*
X102100Y221699D01*
Y222698D01*
X101600Y223198D01*
X99601D01*
X99101Y222698D01*
Y224198D02*
X102100D01*
X101100Y225198D01*
X102100Y226197D01*
X99101D01*
Y229196D02*
Y227197D01*
X102100D01*
Y229196D01*
X100601Y227197D02*
Y228197D01*
X102100Y230196D02*
X99101D01*
Y231696D01*
X99601Y232195D01*
X100601D01*
X101100Y231696D01*
Y230196D01*
Y231196D02*
X102100Y232195D01*
D11*
X167866Y51556D02*
G03*
X167866Y51556I-197J0D01*
G01*
X66753Y85231D02*
G03*
X66753Y85231I-197J0D01*
G01*
X69253Y71331D02*
G03*
X69253Y71331I-197J0D01*
G01*
X145141Y54369D02*
G03*
X145141Y54369I-197J0D01*
G01*
X42041Y218169D02*
G03*
X42041Y218169I-197J0D01*
G01*
X19528Y225244D02*
G03*
X19528Y225244I-197J0D01*
G01*
X80541Y147469D02*
G03*
X80541Y147469I-197J0D01*
G01*
X91941Y160169D02*
G03*
X91941Y160169I-197J0D01*
G01*
X131941Y199669D02*
G03*
X131941Y199669I-197J0D01*
G01*
X34558Y104069D02*
G03*
X34558Y104069I-197J0D01*
G01*
X168566Y123956D02*
G03*
X168566Y123956I-197J0D01*
G01*
D12*
X104250Y131200D02*
X205600D01*
X28894Y65500D02*
Y130600D01*
X1500Y65500D02*
X28894D01*
X28992Y89748D02*
X79000D01*
Y51804D02*
Y89748D01*
X104250Y231250D02*
Y235000D01*
X1500Y51804D02*
X79000Y51804D01*
Y89000D02*
Y131200D01*
X1500D02*
X104250D01*
Y231250D01*
X237931Y199890D02*
Y189894D01*
X242929Y194892D02*
X232932D01*
X237431Y142390D02*
Y132394D01*
X237398Y47755D02*
Y37758D01*
X237898Y105255D02*
Y95258D01*
X242896Y100257D02*
X232899D01*
X271398Y200200D02*
Y190203D01*
X276396Y195202D02*
X266399D01*
X270898Y142700D02*
Y132703D01*
Y47700D02*
Y37703D01*
X271398Y105200D02*
Y95203D01*
X276396Y100202D02*
X266399D01*
X304898Y200200D02*
Y190203D01*
X309896Y195202D02*
X299899D01*
X304398Y142700D02*
Y132703D01*
Y47755D02*
Y37758D01*
X304898Y105255D02*
Y95258D01*
X309896Y100257D02*
X299899D01*
X338398Y200200D02*
Y190203D01*
X343396Y195202D02*
X333399D01*
X337898Y142700D02*
Y132703D01*
Y47755D02*
Y37758D01*
X338398Y105255D02*
Y95258D01*
X343396Y100257D02*
X333399D01*
X372598Y200500D02*
Y190503D01*
X377596Y195502D02*
X367599D01*
X372098Y143000D02*
Y133003D01*
X371398Y47755D02*
Y37758D01*
X371898Y105255D02*
Y95258D01*
X376896Y100257D02*
X366899D01*
D13*
X171413Y57600D02*
X172200D01*
X171400Y65600D02*
X172187D01*
X296615Y297686D02*
Y298473D01*
X288615Y297673D02*
Y298460D01*
X141013Y219200D02*
X141800D01*
X141000Y227200D02*
X141787D01*
X170800Y105600D02*
Y106387D01*
X178800Y105613D02*
Y106400D01*
X252781Y119931D02*
Y212450D01*
X221285Y119931D02*
X252781D01*
X221285D02*
Y212450D01*
X252781D01*
X221252Y117815D02*
X252748D01*
X221252Y25295D02*
Y117815D01*
Y25295D02*
X252748D01*
Y117815D01*
X286248Y120240D02*
Y212760D01*
X254752Y120240D02*
X286248D01*
X254752D02*
Y212760D01*
X286248D01*
X254752Y117760D02*
X286248D01*
X254752Y25240D02*
Y117760D01*
Y25240D02*
X286248D01*
Y117760D01*
X319748Y120240D02*
Y212760D01*
X288252Y120240D02*
X319748D01*
X288252D02*
Y212760D01*
X319748D01*
X288252Y117815D02*
X319748D01*
X288252Y25295D02*
Y117815D01*
Y25295D02*
X319748D01*
Y117815D01*
X353248Y120240D02*
Y212760D01*
X321752Y120240D02*
X353248D01*
X321752D02*
Y212760D01*
X353248D01*
X321752Y117815D02*
X353248D01*
X321752Y25295D02*
Y117815D01*
Y25295D02*
X353248D01*
Y117815D01*
X387448Y120540D02*
Y213060D01*
X355952Y120540D02*
X387448D01*
X355952D02*
Y213060D01*
X387448D01*
X355252Y117815D02*
X386748D01*
X355252Y25295D02*
Y117815D01*
Y25295D02*
X386748D01*
Y117815D01*
D14*
X171409Y48800D02*
X172197D01*
X63800Y80703D02*
Y81490D01*
X66300Y66803D02*
Y67590D01*
X147700Y58109D02*
Y58897D01*
X44600Y221909D02*
Y222697D01*
X14803Y228000D02*
X15590D01*
X83100Y151209D02*
Y151997D01*
X94500Y163909D02*
Y164697D01*
X134500Y203410D02*
Y204197D01*
X31605Y99541D02*
Y100328D01*
X172109Y121200D02*
X172897D01*
D15*
X172591Y47225D02*
Y50375D01*
X171409Y48800D02*
X172591Y47225D01*
X171409Y48800D02*
X172591Y50375D01*
X63800Y81490D02*
X65375Y80309D01*
X62225D02*
X63800Y81490D01*
X62225Y80309D02*
X65375D01*
X64725Y66409D02*
X67875D01*
X64725D02*
X66300Y67590D01*
X67875Y66409D01*
X146125Y59291D02*
X147700Y58109D01*
X149275Y59291D01*
X146125D02*
X149275D01*
X43025Y223091D02*
X46175D01*
X44600Y221909D02*
X46175Y223091D01*
X43025D02*
X44600Y221909D01*
X14409Y226425D02*
X15590Y228000D01*
X14409Y229575D02*
X15590Y228000D01*
X14409Y226425D02*
Y229575D01*
X81525Y152391D02*
X84675D01*
X83100Y151209D02*
X84675Y152391D01*
X81525D02*
X83100Y151209D01*
X92925Y165091D02*
X94500Y163909D01*
X96075Y165091D01*
X92925D02*
X96075D01*
X132925Y204591D02*
X136075D01*
X134500Y203410D02*
X136075Y204591D01*
X132925D02*
X134500Y203410D01*
X31605Y100328D02*
X33180Y99147D01*
X30030D02*
X31605Y100328D01*
X30030Y99147D02*
X33180D01*
X173291Y119625D02*
Y122775D01*
X172109Y121200D02*
X173291Y119625D01*
X172109Y121200D02*
X173291Y122775D01*
D16*
X369200Y236000D02*
X390000D01*
X-0Y0D02*
X0Y236000D01*
X230300D01*
Y353500D01*
X369200Y353500D01*
X0Y0D02*
X197000D01*
X390000D01*
X390000D02*
X390000Y236000D01*
X369200D02*
Y353500D01*
M02*
