G04*
G04 #@! TF.GenerationSoftware,Altium Limited,Altium Designer,22.3.1 (43)*
G04*
G04 Layer_Physical_Order=1*
G04 Layer_Color=255*
%FSLAX25Y25*%
%MOIN*%
G70*
G04*
G04 #@! TF.SameCoordinates,D24DD32C-06ED-42A8-9E91-4A9B2BA8F1A5*
G04*
G04*
G04 #@! TF.FilePolarity,Positive*
G04*
G01*
G75*
%ADD10C,0.00600*%
%ADD11R,0.08465X0.09646*%
G04:AMPARAMS|DCode=12|XSize=84.65mil|YSize=96.46mil|CornerRadius=21.16mil|HoleSize=0mil|Usage=FLASHONLY|Rotation=180.000|XOffset=0mil|YOffset=0mil|HoleType=Round|Shape=RoundedRectangle|*
%AMROUNDEDRECTD12*
21,1,0.08465,0.05413,0,0,180.0*
21,1,0.04232,0.09646,0,0,180.0*
1,1,0.04232,-0.02116,0.02707*
1,1,0.04232,0.02116,0.02707*
1,1,0.04232,0.02116,-0.02707*
1,1,0.04232,-0.02116,-0.02707*
%
%ADD12ROUNDEDRECTD12*%
G04:AMPARAMS|DCode=13|XSize=35.43mil|YSize=35.43mil|CornerRadius=8.86mil|HoleSize=0mil|Usage=FLASHONLY|Rotation=90.000|XOffset=0mil|YOffset=0mil|HoleType=Round|Shape=RoundedRectangle|*
%AMROUNDEDRECTD13*
21,1,0.03543,0.01772,0,0,90.0*
21,1,0.01772,0.03543,0,0,90.0*
1,1,0.01772,0.00886,0.00886*
1,1,0.01772,0.00886,-0.00886*
1,1,0.01772,-0.00886,-0.00886*
1,1,0.01772,-0.00886,0.00886*
%
%ADD13ROUNDEDRECTD13*%
G04:AMPARAMS|DCode=14|XSize=35.43mil|YSize=35.43mil|CornerRadius=8.86mil|HoleSize=0mil|Usage=FLASHONLY|Rotation=180.000|XOffset=0mil|YOffset=0mil|HoleType=Round|Shape=RoundedRectangle|*
%AMROUNDEDRECTD14*
21,1,0.03543,0.01772,0,0,180.0*
21,1,0.01772,0.03543,0,0,180.0*
1,1,0.01772,-0.00886,0.00886*
1,1,0.01772,0.00886,0.00886*
1,1,0.01772,0.00886,-0.00886*
1,1,0.01772,-0.00886,-0.00886*
%
%ADD14ROUNDEDRECTD14*%
G04:AMPARAMS|DCode=15|XSize=90.55mil|YSize=62.99mil|CornerRadius=15.75mil|HoleSize=0mil|Usage=FLASHONLY|Rotation=90.000|XOffset=0mil|YOffset=0mil|HoleType=Round|Shape=RoundedRectangle|*
%AMROUNDEDRECTD15*
21,1,0.09055,0.03150,0,0,90.0*
21,1,0.05906,0.06299,0,0,90.0*
1,1,0.03150,0.01575,0.02953*
1,1,0.03150,0.01575,-0.02953*
1,1,0.03150,-0.01575,-0.02953*
1,1,0.03150,-0.01575,0.02953*
%
%ADD15ROUNDEDRECTD15*%
G04:AMPARAMS|DCode=16|XSize=78.74mil|YSize=49.21mil|CornerRadius=12.3mil|HoleSize=0mil|Usage=FLASHONLY|Rotation=180.000|XOffset=0mil|YOffset=0mil|HoleType=Round|Shape=RoundedRectangle|*
%AMROUNDEDRECTD16*
21,1,0.07874,0.02461,0,0,180.0*
21,1,0.05413,0.04921,0,0,180.0*
1,1,0.02461,-0.02707,0.01230*
1,1,0.02461,0.02707,0.01230*
1,1,0.02461,0.02707,-0.01230*
1,1,0.02461,-0.02707,-0.01230*
%
%ADD16ROUNDEDRECTD16*%
%ADD17R,0.07874X0.04921*%
G04:AMPARAMS|DCode=18|XSize=130mil|YSize=50mil|CornerRadius=12.5mil|HoleSize=0mil|Usage=FLASHONLY|Rotation=90.000|XOffset=0mil|YOffset=0mil|HoleType=Round|Shape=RoundedRectangle|*
%AMROUNDEDRECTD18*
21,1,0.13000,0.02500,0,0,90.0*
21,1,0.10500,0.05000,0,0,90.0*
1,1,0.02500,0.01250,0.05250*
1,1,0.02500,0.01250,-0.05250*
1,1,0.02500,-0.01250,-0.05250*
1,1,0.02500,-0.01250,0.05250*
%
%ADD18ROUNDEDRECTD18*%
%ADD19R,0.05000X0.13000*%
%ADD20R,0.00984X0.02067*%
%ADD21R,0.01673X0.00984*%
G04:AMPARAMS|DCode=22|XSize=59.06mil|YSize=61.02mil|CornerRadius=14.76mil|HoleSize=0mil|Usage=FLASHONLY|Rotation=270.000|XOffset=0mil|YOffset=0mil|HoleType=Round|Shape=RoundedRectangle|*
%AMROUNDEDRECTD22*
21,1,0.05906,0.03150,0,0,270.0*
21,1,0.02953,0.06102,0,0,270.0*
1,1,0.02953,-0.01575,-0.01476*
1,1,0.02953,-0.01575,0.01476*
1,1,0.02953,0.01575,0.01476*
1,1,0.02953,0.01575,-0.01476*
%
%ADD22ROUNDEDRECTD22*%
G04:AMPARAMS|DCode=23|XSize=15.75mil|YSize=53.15mil|CornerRadius=3.94mil|HoleSize=0mil|Usage=FLASHONLY|Rotation=270.000|XOffset=0mil|YOffset=0mil|HoleType=Round|Shape=RoundedRectangle|*
%AMROUNDEDRECTD23*
21,1,0.01575,0.04528,0,0,270.0*
21,1,0.00787,0.05315,0,0,270.0*
1,1,0.00787,-0.02264,-0.00394*
1,1,0.00787,-0.02264,0.00394*
1,1,0.00787,0.02264,0.00394*
1,1,0.00787,0.02264,-0.00394*
%
%ADD23ROUNDEDRECTD23*%
%ADD24R,0.05512X0.08268*%
G04:AMPARAMS|DCode=25|XSize=82.68mil|YSize=55.12mil|CornerRadius=13.78mil|HoleSize=0mil|Usage=FLASHONLY|Rotation=90.000|XOffset=0mil|YOffset=0mil|HoleType=Round|Shape=RoundedRectangle|*
%AMROUNDEDRECTD25*
21,1,0.08268,0.02756,0,0,90.0*
21,1,0.05512,0.05512,0,0,90.0*
1,1,0.02756,0.01378,0.02756*
1,1,0.02756,0.01378,-0.02756*
1,1,0.02756,-0.01378,-0.02756*
1,1,0.02756,-0.01378,0.02756*
%
%ADD25ROUNDEDRECTD25*%
G04:AMPARAMS|DCode=26|XSize=82.68mil|YSize=55.12mil|CornerRadius=13.78mil|HoleSize=0mil|Usage=FLASHONLY|Rotation=180.000|XOffset=0mil|YOffset=0mil|HoleType=Round|Shape=RoundedRectangle|*
%AMROUNDEDRECTD26*
21,1,0.08268,0.02756,0,0,180.0*
21,1,0.05512,0.05512,0,0,180.0*
1,1,0.02756,-0.02756,0.01378*
1,1,0.02756,0.02756,0.01378*
1,1,0.02756,0.02756,-0.01378*
1,1,0.02756,-0.02756,-0.01378*
%
%ADD26ROUNDEDRECTD26*%
%ADD27R,0.08268X0.05512*%
%ADD28R,0.04685X0.01575*%
G04:AMPARAMS|DCode=29|XSize=46.85mil|YSize=15.75mil|CornerRadius=1.97mil|HoleSize=0mil|Usage=FLASHONLY|Rotation=180.000|XOffset=0mil|YOffset=0mil|HoleType=Round|Shape=RoundedRectangle|*
%AMROUNDEDRECTD29*
21,1,0.04685,0.01181,0,0,180.0*
21,1,0.04291,0.01575,0,0,180.0*
1,1,0.00394,-0.02146,0.00591*
1,1,0.00394,0.02146,0.00591*
1,1,0.00394,0.02146,-0.00591*
1,1,0.00394,-0.02146,-0.00591*
%
%ADD29ROUNDEDRECTD29*%
G04:AMPARAMS|DCode=30|XSize=46.85mil|YSize=15.75mil|CornerRadius=1.97mil|HoleSize=0mil|Usage=FLASHONLY|Rotation=90.000|XOffset=0mil|YOffset=0mil|HoleType=Round|Shape=RoundedRectangle|*
%AMROUNDEDRECTD30*
21,1,0.04685,0.01181,0,0,90.0*
21,1,0.04291,0.01575,0,0,90.0*
1,1,0.00394,0.00591,0.02146*
1,1,0.00394,0.00591,-0.02146*
1,1,0.00394,-0.00591,-0.02146*
1,1,0.00394,-0.00591,0.02146*
%
%ADD30ROUNDEDRECTD30*%
%ADD31R,0.01575X0.04685*%
%ADD32R,0.02362X0.06102*%
G04:AMPARAMS|DCode=33|XSize=23.62mil|YSize=61.02mil|CornerRadius=5.91mil|HoleSize=0mil|Usage=FLASHONLY|Rotation=180.000|XOffset=0mil|YOffset=0mil|HoleType=Round|Shape=RoundedRectangle|*
%AMROUNDEDRECTD33*
21,1,0.02362,0.04921,0,0,180.0*
21,1,0.01181,0.06102,0,0,180.0*
1,1,0.01181,-0.00591,0.02461*
1,1,0.01181,0.00591,0.02461*
1,1,0.01181,0.00591,-0.02461*
1,1,0.01181,-0.00591,-0.02461*
%
%ADD33ROUNDEDRECTD33*%
G04:AMPARAMS|DCode=34|XSize=35.43mil|YSize=39.37mil|CornerRadius=8.86mil|HoleSize=0mil|Usage=FLASHONLY|Rotation=270.000|XOffset=0mil|YOffset=0mil|HoleType=Round|Shape=RoundedRectangle|*
%AMROUNDEDRECTD34*
21,1,0.03543,0.02165,0,0,270.0*
21,1,0.01772,0.03937,0,0,270.0*
1,1,0.01772,-0.01083,-0.00886*
1,1,0.01772,-0.01083,0.00886*
1,1,0.01772,0.01083,0.00886*
1,1,0.01772,0.01083,-0.00886*
%
%ADD34ROUNDEDRECTD34*%
%ADD35R,0.03937X0.03543*%
G04:AMPARAMS|DCode=36|XSize=25.59mil|YSize=15.75mil|CornerRadius=3.94mil|HoleSize=0mil|Usage=FLASHONLY|Rotation=0.000|XOffset=0mil|YOffset=0mil|HoleType=Round|Shape=RoundedRectangle|*
%AMROUNDEDRECTD36*
21,1,0.02559,0.00787,0,0,0.0*
21,1,0.01772,0.01575,0,0,0.0*
1,1,0.00787,0.00886,-0.00394*
1,1,0.00787,-0.00886,-0.00394*
1,1,0.00787,-0.00886,0.00394*
1,1,0.00787,0.00886,0.00394*
%
%ADD36ROUNDEDRECTD36*%
%ADD37R,0.02559X0.01575*%
%ADD38R,0.01575X0.02559*%
G04:AMPARAMS|DCode=39|XSize=25.59mil|YSize=15.75mil|CornerRadius=3.94mil|HoleSize=0mil|Usage=FLASHONLY|Rotation=270.000|XOffset=0mil|YOffset=0mil|HoleType=Round|Shape=RoundedRectangle|*
%AMROUNDEDRECTD39*
21,1,0.02559,0.00787,0,0,270.0*
21,1,0.01772,0.01575,0,0,270.0*
1,1,0.00787,-0.00394,-0.00886*
1,1,0.00787,-0.00394,0.00886*
1,1,0.00787,0.00394,0.00886*
1,1,0.00787,0.00394,-0.00886*
%
%ADD39ROUNDEDRECTD39*%
G04:AMPARAMS|DCode=40|XSize=55.12mil|YSize=43.31mil|CornerRadius=10.83mil|HoleSize=0mil|Usage=FLASHONLY|Rotation=270.000|XOffset=0mil|YOffset=0mil|HoleType=Round|Shape=RoundedRectangle|*
%AMROUNDEDRECTD40*
21,1,0.05512,0.02165,0,0,270.0*
21,1,0.03347,0.04331,0,0,270.0*
1,1,0.02165,-0.01083,-0.01673*
1,1,0.02165,-0.01083,0.01673*
1,1,0.02165,0.01083,0.01673*
1,1,0.02165,0.01083,-0.01673*
%
%ADD40ROUNDEDRECTD40*%
%ADD41R,0.04331X0.05512*%
%ADD42R,0.03150X0.03150*%
G04:AMPARAMS|DCode=43|XSize=31.5mil|YSize=31.5mil|CornerRadius=7.87mil|HoleSize=0mil|Usage=FLASHONLY|Rotation=90.000|XOffset=0mil|YOffset=0mil|HoleType=Round|Shape=RoundedRectangle|*
%AMROUNDEDRECTD43*
21,1,0.03150,0.01575,0,0,90.0*
21,1,0.01575,0.03150,0,0,90.0*
1,1,0.01575,0.00787,0.00787*
1,1,0.01575,0.00787,-0.00787*
1,1,0.01575,-0.00787,-0.00787*
1,1,0.01575,-0.00787,0.00787*
%
%ADD43ROUNDEDRECTD43*%
G04:AMPARAMS|DCode=44|XSize=31.5mil|YSize=31.5mil|CornerRadius=7.87mil|HoleSize=0mil|Usage=FLASHONLY|Rotation=0.000|XOffset=0mil|YOffset=0mil|HoleType=Round|Shape=RoundedRectangle|*
%AMROUNDEDRECTD44*
21,1,0.03150,0.01575,0,0,0.0*
21,1,0.01575,0.03150,0,0,0.0*
1,1,0.01575,0.00787,-0.00787*
1,1,0.01575,-0.00787,-0.00787*
1,1,0.01575,-0.00787,0.00787*
1,1,0.01575,0.00787,0.00787*
%
%ADD44ROUNDEDRECTD44*%
%ADD45R,0.03150X0.03150*%
%ADD46R,0.29134X0.07874*%
G04:AMPARAMS|DCode=47|XSize=38.58mil|YSize=40.55mil|CornerRadius=9.65mil|HoleSize=0mil|Usage=FLASHONLY|Rotation=270.000|XOffset=0mil|YOffset=0mil|HoleType=Round|Shape=RoundedRectangle|*
%AMROUNDEDRECTD47*
21,1,0.03858,0.02126,0,0,270.0*
21,1,0.01929,0.04055,0,0,270.0*
1,1,0.01929,-0.01063,-0.00965*
1,1,0.01929,-0.01063,0.00965*
1,1,0.01929,0.01063,0.00965*
1,1,0.01929,0.01063,-0.00965*
%
%ADD47ROUNDEDRECTD47*%
G04:AMPARAMS|DCode=48|XSize=110.24mil|YSize=68.9mil|CornerRadius=17.22mil|HoleSize=0mil|Usage=FLASHONLY|Rotation=180.000|XOffset=0mil|YOffset=0mil|HoleType=Round|Shape=RoundedRectangle|*
%AMROUNDEDRECTD48*
21,1,0.11024,0.03445,0,0,180.0*
21,1,0.07579,0.06890,0,0,180.0*
1,1,0.03445,-0.03789,0.01722*
1,1,0.03445,0.03789,0.01722*
1,1,0.03445,0.03789,-0.01722*
1,1,0.03445,-0.03789,-0.01722*
%
%ADD48ROUNDEDRECTD48*%
G04:AMPARAMS|DCode=49|XSize=110.24mil|YSize=68.9mil|CornerRadius=17.22mil|HoleSize=0mil|Usage=FLASHONLY|Rotation=90.000|XOffset=0mil|YOffset=0mil|HoleType=Round|Shape=RoundedRectangle|*
%AMROUNDEDRECTD49*
21,1,0.11024,0.03445,0,0,90.0*
21,1,0.07579,0.06890,0,0,90.0*
1,1,0.03445,0.01722,0.03789*
1,1,0.03445,0.01722,-0.03789*
1,1,0.03445,-0.01722,-0.03789*
1,1,0.03445,-0.01722,0.03789*
%
%ADD49ROUNDEDRECTD49*%
G04:AMPARAMS|DCode=50|XSize=55.12mil|YSize=42mil|CornerRadius=10.5mil|HoleSize=0mil|Usage=FLASHONLY|Rotation=90.000|XOffset=0mil|YOffset=0mil|HoleType=Round|Shape=RoundedRectangle|*
%AMROUNDEDRECTD50*
21,1,0.05512,0.02100,0,0,90.0*
21,1,0.03412,0.04200,0,0,90.0*
1,1,0.02100,0.01050,0.01706*
1,1,0.02100,0.01050,-0.01706*
1,1,0.02100,-0.01050,-0.01706*
1,1,0.02100,-0.01050,0.01706*
%
%ADD50ROUNDEDRECTD50*%
G04:AMPARAMS|DCode=51|XSize=55.12mil|YSize=42mil|CornerRadius=10.5mil|HoleSize=0mil|Usage=FLASHONLY|Rotation=180.000|XOffset=0mil|YOffset=0mil|HoleType=Round|Shape=RoundedRectangle|*
%AMROUNDEDRECTD51*
21,1,0.05512,0.02100,0,0,180.0*
21,1,0.03412,0.04200,0,0,180.0*
1,1,0.02100,-0.01706,0.01050*
1,1,0.02100,0.01706,0.01050*
1,1,0.02100,0.01706,-0.01050*
1,1,0.02100,-0.01706,-0.01050*
%
%ADD51ROUNDEDRECTD51*%
%ADD52R,0.04000X0.17000*%
G04:AMPARAMS|DCode=53|XSize=40mil|YSize=170mil|CornerRadius=10mil|HoleSize=0mil|Usage=FLASHONLY|Rotation=0.000|XOffset=0mil|YOffset=0mil|HoleType=Round|Shape=RoundedRectangle|*
%AMROUNDEDRECTD53*
21,1,0.04000,0.15000,0,0,0.0*
21,1,0.02000,0.17000,0,0,0.0*
1,1,0.02000,0.01000,-0.07500*
1,1,0.02000,-0.01000,-0.07500*
1,1,0.02000,-0.01000,0.07500*
1,1,0.02000,0.01000,0.07500*
%
%ADD53ROUNDEDRECTD53*%
G04:AMPARAMS|DCode=54|XSize=47.24mil|YSize=39.37mil|CornerRadius=9.84mil|HoleSize=0mil|Usage=FLASHONLY|Rotation=0.000|XOffset=0mil|YOffset=0mil|HoleType=Round|Shape=RoundedRectangle|*
%AMROUNDEDRECTD54*
21,1,0.04724,0.01968,0,0,0.0*
21,1,0.02756,0.03937,0,0,0.0*
1,1,0.01968,0.01378,-0.00984*
1,1,0.01968,-0.01378,-0.00984*
1,1,0.01968,-0.01378,0.00984*
1,1,0.01968,0.01378,0.00984*
%
%ADD54ROUNDEDRECTD54*%
G04:AMPARAMS|DCode=55|XSize=47.24mil|YSize=39.37mil|CornerRadius=9.84mil|HoleSize=0mil|Usage=FLASHONLY|Rotation=270.000|XOffset=0mil|YOffset=0mil|HoleType=Round|Shape=RoundedRectangle|*
%AMROUNDEDRECTD55*
21,1,0.04724,0.01968,0,0,270.0*
21,1,0.02756,0.03937,0,0,270.0*
1,1,0.01968,-0.00984,-0.01378*
1,1,0.01968,-0.00984,0.01378*
1,1,0.01968,0.00984,0.01378*
1,1,0.01968,0.00984,-0.01378*
%
%ADD55ROUNDEDRECTD55*%
G04:AMPARAMS|DCode=56|XSize=17.72mil|YSize=55.12mil|CornerRadius=4.43mil|HoleSize=0mil|Usage=FLASHONLY|Rotation=180.000|XOffset=0mil|YOffset=0mil|HoleType=Round|Shape=RoundedRectangle|*
%AMROUNDEDRECTD56*
21,1,0.01772,0.04626,0,0,180.0*
21,1,0.00886,0.05512,0,0,180.0*
1,1,0.00886,-0.00443,0.02313*
1,1,0.00886,0.00443,0.02313*
1,1,0.00886,0.00443,-0.02313*
1,1,0.00886,-0.00443,-0.02313*
%
%ADD56ROUNDEDRECTD56*%
%ADD57R,0.01772X0.05512*%
G04:AMPARAMS|DCode=58|XSize=35.04mil|YSize=10.24mil|CornerRadius=1.28mil|HoleSize=0mil|Usage=FLASHONLY|Rotation=0.000|XOffset=0mil|YOffset=0mil|HoleType=Round|Shape=RoundedRectangle|*
%AMROUNDEDRECTD58*
21,1,0.03504,0.00768,0,0,0.0*
21,1,0.03248,0.01024,0,0,0.0*
1,1,0.00256,0.01624,-0.00384*
1,1,0.00256,-0.01624,-0.00384*
1,1,0.00256,-0.01624,0.00384*
1,1,0.00256,0.01624,0.00384*
%
%ADD58ROUNDEDRECTD58*%
%ADD59R,0.03504X0.01024*%
G04:AMPARAMS|DCode=60|XSize=35.04mil|YSize=10.24mil|CornerRadius=1.28mil|HoleSize=0mil|Usage=FLASHONLY|Rotation=90.000|XOffset=0mil|YOffset=0mil|HoleType=Round|Shape=RoundedRectangle|*
%AMROUNDEDRECTD60*
21,1,0.03504,0.00768,0,0,90.0*
21,1,0.03248,0.01024,0,0,90.0*
1,1,0.00256,0.00384,0.01624*
1,1,0.00256,0.00384,-0.01624*
1,1,0.00256,-0.00384,-0.01624*
1,1,0.00256,-0.00384,0.01624*
%
%ADD60ROUNDEDRECTD60*%
%ADD61R,0.08071X0.08071*%
%ADD62R,0.03386X0.01024*%
G04:AMPARAMS|DCode=63|XSize=10.24mil|YSize=33.86mil|CornerRadius=2.56mil|HoleSize=0mil|Usage=FLASHONLY|Rotation=0.000|XOffset=0mil|YOffset=0mil|HoleType=Round|Shape=RoundedRectangle|*
%AMROUNDEDRECTD63*
21,1,0.01024,0.02874,0,0,0.0*
21,1,0.00512,0.03386,0,0,0.0*
1,1,0.00512,0.00256,-0.01437*
1,1,0.00512,-0.00256,-0.01437*
1,1,0.00512,-0.00256,0.01437*
1,1,0.00512,0.00256,0.01437*
%
%ADD63ROUNDEDRECTD63*%
G04:AMPARAMS|DCode=64|XSize=10.24mil|YSize=33.86mil|CornerRadius=2.56mil|HoleSize=0mil|Usage=FLASHONLY|Rotation=90.000|XOffset=0mil|YOffset=0mil|HoleType=Round|Shape=RoundedRectangle|*
%AMROUNDEDRECTD64*
21,1,0.01024,0.02874,0,0,90.0*
21,1,0.00512,0.03386,0,0,90.0*
1,1,0.00512,0.01437,0.00256*
1,1,0.00512,0.01437,-0.00256*
1,1,0.00512,-0.01437,-0.00256*
1,1,0.00512,-0.01437,0.00256*
%
%ADD64ROUNDEDRECTD64*%
%ADD65R,0.18504X0.18504*%
G04:AMPARAMS|DCode=66|XSize=29.92mil|YSize=94.49mil|CornerRadius=7.48mil|HoleSize=0mil|Usage=FLASHONLY|Rotation=270.000|XOffset=0mil|YOffset=0mil|HoleType=Round|Shape=RoundedRectangle|*
%AMROUNDEDRECTD66*
21,1,0.02992,0.07953,0,0,270.0*
21,1,0.01496,0.09449,0,0,270.0*
1,1,0.01496,-0.03976,-0.00748*
1,1,0.01496,-0.03976,0.00748*
1,1,0.01496,0.03976,0.00748*
1,1,0.01496,0.03976,-0.00748*
%
%ADD66ROUNDEDRECTD66*%
%ADD67R,0.09449X0.02992*%
%ADD68R,0.04000X0.33100*%
%ADD69R,0.78200X0.03900*%
G04:AMPARAMS|DCode=70|XSize=24.41mil|YSize=25.98mil|CornerRadius=6.1mil|HoleSize=0mil|Usage=FLASHONLY|Rotation=180.000|XOffset=0mil|YOffset=0mil|HoleType=Round|Shape=RoundedRectangle|*
%AMROUNDEDRECTD70*
21,1,0.02441,0.01378,0,0,180.0*
21,1,0.01221,0.02598,0,0,180.0*
1,1,0.01221,-0.00610,0.00689*
1,1,0.01221,0.00610,0.00689*
1,1,0.01221,0.00610,-0.00689*
1,1,0.01221,-0.00610,-0.00689*
%
%ADD70ROUNDEDRECTD70*%
G04:AMPARAMS|DCode=71|XSize=24.41mil|YSize=25.98mil|CornerRadius=6.1mil|HoleSize=0mil|Usage=FLASHONLY|Rotation=90.000|XOffset=0mil|YOffset=0mil|HoleType=Round|Shape=RoundedRectangle|*
%AMROUNDEDRECTD71*
21,1,0.02441,0.01378,0,0,90.0*
21,1,0.01221,0.02598,0,0,90.0*
1,1,0.01221,0.00689,0.00610*
1,1,0.01221,0.00689,-0.00610*
1,1,0.01221,-0.00689,-0.00610*
1,1,0.01221,-0.00689,0.00610*
%
%ADD71ROUNDEDRECTD71*%
G04:AMPARAMS|DCode=72|XSize=24.41mil|YSize=24.5mil|CornerRadius=6.1mil|HoleSize=0mil|Usage=FLASHONLY|Rotation=270.000|XOffset=0mil|YOffset=0mil|HoleType=Round|Shape=RoundedRectangle|*
%AMROUNDEDRECTD72*
21,1,0.02441,0.01230,0,0,270.0*
21,1,0.01221,0.02450,0,0,270.0*
1,1,0.01221,-0.00615,-0.00610*
1,1,0.01221,-0.00615,0.00610*
1,1,0.01221,0.00615,0.00610*
1,1,0.01221,0.00615,-0.00610*
%
%ADD72ROUNDEDRECTD72*%
%ADD73C,0.02000*%
%ADD74C,0.01000*%
%ADD75C,0.01500*%
%ADD76C,0.02500*%
%ADD77C,0.03900*%
%ADD78C,0.02441*%
%ADD79C,0.05000*%
%ADD80C,0.02450*%
%ADD81C,0.04000*%
%ADD82C,0.06000*%
G04:AMPARAMS|DCode=83|XSize=60mil|YSize=60mil|CornerRadius=15mil|HoleSize=0mil|Usage=FLASHONLY|Rotation=270.000|XOffset=0mil|YOffset=0mil|HoleType=Round|Shape=RoundedRectangle|*
%AMROUNDEDRECTD83*
21,1,0.06000,0.03000,0,0,270.0*
21,1,0.03000,0.06000,0,0,270.0*
1,1,0.03000,-0.01500,-0.01500*
1,1,0.03000,-0.01500,0.01500*
1,1,0.03000,0.01500,0.01500*
1,1,0.03000,0.01500,-0.01500*
%
%ADD83ROUNDEDRECTD83*%
G04:AMPARAMS|DCode=84|XSize=60mil|YSize=60mil|CornerRadius=15mil|HoleSize=0mil|Usage=FLASHONLY|Rotation=180.000|XOffset=0mil|YOffset=0mil|HoleType=Round|Shape=RoundedRectangle|*
%AMROUNDEDRECTD84*
21,1,0.06000,0.03000,0,0,180.0*
21,1,0.03000,0.06000,0,0,180.0*
1,1,0.03000,-0.01500,0.01500*
1,1,0.03000,0.01500,0.01500*
1,1,0.03000,0.01500,-0.01500*
1,1,0.03000,-0.01500,-0.01500*
%
%ADD84ROUNDEDRECTD84*%
%ADD85C,0.06496*%
G04:AMPARAMS|DCode=86|XSize=64.96mil|YSize=64.96mil|CornerRadius=16.24mil|HoleSize=0mil|Usage=FLASHONLY|Rotation=90.000|XOffset=0mil|YOffset=0mil|HoleType=Round|Shape=RoundedRectangle|*
%AMROUNDEDRECTD86*
21,1,0.06496,0.03248,0,0,90.0*
21,1,0.03248,0.06496,0,0,90.0*
1,1,0.03248,0.01624,0.01624*
1,1,0.03248,0.01624,-0.01624*
1,1,0.03248,-0.01624,-0.01624*
1,1,0.03248,-0.01624,0.01624*
%
%ADD86ROUNDEDRECTD86*%
G04:AMPARAMS|DCode=87|XSize=64.96mil|YSize=64.96mil|CornerRadius=16.24mil|HoleSize=0mil|Usage=FLASHONLY|Rotation=0.000|XOffset=0mil|YOffset=0mil|HoleType=Round|Shape=RoundedRectangle|*
%AMROUNDEDRECTD87*
21,1,0.06496,0.03248,0,0,0.0*
21,1,0.03248,0.06496,0,0,0.0*
1,1,0.03248,0.01624,-0.01624*
1,1,0.03248,-0.01624,-0.01624*
1,1,0.03248,-0.01624,0.01624*
1,1,0.03248,0.01624,0.01624*
%
%ADD87ROUNDEDRECTD87*%
%ADD88O,0.06102X0.03200*%
%ADD89O,0.03200X0.05118*%
%ADD90C,0.07874*%
%ADD91C,0.18000*%
%ADD92C,0.10236*%
%ADD93C,0.02200*%
%ADD94C,0.02400*%
%ADD95C,0.05000*%
G36*
X135303Y222807D02*
X135332Y222767D01*
X135380Y222710D01*
X135759Y222307D01*
X136238Y221823D01*
X135177Y220762D01*
X134170Y221708D01*
X135292Y222830D01*
X135303Y222807D01*
D02*
G37*
G36*
X71870Y206708D02*
X72182Y206449D01*
X72337Y206341D01*
X72490Y206248D01*
X72643Y206169D01*
X72795Y206104D01*
X72946Y206053D01*
X73096Y206017D01*
X73245Y205995D01*
X72152Y204901D01*
X72130Y205050D01*
X72093Y205201D01*
X72043Y205351D01*
X71978Y205503D01*
X71899Y205656D01*
X71805Y205810D01*
X71697Y205965D01*
X71575Y206120D01*
X71288Y206435D01*
X71712Y206859D01*
X71870Y206708D01*
D02*
G37*
G36*
X47120Y201197D02*
X46965Y201173D01*
X46813Y201138D01*
X46664Y201093D01*
X46519Y201037D01*
X46376Y200970D01*
X46237Y200893D01*
X46101Y200805D01*
X45968Y200706D01*
X45839Y200597D01*
X45712Y200478D01*
X45288Y200902D01*
X45408Y201028D01*
X45517Y201158D01*
X45615Y201291D01*
X45703Y201427D01*
X45780Y201566D01*
X45847Y201709D01*
X45903Y201854D01*
X45948Y202003D01*
X45983Y202154D01*
X46007Y202309D01*
X47120Y201197D01*
D02*
G37*
G36*
X129500Y187733D02*
X128900Y186833D01*
X128894Y186947D01*
X128876Y187049D01*
X128846Y187139D01*
X128804Y187217D01*
X128750Y187283D01*
X128684Y187337D01*
X128606Y187379D01*
X128516Y187409D01*
X128414Y187427D01*
X128300Y187433D01*
Y188033D01*
X128414Y188039D01*
X128516Y188057D01*
X128606Y188087D01*
X128684Y188129D01*
X128750Y188183D01*
X128804Y188249D01*
X128846Y188327D01*
X128876Y188417D01*
X128894Y188519D01*
X128900Y188633D01*
X129500Y187733D01*
D02*
G37*
G36*
X102750Y187850D02*
X100750Y184850D01*
X100730Y185230D01*
X100670Y185570D01*
X100570Y185870D01*
X100430Y186130D01*
X100250Y186350D01*
X100030Y186530D01*
X99770Y186670D01*
X99470Y186770D01*
X99130Y186830D01*
X98750Y186850D01*
Y188850D01*
X99130Y188870D01*
X99470Y188930D01*
X99770Y189030D01*
X100030Y189170D01*
X100250Y189350D01*
X100430Y189570D01*
X100570Y189830D01*
X100670Y190130D01*
X100730Y190470D01*
X100750Y190850D01*
X102750Y187850D01*
D02*
G37*
G36*
X101914Y168650D02*
X101646Y168361D01*
X101405Y168061D01*
X101193Y167748D01*
X101009Y167424D01*
X100854Y167089D01*
X100726Y166742D01*
X100627Y166383D01*
X100557Y166012D01*
X100514Y165629D01*
X100500Y165235D01*
X98500Y164650D01*
X98480Y165030D01*
X98420Y165370D01*
X98320Y165670D01*
X98180Y165930D01*
X98000Y166150D01*
X97780Y166330D01*
X97520Y166470D01*
X97220Y166570D01*
X96880Y166630D01*
X96500Y166650D01*
X97086Y168650D01*
X97480Y168664D01*
X97862Y168706D01*
X98233Y168777D01*
X98592Y168876D01*
X98939Y169003D01*
X99275Y169159D01*
X99599Y169343D01*
X99911Y169555D01*
X100211Y169795D01*
X100500Y170064D01*
X101914Y168650D01*
D02*
G37*
G36*
X43204Y166346D02*
X43168Y166251D01*
X43136Y166121D01*
X43108Y165956D01*
X43066Y165523D01*
X43040Y164952D01*
X43031Y164242D01*
X42031D01*
X42029Y164614D01*
X41927Y166121D01*
X41895Y166251D01*
X41859Y166346D01*
X41818Y166407D01*
X43245D01*
X43204Y166346D01*
D02*
G37*
G36*
X40051Y165778D02*
X40179Y165905D01*
X40947D01*
X41030Y162729D01*
X40674Y162375D01*
X40198Y162396D01*
Y162549D01*
X37896D01*
X37846Y162559D01*
X37797Y162549D01*
X35495D01*
Y162514D01*
X35375Y162396D01*
X33062Y160197D01*
X32966Y160134D01*
X32429Y159596D01*
X31134Y158366D01*
X28159Y158276D01*
X27800Y158624D01*
Y170994D01*
X34835D01*
X40051Y165778D01*
D02*
G37*
G36*
X62738Y160772D02*
X53828D01*
X53600Y161000D01*
Y162530D01*
X52946D01*
X52778Y162563D01*
X49529D01*
X49361Y162530D01*
X47925D01*
Y165831D01*
X47963Y165868D01*
X51668D01*
X55628Y169828D01*
X62738D01*
Y160772D01*
D02*
G37*
G36*
X47516Y154388D02*
X47414Y154285D01*
X47021Y153834D01*
X46992Y153787D01*
X46974Y153748D01*
X46966Y153717D01*
X46421Y154262D01*
X46452Y154270D01*
X46491Y154288D01*
X46538Y154317D01*
X46593Y154356D01*
X46727Y154466D01*
X46893Y154618D01*
X47092Y154812D01*
X47516Y154388D01*
D02*
G37*
G36*
X88117Y183200D02*
X99500D01*
Y172200D01*
X87850D01*
X78935Y163285D01*
Y147911D01*
X78430Y147406D01*
Y146693D01*
X77717D01*
X77212Y146188D01*
X73115Y146433D01*
X72045Y147746D01*
Y153717D01*
X69352Y156354D01*
X67462Y158283D01*
X67462Y169828D01*
X74745D01*
X81546Y176629D01*
Y184700D01*
X85974Y185343D01*
X88117Y183200D01*
D02*
G37*
G36*
X100500Y142900D02*
X98500Y139900D01*
X98480Y140280D01*
X98420Y140620D01*
X98320Y140920D01*
X98180Y141180D01*
X98000Y141400D01*
X97780Y141580D01*
X97520Y141720D01*
X97220Y141820D01*
X96880Y141880D01*
X96500Y141900D01*
Y143900D01*
X96880Y143920D01*
X97220Y143980D01*
X97520Y144080D01*
X97780Y144220D01*
X98000Y144400D01*
X98180Y144620D01*
X98320Y144880D01*
X98420Y145180D01*
X98480Y145520D01*
X98500Y145900D01*
X100500Y142900D01*
D02*
G37*
G36*
X128295Y131400D02*
X127915Y131380D01*
X127575Y131320D01*
X127275Y131220D01*
X127015Y131080D01*
X126795Y130900D01*
X126615Y130680D01*
X126475Y130420D01*
X126375Y130120D01*
X126315Y129780D01*
X126295Y129400D01*
X124295D01*
X124275Y129780D01*
X124215Y130120D01*
X124115Y130420D01*
X123975Y130680D01*
X123795Y130900D01*
X123575Y131080D01*
X123315Y131220D01*
X123015Y131320D01*
X122675Y131380D01*
X122295Y131400D01*
X125295Y133400D01*
X128295Y131400D01*
D02*
G37*
G36*
X21897Y129733D02*
X22410Y129700D01*
X22524Y129700D01*
Y129100D01*
X22406Y129096D01*
X22291Y129083D01*
X22180Y129062D01*
X22072Y129032D01*
X21968Y128994D01*
X21868Y128947D01*
X21770Y128892D01*
X21677Y128829D01*
X21587Y128756D01*
X21500Y128676D01*
X21800Y129400D01*
X21884Y129741D01*
X21897Y129733D01*
D02*
G37*
G36*
X137850Y128383D02*
X137470Y128363D01*
X137130Y128303D01*
X136830Y128203D01*
X136570Y128063D01*
X136350Y127883D01*
X136170Y127663D01*
X136030Y127403D01*
X135930Y127103D01*
X135870Y126763D01*
X135850Y126383D01*
X133850D01*
X133830Y126763D01*
X133770Y127103D01*
X133670Y127403D01*
X133530Y127663D01*
X133350Y127883D01*
X133130Y128063D01*
X132870Y128203D01*
X132570Y128303D01*
X132230Y128363D01*
X131850Y128383D01*
X134850Y130383D01*
X137850Y128383D01*
D02*
G37*
G36*
X80579Y127463D02*
X80469Y127443D01*
X80370Y127383D01*
X80284Y127283D01*
X80208Y127143D01*
X80145Y126963D01*
X80093Y126743D01*
X80052Y126483D01*
X80006Y125843D01*
X80000Y125463D01*
X78000D01*
X77980Y125843D01*
X77920Y126183D01*
X77820Y126483D01*
X77680Y126743D01*
X77500Y126963D01*
X77280Y127143D01*
X77020Y127283D01*
X76720Y127383D01*
X76380Y127443D01*
X76000Y127463D01*
X79000Y129463D01*
X80579Y127463D01*
D02*
G37*
G36*
X112831Y124109D02*
X112737Y124094D01*
X112647Y124074D01*
X112560Y124049D01*
X112477Y124020D01*
X112397Y123986D01*
X112321Y123948D01*
X112249Y123905D01*
X112180Y123856D01*
X112115Y123804D01*
X112054Y123747D01*
X111346Y124453D01*
X111404Y124515D01*
X111457Y124580D01*
X111504Y124649D01*
X111548Y124721D01*
X111586Y124797D01*
X111620Y124877D01*
X111649Y124960D01*
X111674Y125047D01*
X111694Y125137D01*
X111709Y125231D01*
X112831Y124109D01*
D02*
G37*
G36*
X6872Y122656D02*
X6803Y122531D01*
X6742Y122378D01*
X6689Y122197D01*
X6644Y121986D01*
X6607Y121747D01*
X6558Y121183D01*
X6542Y120505D01*
X5942D01*
X5938Y120858D01*
X5877Y121747D01*
X5840Y121986D01*
X5795Y122197D01*
X5742Y122378D01*
X5681Y122531D01*
X5612Y122656D01*
X5535Y122752D01*
X6950D01*
X6872Y122656D01*
D02*
G37*
G36*
X153100Y131400D02*
X152720Y131380D01*
X152380Y131320D01*
X152080Y131220D01*
X151820Y131080D01*
X151600Y130900D01*
X151420Y130680D01*
X151280Y130420D01*
X151180Y130120D01*
X151120Y129780D01*
X151100Y129400D01*
Y128900D01*
X156694Y123305D01*
X158241Y123305D01*
X158855Y123305D01*
X160895D01*
X162346Y121854D01*
Y119643D01*
X160703Y118000D01*
X145863D01*
Y122987D01*
Y125978D01*
X149100Y128815D01*
Y129400D01*
X149080Y129780D01*
X149020Y130120D01*
X148920Y130420D01*
X148780Y130680D01*
X148600Y130900D01*
X148380Y131080D01*
X148120Y131220D01*
X147820Y131320D01*
X147480Y131380D01*
X147100Y131400D01*
X150100Y133400D01*
X153100Y131400D01*
D02*
G37*
G36*
X6546Y116469D02*
X6607Y115580D01*
X6644Y115341D01*
X6689Y115130D01*
X6742Y114948D01*
X6803Y114795D01*
X6872Y114671D01*
X6950Y114575D01*
X5535D01*
X5612Y114671D01*
X5681Y114795D01*
X5742Y114948D01*
X5795Y115130D01*
X5840Y115341D01*
X5877Y115580D01*
X5926Y116144D01*
X5942Y116822D01*
X6542D01*
X6546Y116469D01*
D02*
G37*
G36*
X41666Y116365D02*
X41622Y116267D01*
X41583Y116143D01*
X41550Y115994D01*
X41522Y115820D01*
X41480Y115395D01*
X41460Y114869D01*
X41457Y114567D01*
X40457D01*
X40455Y114869D01*
X40393Y115820D01*
X40364Y115994D01*
X40331Y116143D01*
X40292Y116267D01*
X40248Y116365D01*
X40199Y116437D01*
X41715D01*
X41666Y116365D01*
D02*
G37*
G36*
X6914Y113024D02*
X6844Y112900D01*
X6783Y112747D01*
X6730Y112565D01*
X6685Y112354D01*
X6649Y112115D01*
X6600Y111551D01*
X6583Y110873D01*
X5984D01*
X5979Y111226D01*
X5918Y112115D01*
X5882Y112354D01*
X5837Y112565D01*
X5784Y112747D01*
X5723Y112900D01*
X5653Y113024D01*
X5576Y113120D01*
X6991D01*
X6914Y113024D01*
D02*
G37*
G36*
X106467Y109251D02*
X106654Y109099D01*
X106681Y109083D01*
X106703Y109071D01*
X106723Y109064D01*
X106738Y109062D01*
Y108062D01*
X106723Y108059D01*
X106703Y108052D01*
X106681Y108041D01*
X106654Y108024D01*
X106624Y108003D01*
X106553Y107948D01*
X106418Y107828D01*
Y109295D01*
X106467Y109251D01*
D02*
G37*
G36*
X180306Y117786D02*
Y114214D01*
X179973Y113882D01*
X179321Y113476D01*
X178187Y112343D01*
Y107658D01*
X176613D01*
Y113882D01*
X176368Y114622D01*
Y117786D01*
X176657Y118074D01*
X177065D01*
X177353Y118362D01*
X179729D01*
X180306Y117786D01*
D02*
G37*
G36*
X141978Y117430D02*
X142048Y117385D01*
X142048Y114342D01*
X141865Y114159D01*
X141613Y113908D01*
X141306Y113600D01*
X133800D01*
X128800Y108600D01*
X125900D01*
X123174Y105874D01*
X122400Y106647D01*
X122275Y106772D01*
X122276Y107354D01*
X122276Y107569D01*
X126449Y111742D01*
X126463Y111763D01*
X128300Y113600D01*
X127344Y114556D01*
Y115944D01*
X129200Y117800D01*
X141306Y117800D01*
X141978Y117430D01*
D02*
G37*
G36*
X153737Y108813D02*
X137113D01*
X134120Y105820D01*
X129100D01*
Y107600D01*
X134360Y112860D01*
X141951D01*
X143235Y113735D01*
X153737D01*
Y108813D01*
D02*
G37*
G36*
X121283Y105859D02*
X121232Y105774D01*
X121187Y105687D01*
X121149Y105597D01*
X121116Y105504D01*
X121089Y105408D01*
X121068Y105308D01*
X121053Y105206D01*
X121044Y105100D01*
X121041Y104991D01*
X120041D01*
X120038Y105100D01*
X120029Y105206D01*
X120014Y105308D01*
X119993Y105408D01*
X119966Y105504D01*
X119933Y105597D01*
X119895Y105687D01*
X119850Y105774D01*
X119799Y105859D01*
X119742Y105939D01*
X121340D01*
X121283Y105859D01*
D02*
G37*
G36*
X116996Y118509D02*
Y102087D01*
X116740Y101831D01*
X116228D01*
X115972Y102087D01*
Y107243D01*
X109294Y113922D01*
X109110Y114106D01*
X108986Y114486D01*
X108960Y114585D01*
X108964Y114556D01*
X108986Y114486D01*
X109080Y114138D01*
X108964Y114556D01*
X108954Y114625D01*
X108991Y115085D01*
X109252Y117492D01*
X113406Y117800D01*
X116593Y118805D01*
X116996Y118509D01*
D02*
G37*
G36*
X178187Y99615D02*
X177456Y94450D01*
X177148Y94143D01*
Y93708D01*
X176713D01*
X176406Y93400D01*
X172559D01*
X171944Y94015D01*
X172279Y96618D01*
X169513Y94774D01*
X166513Y96774D01*
X166893Y96794D01*
X167233Y96854D01*
X167533Y96954D01*
X167793Y97094D01*
X168013Y97274D01*
X168193Y97494D01*
X168333Y97754D01*
X168433Y98054D01*
X168493Y98394D01*
X168513Y98774D01*
X170513D01*
X170533Y98394D01*
X170593Y98054D01*
X170693Y97754D01*
X170833Y97494D01*
X171013Y97274D01*
X171233Y97094D01*
X171493Y96954D01*
X171793Y96854D01*
X172133Y96794D01*
X172301Y96785D01*
X172382Y97423D01*
X175009Y99615D01*
X176670D01*
Y104243D01*
X178187D01*
Y99615D01*
D02*
G37*
G36*
X34967Y89593D02*
X35066Y88088D01*
X35097Y87959D01*
X35133Y87866D01*
X35172Y87807D01*
X33757D01*
X33797Y87866D01*
X33832Y87959D01*
X33863Y88088D01*
X33890Y88252D01*
X33931Y88684D01*
X33963Y89593D01*
X33965Y89966D01*
X34965D01*
X34967Y89593D01*
D02*
G37*
G36*
X109110Y73807D02*
X109356Y73856D01*
X109595Y74016D01*
X109833Y73856D01*
X110278Y73768D01*
X110350Y73717D01*
X110642Y73259D01*
X110544Y72766D01*
Y67432D01*
X110556Y67372D01*
Y64051D01*
X110539Y63968D01*
Y60646D01*
X110039Y60356D01*
X109557Y60452D01*
X109368D01*
Y58200D01*
Y55948D01*
X109557D01*
X110044Y56045D01*
X110544Y55757D01*
Y52432D01*
X110556Y52372D01*
Y49028D01*
X110544Y48968D01*
Y39150D01*
X109900D01*
Y38500D01*
X2000D01*
Y47200D01*
X6474D01*
X6915Y47017D01*
X8097Y46782D01*
X9303D01*
X10485Y47017D01*
X10926Y47200D01*
X88200D01*
X96000Y55000D01*
X98993Y57993D01*
X99978D01*
X100015Y58000D01*
X102000Y58000D01*
Y60010D01*
X102001Y60016D01*
Y61984D01*
X102000Y61990D01*
Y74200D01*
X104050D01*
X104083Y74233D01*
X104417Y74167D01*
X104929D01*
X105263Y74233D01*
X105368Y74303D01*
X105480Y74134D01*
X105896Y73856D01*
X106142Y73807D01*
Y76476D01*
X107142D01*
Y73807D01*
X107388Y73856D01*
X107626Y74016D01*
X107864Y73856D01*
X108110Y73807D01*
Y76476D01*
X109110D01*
Y73807D01*
D02*
G37*
G36*
X66673Y64194D02*
X66712Y64185D01*
X66770Y64177D01*
X66942Y64164D01*
X67700Y64150D01*
Y63550D01*
X66653Y63497D01*
Y64204D01*
X66673Y64194D01*
D02*
G37*
G36*
X100554Y62247D02*
X100534Y62223D01*
X100516Y62194D01*
X100499Y62159D01*
X100484Y62118D01*
X100470Y62072D01*
X100457Y62019D01*
X100437Y61897D01*
X100423Y61752D01*
X99352Y62823D01*
X99428Y62829D01*
X99619Y62857D01*
X99672Y62870D01*
X99718Y62884D01*
X99759Y62899D01*
X99794Y62916D01*
X99823Y62934D01*
X99847Y62954D01*
X100554Y62247D01*
D02*
G37*
G36*
X167700Y73956D02*
X169185D01*
X172700Y70441D01*
Y60300D01*
X170613Y58213D01*
X165783D01*
X165357Y58495D01*
Y59672D01*
X165473Y59787D01*
X169846D01*
X170700Y60642D01*
Y66494D01*
X168750Y68444D01*
X167556D01*
X165600Y70400D01*
Y72906D01*
X166030Y74260D01*
X167395D01*
X167700Y73956D01*
D02*
G37*
G36*
X178142Y58213D02*
Y56364D01*
X179127D01*
X179405Y56086D01*
Y52922D01*
X179117Y52634D01*
Y52226D01*
X178709D01*
X178321Y51838D01*
X177058D01*
X175768Y53127D01*
Y55378D01*
X173458Y57689D01*
Y59787D01*
X178142D01*
Y58213D01*
D02*
G37*
G36*
X121661Y64947D02*
X121661Y64946D01*
X122270Y64338D01*
X122799Y63984D01*
X123423Y63860D01*
X123439D01*
Y48461D01*
X123500Y46000D01*
X137100D01*
X137300Y45800D01*
X137321Y45309D01*
X137605Y2255D01*
X137252Y1900D01*
X131000D01*
Y38500D01*
X115100D01*
Y39150D01*
X114256D01*
Y48968D01*
X114244Y49028D01*
Y52372D01*
X114256Y52432D01*
Y58200D01*
X114252Y58222D01*
X114261Y58268D01*
Y63968D01*
X114244Y64051D01*
Y67372D01*
X114256Y67432D01*
Y71695D01*
X114719Y71850D01*
X114756Y71851D01*
X121661Y64947D01*
D02*
G37*
%LPC*%
G36*
X95124Y182121D02*
X94000D01*
Y178350D01*
X97771D01*
Y179474D01*
X97680Y180159D01*
X97416Y180797D01*
X96996Y181345D01*
X96447Y181766D01*
X95809Y182030D01*
X95124Y182121D01*
D02*
G37*
G36*
X93000D02*
X91876D01*
X91191Y182030D01*
X90553Y181766D01*
X90004Y181345D01*
X89584Y180797D01*
X89319Y180159D01*
X89229Y179474D01*
Y178350D01*
X93000D01*
Y182121D01*
D02*
G37*
G36*
X97771Y177350D02*
X94000D01*
Y173579D01*
X95124D01*
X95809Y173670D01*
X96447Y173934D01*
X96996Y174355D01*
X97416Y174903D01*
X97680Y175541D01*
X97771Y176226D01*
Y177350D01*
D02*
G37*
G36*
X93000D02*
X89229D01*
Y176226D01*
X89319Y175541D01*
X89584Y174903D01*
X90004Y174355D01*
X90553Y173934D01*
X91191Y173670D01*
X91876Y173579D01*
X93000D01*
Y177350D01*
D02*
G37*
G36*
X108368Y60452D02*
X108179D01*
X107551Y60327D01*
X107018Y59971D01*
X106662Y59439D01*
X106537Y58810D01*
Y58700D01*
X108368D01*
Y60452D01*
D02*
G37*
G36*
Y57700D02*
X106537D01*
Y57590D01*
X106662Y56962D01*
X107018Y56429D01*
X107551Y56073D01*
X108179Y55948D01*
X108368D01*
Y57700D01*
D02*
G37*
%LPD*%
D10*
X341971Y264671D02*
G03*
X341829Y264671I-71J-596D01*
G01*
X38800Y202900D02*
G03*
X38788Y202651I2611J-249D01*
G01*
X290502Y304019D02*
X291419D01*
X301400Y314000D02*
X313900D01*
X291419Y304019D02*
X301400Y314000D01*
X42320Y150635D02*
X42531Y150847D01*
X42320Y149142D02*
Y150635D01*
X38731Y145553D02*
X42320Y149142D01*
X154597Y179700D02*
X158142Y183245D01*
Y186957D01*
X137729Y179700D02*
X154597D01*
X110884Y132909D02*
X112275Y134300D01*
X110837Y132909D02*
X110884D01*
X112275Y134300D02*
X159700D01*
X21672Y129528D02*
Y143360D01*
X18632Y146400D02*
X21672Y143360D01*
X21800Y129400D02*
X27114D01*
X21672Y129528D02*
X21800Y129400D01*
X99060Y67995D02*
X100677Y69611D01*
X24168Y77832D02*
X31600D01*
Y74568D02*
X39155D01*
X39323Y74400D01*
X50559Y82337D02*
X53891D01*
X64754Y93200D02*
X72309D01*
X53891Y82337D02*
X64754Y93200D01*
X140800Y228300D02*
X144800Y232300D01*
X194700D02*
X200400Y226600D01*
X144800Y232300D02*
X194700D01*
X194200Y231100D02*
X198900Y226400D01*
X195200Y233500D02*
X201800Y226900D01*
X137416Y227036D02*
X143880Y233500D01*
X195200D01*
X142157Y226745D02*
X146513Y231100D01*
X194200D01*
X149209Y8100D02*
X150191D01*
X141200Y16109D02*
Y17091D01*
X143600Y17103D02*
Y18085D01*
X142400Y16606D02*
X149706Y9300D01*
X150688D01*
X143600Y17103D02*
X150203Y10500D01*
X144800Y17600D02*
Y34409D01*
X150700Y11700D02*
X196015D01*
X150203Y10500D02*
X151185D01*
X141200Y16109D02*
X149209Y8100D01*
X144800Y17600D02*
X150700Y11700D01*
X142400Y16606D02*
Y17588D01*
X143600Y18085D02*
Y34906D01*
X151185Y10500D02*
X196512D01*
X141200Y17091D02*
Y35900D01*
X150688Y9300D02*
X197010D01*
X142400Y17588D02*
Y35403D01*
X150191Y8100D02*
X197507D01*
X198200Y13885D02*
Y58997D01*
X199400Y13387D02*
Y59494D01*
X197010Y9300D02*
X200600Y12890D01*
X194600Y62597D02*
X198200Y58997D01*
X197000Y63591D02*
X200600Y59991D01*
X201800Y12393D02*
Y226900D01*
X195800Y63094D02*
X199400Y59494D01*
X197507Y8100D02*
X201800Y12393D01*
X196512Y10500D02*
X199400Y13387D01*
X196015Y11700D02*
X198200Y13885D01*
X200600Y12890D02*
Y59991D01*
X199000Y64943D02*
X200400Y66343D01*
Y226600D01*
X195800Y63094D02*
Y113694D01*
X197000Y63591D02*
Y68700D01*
X199000Y64510D02*
Y64943D01*
X194600Y62597D02*
Y113197D01*
X198900Y70600D02*
Y131400D01*
X190433Y56033D02*
X194384Y59984D01*
X188800Y141500D02*
X198900Y131400D01*
X197000Y68700D02*
X198900Y70600D01*
X194600Y114894D02*
X195800Y113694D01*
X189700Y135800D02*
X193400Y132100D01*
Y114397D02*
X194600Y113197D01*
X189100Y134600D02*
X192200Y131500D01*
X193400Y114397D02*
Y132100D01*
X190900Y137000D02*
X194600Y133300D01*
X193400Y72506D02*
Y112700D01*
X192200Y113900D02*
X193400Y112700D01*
X192200Y113900D02*
Y131500D01*
X194600Y114894D02*
Y133300D01*
X186494Y65600D02*
X193400Y72506D01*
X319906Y273000D02*
X357400D01*
X314900Y278006D02*
X319906Y273000D01*
X357400D02*
X358300Y272100D01*
X334559Y274400D02*
X350600D01*
X358300Y282100D01*
X328758Y280201D02*
X334559Y274400D01*
X314900Y278006D02*
Y287300D01*
X341971Y264671D02*
X362471D01*
X363400Y265600D02*
Y286000D01*
X358300Y291100D02*
X363400Y286000D01*
X362471Y264671D02*
X363400Y265600D01*
X346161Y314239D02*
X358300Y302100D01*
Y291100D02*
Y292100D01*
X341971Y264671D02*
X341971D01*
X346161Y314239D02*
Y322400D01*
X325552D02*
X346161D01*
X158700Y37222D02*
Y69018D01*
Y37222D02*
X160500Y35422D01*
Y20700D02*
Y35422D01*
X174180Y28005D02*
X183695D01*
X191000Y20700D01*
X179988Y20500D02*
X180500D01*
X170000D02*
X170500D01*
X141200Y35900D02*
X141900Y36600D01*
X142400Y35403D02*
X143100Y36103D01*
X144800Y34409D02*
X157479Y47088D01*
X143600Y34906D02*
X144300Y35606D01*
X180488Y20000D02*
X180500D01*
X161100Y39388D02*
X179988Y20500D01*
X165044Y25455D02*
X170000Y20500D01*
X162300Y39885D02*
Y70509D01*
X161100Y39388D02*
Y70012D01*
X162300Y39885D02*
X174180Y28005D01*
X165044Y25455D02*
Y32574D01*
X143100Y36103D02*
X155079Y48082D01*
X141900Y36600D02*
X153377Y48077D01*
X144300Y35606D02*
X156279Y47585D01*
Y66921D01*
X153377Y48077D02*
Y61722D01*
X155079Y48082D02*
Y64121D01*
X157479Y47088D02*
Y68542D01*
X159900Y37719D02*
Y69515D01*
X153715Y75700D02*
X159900Y69515D01*
Y37719D02*
X165044Y32574D01*
X153218Y74500D02*
X158700Y69018D01*
X154709Y78100D02*
X162300Y70509D01*
X154212Y76900D02*
X161100Y70012D01*
X152721Y73300D02*
X157479Y68542D01*
X148300Y70900D02*
X155079Y64121D01*
X151100Y72100D02*
X156279Y66921D01*
X145600Y69500D02*
X153377Y61722D01*
X124070Y69500D02*
X145600D01*
X150079Y50871D02*
Y53172D01*
X147700Y55550D02*
X150079Y53172D01*
Y50871D02*
X150450Y50500D01*
X146726Y62823D02*
Y63374D01*
X144325Y65775D02*
Y65775D01*
X146726Y62823D02*
X147700Y61850D01*
X144325Y65775D02*
X146726Y63374D01*
X141800Y68300D02*
X144325Y65775D01*
X124638Y70900D02*
X148300D01*
X125407Y72100D02*
X151100D01*
X163900Y66345D02*
Y70606D01*
X166145Y64100D02*
X167700D01*
X163900Y66345D02*
X166145Y64100D01*
X155206Y79300D02*
X163900Y70606D01*
X4800Y181600D02*
X14400D01*
X25000Y192200D02*
Y201400D01*
X14400Y181600D02*
X25000Y192200D01*
X27300Y203700D02*
Y212100D01*
X25000Y201400D02*
X27300Y203700D01*
X129200Y184000D02*
Y187733D01*
X103650Y182950D02*
X108433Y187733D01*
X129200D01*
Y208213D01*
X103650Y150550D02*
Y182950D01*
X142157Y218768D02*
Y226745D01*
X140800Y219813D02*
Y228300D01*
X130900Y185100D02*
X131499Y184501D01*
X130900Y207511D02*
X142157Y218768D01*
X129200Y208213D02*
X140800Y219813D01*
X130900Y185100D02*
Y207511D01*
X103650Y150550D02*
X113200Y141000D01*
X131499Y184501D02*
X137001D01*
X129200Y184000D02*
X129899Y183301D01*
X144046D01*
X93300Y132900D02*
X95100Y131100D01*
X169201Y121200D02*
X169450Y121450D01*
Y126900D01*
X179400Y133400D02*
X185900Y126900D01*
X173295Y137000D02*
X190900D01*
X162900Y135800D02*
X189700D01*
X161600Y134600D02*
X189100D01*
X160000Y136200D02*
X161600Y134600D01*
X157200Y141500D02*
X162900Y135800D01*
X168796Y141500D02*
X173295Y137000D01*
X160600Y133400D02*
X179400D01*
X159700Y134300D02*
X160600Y133400D01*
X262231Y280772D02*
X268972D01*
X270900Y289848D02*
X271252Y290200D01*
X268972Y280772D02*
X270900Y282700D01*
Y286000D01*
Y289848D01*
X271252Y290200D02*
X273700D01*
X244364Y316750D02*
X244515Y316599D01*
Y280772D02*
Y316599D01*
X236500Y316750D02*
X244364D01*
X262250Y271700D02*
Y280754D01*
X262231Y280772D02*
Y316599D01*
Y280772D02*
X262250Y280754D01*
X272850Y258464D02*
X273001Y258615D01*
X272850Y250300D02*
Y258464D01*
X273000Y310000D02*
Y318397D01*
X270800Y299300D02*
X270900Y299200D01*
X273000Y318397D02*
X273272Y318669D01*
X311200Y297300D02*
X311300Y297200D01*
X304000Y298200D02*
X314900Y287300D01*
X318540Y312276D02*
X318832Y312569D01*
X318540Y311402D02*
Y312276D01*
X320069Y312569D02*
Y316028D01*
X311950Y311050D02*
X318188D01*
X313900Y314000D02*
X315000Y315100D01*
X320069Y316028D02*
X320250Y316210D01*
X318832Y312569D02*
X320069D01*
X318188Y311050D02*
X318540Y311402D01*
X308828Y276331D02*
X308900Y276403D01*
X318300Y270350D02*
X323978Y264671D01*
X310618Y274541D02*
X314109D01*
X308828Y276331D02*
X310618Y274541D01*
X314109D02*
X318300Y270350D01*
X273272Y318669D02*
X309099D01*
X273272D02*
Y324028D01*
X270950Y326350D02*
X273272Y324028D01*
X315000Y324747D02*
X318625Y328372D01*
X315000Y315100D02*
Y324747D01*
X323600Y324352D02*
Y326648D01*
X321876Y328372D02*
X323600Y326648D01*
X318625Y328372D02*
X321876D01*
X323600Y324352D02*
X325552Y322400D01*
X320250Y316210D02*
Y325700D01*
X308900Y285000D02*
Y285656D01*
Y276403D02*
Y285000D01*
X300483Y294073D02*
X308900Y285656D01*
X295114Y294073D02*
X300483D01*
X311200Y310300D02*
X311950Y311050D01*
X305244Y310300D02*
X311200D01*
X279781Y304019D02*
X289527D01*
X277771Y306029D02*
Y308229D01*
X276000Y310000D02*
X277771Y308229D01*
Y306029D02*
X279781Y304019D01*
X298962D02*
X305244Y310300D01*
X273000Y310000D02*
X276000D01*
X291600Y298200D02*
X304000D01*
X290345Y296945D02*
X291600Y298200D01*
X290345Y294404D02*
Y296945D01*
X290015Y302173D02*
Y303531D01*
X290502Y304019D01*
X289527D02*
X290015Y303531D01*
X295602Y304019D02*
X298962D01*
X295114Y303531D02*
X295602Y304019D01*
X295114Y302173D02*
Y303531D01*
X264100Y326350D02*
X270950D01*
X273700Y290200D02*
X276237Y292737D01*
X290015Y294073D02*
X290345Y294404D01*
X276237Y292737D02*
X289527D01*
X290345Y293555D01*
X295400Y284900D02*
X295500Y285000D01*
X273001Y276331D02*
X308828D01*
X273001Y258615D02*
X308828D01*
X320069Y280201D02*
X328758D01*
X320069D02*
Y312569D01*
X337785Y280201D02*
Y316028D01*
Y280201D02*
X337835Y280250D01*
X346200D01*
X323978Y264671D02*
X341829Y264671D01*
X273272Y336385D02*
X309099D01*
X309150Y336436D01*
Y344100D01*
X198900Y167700D02*
Y226400D01*
X177200Y146000D02*
X198900Y167700D01*
X107000Y131900D02*
X110700Y135600D01*
X127800D01*
X133200Y141000D01*
X110358Y136955D02*
X117155D01*
X120167Y139967D01*
X122167D01*
X97500Y125413D02*
Y134497D01*
X90000Y121164D02*
Y133500D01*
X95297Y136700D02*
X97500Y134497D01*
X86937Y123477D02*
Y132134D01*
X92000Y135500D02*
X94800D01*
X91503Y136700D02*
X95297D01*
X90000Y133500D02*
X92000Y135500D01*
X86937Y132134D02*
X91503Y136700D01*
X94800Y135500D02*
X96300Y134000D01*
Y124916D02*
Y134000D01*
X5300Y128500D02*
X20900D01*
X21800Y129400D01*
X27114D02*
X29794Y132080D01*
X51365Y155320D02*
X52859D01*
X51153Y155532D02*
X51365Y155320D01*
X52859D02*
X55665Y152513D01*
X37635Y157288D02*
X37846Y157500D01*
X36141Y157288D02*
X37635D01*
X33994Y155141D02*
X36141Y157288D01*
X33994Y153194D02*
Y155141D01*
X15887Y149290D02*
X30090D01*
X33994Y153194D01*
X35195Y151394D02*
Y154373D01*
X36141Y155320D01*
X37635D01*
X37846Y155532D01*
X27993Y143943D02*
Y144193D01*
X35195Y151394D01*
X26250Y142200D02*
X27993Y143943D01*
X26000Y142200D02*
X26250D01*
X60079Y143771D02*
X62700Y141150D01*
X58354Y143771D02*
X60079D01*
X55665Y146459D02*
X58354Y143771D01*
X56865Y146957D02*
X58851Y144971D01*
X56865Y146957D02*
Y153793D01*
X58851Y144971D02*
X78871D01*
X55665Y146459D02*
Y152513D01*
X50639Y153351D02*
X50851Y153563D01*
X51153D01*
X50639Y141089D02*
Y153351D01*
X62750Y141100D02*
X68550D01*
X62700Y141150D02*
X62750Y141100D01*
X68550D02*
X68600Y141050D01*
X50639Y141089D02*
X56661D01*
X56700Y141128D01*
X58213Y130363D02*
X62700Y134850D01*
X48987Y130363D02*
X58213D01*
X44600Y134750D02*
X48987Y130363D01*
X50600Y134750D02*
Y134900D01*
X44600Y140900D02*
Y141050D01*
Y140900D02*
X50600Y134900D01*
X48437Y144887D02*
Y150847D01*
X44600Y141050D02*
X48437Y144887D01*
X38600Y141150D02*
X44500Y147050D01*
Y150847D01*
X38600Y140950D02*
Y141150D01*
Y140950D02*
X44600Y134950D01*
Y134750D02*
Y134950D01*
X32700Y140975D02*
X38600Y135075D01*
Y134850D02*
Y135075D01*
X32700Y140975D02*
Y141199D01*
X37054Y145553D01*
X38731D01*
X29794Y142590D02*
X38050Y150847D01*
X29794Y132080D02*
Y142590D01*
X16432Y146400D02*
X18632D01*
X38050Y150847D02*
X40563D01*
X12968Y146400D02*
X12997D01*
X15887Y149290D01*
X13000Y134775D02*
X19000Y140775D01*
X13000Y134550D02*
Y134775D01*
X19000Y140775D02*
Y140999D01*
X7200Y134800D02*
X13000Y140600D01*
Y140850D01*
X7200Y134550D02*
Y134800D01*
X12984Y140866D02*
Y146384D01*
X12968Y146400D02*
X12984Y146384D01*
Y140866D02*
X13000Y140850D01*
X123301Y68300D02*
X141800D01*
X103700Y107400D02*
Y110200D01*
X100400Y113500D02*
X103700Y110200D01*
Y107400D02*
X104983Y106116D01*
X106430Y103735D02*
X106642Y103524D01*
X105408Y106116D02*
X106430Y105095D01*
Y103735D02*
Y105095D01*
X104983Y106116D02*
X105408D01*
X105800Y113884D02*
X112335Y107349D01*
X107000Y114381D02*
X114304Y107077D01*
Y103735D02*
Y107077D01*
X112335Y103735D02*
Y107349D01*
X104600Y113387D02*
Y132894D01*
Y113387D02*
X110579Y107408D01*
X107000Y114381D02*
Y131900D01*
X110579Y103524D02*
Y107408D01*
X105800Y113884D02*
Y132397D01*
X87246Y115498D02*
Y118410D01*
X90000Y121164D01*
X82849Y111100D02*
X87246Y115498D01*
X70148Y116252D02*
X73900Y112500D01*
X81148D01*
X81500Y112852D02*
Y118063D01*
X81148Y112500D02*
X81500Y112852D01*
X85047Y121587D02*
X86937Y123477D01*
X81500Y118063D02*
X85023Y121587D01*
X85047D01*
X141922Y80500D02*
X155703D01*
X141425Y79300D02*
X155206D01*
X142419Y81700D02*
X156200D01*
X139934Y75700D02*
X153715D01*
X126175Y73300D02*
X152721D01*
X159003Y77200D02*
X175950D01*
X159500Y78400D02*
X176848D01*
X156200Y81700D02*
X159500Y78400D01*
X140431Y76900D02*
X154212D01*
X140928Y78100D02*
X154709D01*
X139437Y74500D02*
X153218D01*
X155703Y80500D02*
X159003Y77200D01*
X2578Y131222D02*
X5300Y128500D01*
X2578Y179378D02*
X4800Y181600D01*
X2578Y131222D02*
Y179378D01*
X51153Y157500D02*
X51282Y157372D01*
X53287D01*
X56865Y153793D01*
X124500Y156789D02*
X133200Y148089D01*
X124500Y168168D02*
X137232Y180900D01*
X124500Y156789D02*
Y168168D01*
X123200Y141000D02*
Y168565D01*
X136735Y182100D01*
X125931Y157056D02*
X130416Y152570D01*
X125931Y157056D02*
Y167902D01*
X137729Y179700D01*
X138000Y136200D02*
X160000D01*
X80312Y146412D02*
Y154112D01*
X78871Y144971D02*
X80312Y146412D01*
Y154112D02*
X80977Y154777D01*
X51100Y69400D02*
X51206D01*
X54677D01*
X49053Y71447D02*
Y80831D01*
Y71447D02*
X51100Y69400D01*
X47853Y68647D02*
X49496Y67004D01*
X59128D01*
X47853Y68647D02*
Y81956D01*
X49180Y65320D02*
X53758D01*
X46653Y67847D02*
Y82453D01*
Y67847D02*
X49180Y65320D01*
X53758D02*
X54677Y64400D01*
X143413Y84100D02*
X178900D01*
X180400Y85600D02*
X186100D01*
X178900Y84100D02*
X180400Y85600D01*
X142916Y82900D02*
X178800D01*
X186100Y75600D01*
X122602Y74906D02*
X125407Y72100D01*
X133002Y91116D02*
X142419Y81700D01*
X134763Y79173D02*
X139437Y74500D01*
X120633Y74906D02*
X124638Y70900D01*
X132863Y92953D02*
X142916Y82900D01*
X133949Y85079D02*
X140928Y78100D01*
X134221Y83110D02*
X140431Y76900D01*
X124570Y74906D02*
X126175Y73300D01*
X132592Y94921D02*
X143413Y84100D01*
X133753Y86972D02*
X141425Y79300D01*
X134492Y81142D02*
X139934Y75700D01*
X133406Y89016D02*
X141922Y80500D01*
X47853Y81956D02*
X60297Y94400D01*
X59800Y95600D02*
X70000D01*
X49053Y80831D02*
X50559Y82337D01*
X60297Y94400D02*
X71812D01*
X46653Y82453D02*
X59800Y95600D01*
X62600Y89200D02*
X65100Y91700D01*
X62600Y85324D02*
X63574Y84351D01*
X64101D01*
X62600Y85324D02*
Y89200D01*
X71303Y66897D02*
X74897D01*
X76800Y68800D02*
Y94297D01*
X74897Y66897D02*
X76800Y68800D01*
X101765Y82898D02*
X101976Y83110D01*
X100104Y82898D02*
X101765D01*
X96456Y79250D02*
X100104Y82898D01*
X122602Y74906D02*
Y76265D01*
X122390Y76476D02*
X122602Y76265D01*
X124358Y76476D02*
X124570Y76265D01*
Y74906D02*
Y76265D01*
X91000Y51900D02*
X94500Y55400D01*
Y62800D02*
X97522Y65822D01*
X94500Y55400D02*
Y62800D01*
X97522Y65822D02*
Y67796D01*
X98600Y68874D02*
X99000Y69274D01*
X97522Y67796D02*
X98600Y68874D01*
X94500Y65300D02*
Y69954D01*
X92247Y63047D02*
X94500Y65300D01*
X92247Y60689D02*
Y63047D01*
X129024Y81142D02*
X134492D01*
X129024Y83110D02*
X134221D01*
X129024Y85079D02*
X133949D01*
X129024Y79173D02*
X134763D01*
X90457Y58900D02*
X92247Y60689D01*
X118665Y74906D02*
X124070Y69500D01*
X116696Y74906D02*
X123301Y68300D01*
X118453Y76476D02*
X118665Y76265D01*
Y74906D02*
Y76265D01*
X120421Y76476D02*
X120633Y76265D01*
Y74906D02*
Y76265D01*
X96770Y96800D02*
X100406Y93165D01*
X79303Y96800D02*
X96770D01*
X78806Y98000D02*
X97539D01*
X100406Y95133D01*
X129024Y89016D02*
X133406D01*
X129099Y86972D02*
X133753D01*
X129156Y91116D02*
X133002D01*
X129024Y94921D02*
X132592D01*
X129024Y92953D02*
X132863D01*
X105800Y132397D02*
X110358Y136955D01*
X110006Y138300D02*
X110500D01*
X104600Y132894D02*
X110006Y138300D01*
X35300Y53500D02*
X61167D01*
X62267Y54600D02*
X62700D01*
X61167Y53500D02*
X62267Y54600D01*
X78000Y61500D02*
Y90200D01*
X80600Y92800D02*
X88230D01*
X78000Y90200D02*
X80600Y92800D01*
X81300Y91600D02*
X87733D01*
X79200Y61003D02*
Y89500D01*
X81300Y91600D01*
X76800Y94297D02*
X79303Y96800D01*
X75201Y57004D02*
X79200Y61003D01*
X74800Y58300D02*
X78000Y61500D01*
X48150Y172113D02*
X48200Y172063D01*
X71500Y206647D02*
X73147Y205000D01*
X71500Y206647D02*
Y208000D01*
X37700Y213400D02*
X38800Y212300D01*
X28600Y213400D02*
X37700D01*
X38800Y202900D02*
Y212300D01*
X38788Y197112D02*
Y202651D01*
Y197112D02*
X42011Y193889D01*
Y189947D02*
Y193889D01*
X27300Y212100D02*
X28600Y213400D01*
X99383Y99942D02*
X100256Y99070D01*
X101765D02*
X101976Y98858D01*
X99383Y99942D02*
Y100942D01*
X100256Y99070D02*
X101765D01*
X100406Y97102D02*
X101765D01*
X98200Y99307D02*
X100406Y97102D01*
X101765D02*
X101976Y96890D01*
X101765Y93165D02*
X101976Y92953D01*
X100406Y93165D02*
X101765D01*
X100406Y95133D02*
X101765D01*
X101976Y94921D01*
X96900Y88500D02*
X98353Y87047D01*
X101976D01*
X100584Y101039D02*
Y101439D01*
X78800Y104400D02*
X97623D01*
X100584Y101039D02*
X100795Y100827D01*
X97623Y104400D02*
X100584Y101439D01*
X100795Y100827D02*
X101976D01*
X97126Y103200D02*
X99383Y100942D01*
X80612Y103200D02*
X97126D01*
X96628Y102000D02*
X98184Y100445D01*
X81109Y102000D02*
X96628D01*
X98184Y99445D02*
Y100445D01*
X98200Y99307D02*
Y99429D01*
X98184Y99445D02*
X98200Y99429D01*
X88230Y92800D02*
X88245Y92785D01*
X98125Y92800D02*
X99729Y91196D01*
X92681Y91585D02*
X92696Y91600D01*
X97628D01*
X72506Y91700D02*
X78806Y98000D01*
X88245Y92785D02*
X92184D01*
X87733Y91600D02*
X87748Y91585D01*
X92199Y92800D02*
X98125D01*
X97628Y91600D02*
X100001Y89227D01*
X87748Y91585D02*
X92681D01*
X92184Y92785D02*
X92199Y92800D01*
X70000Y95600D02*
X78800Y104400D01*
X72309Y93200D02*
X81109Y102000D01*
X71812Y94400D02*
X80612Y103200D01*
X93983Y106353D02*
X96510D01*
X93855Y106481D02*
X93983Y106353D01*
X99729Y91196D02*
X101765D01*
X101976Y90984D01*
X65100Y91700D02*
X72506D01*
X94500Y69954D02*
X97656Y73110D01*
X84100Y67728D02*
X86113Y69741D01*
X86280D02*
X87939Y71400D01*
X93900D01*
X84100Y67561D02*
Y67728D01*
X86113Y69741D02*
X86280D01*
X96456Y73956D02*
Y79250D01*
X93900Y71400D02*
X96456Y73956D01*
X97264Y105600D02*
X99919D01*
X101300Y106981D01*
X96510Y106353D02*
X97264Y105600D01*
X97656Y73110D02*
Y78753D01*
X68050Y70150D02*
X71303Y66897D01*
X64150Y70150D02*
X66300D01*
X68050D01*
X101765Y89228D02*
X101976Y89016D01*
X100001Y89228D02*
X101765D01*
X61025Y81275D02*
X64101Y84351D01*
X63800Y77750D02*
X64700Y78650D01*
X70525D01*
X61025Y75525D02*
Y81275D01*
X43133Y57355D02*
X43485Y57004D01*
X43133Y57355D02*
Y58238D01*
X39323Y59400D02*
X41971D01*
X43133Y58238D01*
X43485Y57004D02*
X75201D01*
X95100Y124419D02*
X98000Y121519D01*
X95100Y124419D02*
Y131100D01*
X97500Y125413D02*
X100400Y122513D01*
X96300Y124916D02*
X99200Y122016D01*
X48748Y188851D02*
X49100Y188500D01*
X56951Y111369D02*
X66768D01*
X67200Y111800D01*
X146699Y182100D02*
X147900Y183301D01*
X136735Y182100D02*
X146699D01*
X137232Y180900D02*
X147196D01*
X149967Y183671D01*
X62700Y60300D02*
Y68700D01*
X64150Y70150D01*
X54677Y74400D02*
X54727Y74450D01*
X59950D02*
X61025Y75525D01*
X54727Y74450D02*
X59950D01*
X82927Y154777D02*
X83100Y154950D01*
X80977Y154777D02*
X82927D01*
X176848Y78400D02*
X181300Y73949D01*
Y73797D02*
Y73949D01*
Y73797D02*
X183797Y71300D01*
X188800D01*
X177200Y141500D02*
Y146000D01*
X72000Y185600D02*
X72090Y185510D01*
X156400Y113500D02*
X156437Y113463D01*
X83100Y148650D02*
X83200Y148550D01*
X87700D01*
X42000Y179937D02*
X42100Y180037D01*
X45500Y200690D02*
X47000Y202190D01*
X116696Y74906D02*
Y76265D01*
X116484Y76476D02*
X116696Y76265D01*
X192100Y72903D02*
Y110700D01*
X185900Y116900D02*
X192100Y110700D01*
X188800Y71300D02*
X190900Y73400D01*
X189297Y70100D02*
X192100Y72903D01*
X190900Y73400D02*
Y99100D01*
X188000Y102000D02*
X190900Y99100D01*
X186100Y65600D02*
X186494D01*
X183050Y70100D02*
X189297D01*
X182000Y102000D02*
X188000D01*
X175950Y77200D02*
X183050Y70100D01*
X99200Y113003D02*
Y122016D01*
X100400Y113500D02*
Y122513D01*
X98000Y112506D02*
Y121519D01*
X99200Y113003D02*
X102500Y109703D01*
X98000Y112506D02*
X101300Y109206D01*
X110500Y138300D02*
X113200Y141000D01*
X133200D02*
X138000Y136200D01*
X133200Y141000D02*
Y148089D01*
X144573Y183828D02*
X144849Y184104D01*
X144573Y183828D02*
Y183828D01*
X137001Y184501D02*
X139457Y186957D01*
X144046Y183301D02*
X144573Y183828D01*
X144849Y184104D02*
Y186459D01*
X155661Y190261D02*
X156900Y191500D01*
X158903D01*
X155583Y186957D02*
X155661Y187035D01*
Y190261D01*
X122167Y139967D02*
X123200Y141000D01*
X155833Y102094D02*
X159271D01*
X162785Y109800D02*
X165668Y106917D01*
X156707Y96267D02*
X157200Y95774D01*
X177200Y141500D02*
X188800D01*
X157400Y109800D02*
X162785D01*
X153600Y106000D02*
X157400Y109800D01*
X136903Y106000D02*
X153600D01*
X131730Y100827D02*
X136903Y106000D01*
X129024Y100827D02*
X131730D01*
X137400Y104800D02*
X153128D01*
X131458Y98858D02*
X137400Y104800D01*
X153128D02*
X155833Y102094D01*
X129024Y98858D02*
X131458D01*
X112335Y103735D02*
X112547Y103524D01*
X114304Y103735D02*
X114516Y103524D01*
X101300Y106981D02*
Y109206D01*
X102500Y105697D02*
Y109703D01*
X67900Y111100D02*
X82849D01*
X67200Y111800D02*
X67900Y111100D01*
X65538Y120138D02*
X68862D01*
X65538D02*
X67200Y121800D01*
X64252Y118852D02*
X65538Y120138D01*
X57439Y115301D02*
X60990Y118852D01*
X64252D01*
X56705Y114567D02*
Y115109D01*
X56897Y115301D01*
X57439D01*
X70148Y116252D02*
Y118852D01*
X68862Y120138D02*
X70148Y118852D01*
X52421Y94016D02*
X52437Y94000D01*
X102500Y105697D02*
X103613Y104584D01*
X104461D01*
X104673Y103524D02*
Y104372D01*
X104461Y104584D02*
X104673Y104372D01*
X99000Y69274D02*
Y78400D01*
X99773Y79173D01*
X59248Y58300D02*
X74800D01*
X58148Y59400D02*
X59248Y58300D01*
X54677Y59400D02*
X58148D01*
X97656Y78753D02*
X99833Y80930D01*
X129024Y87047D02*
X129099Y86972D01*
X186533Y56033D02*
X190433D01*
X186100Y55600D02*
X186533Y56033D01*
X178500Y105500D02*
X182000Y102000D01*
X129024Y90984D02*
X129156Y91116D01*
X175900Y105500D02*
X178500D01*
X172300Y103258D02*
X172787Y103746D01*
X174146D01*
X175900Y105500D01*
X172300Y101900D02*
Y103258D01*
X101765Y80930D02*
X101976Y81142D01*
X99833Y80930D02*
X101765D01*
X99773Y79173D02*
X101976D01*
X99060Y67971D02*
Y67995D01*
X76184Y51900D02*
X91000D01*
X100677Y69611D02*
X100700D01*
X30500Y56603D02*
Y71000D01*
X31700Y57100D02*
Y67200D01*
X33900Y69400D01*
X29400Y72100D02*
X30500Y71000D01*
X31700Y57100D02*
X35300Y53500D01*
X30500Y56603D02*
X35299Y51804D01*
X24168Y77832D02*
X24300Y77700D01*
X24000Y78000D02*
X24168Y77832D01*
X24300Y73400D02*
Y77700D01*
X25600Y72100D02*
X29400D01*
X24300Y73400D02*
X25600Y72100D01*
X35299Y51804D02*
X76088D01*
X76184Y51900D01*
X149200Y100700D02*
X149856D01*
X147600Y100300D02*
X148256D01*
X42011Y189947D02*
X45047Y186910D01*
X45500D01*
X44700Y214150D02*
Y219250D01*
X44600Y219350D02*
X44700Y219250D01*
X130300Y158200D02*
X130400Y158100D01*
X145423Y215223D02*
X145500Y215300D01*
X145346Y210185D02*
X145423Y210262D01*
X169900Y227900D02*
X170000Y227800D01*
X31847Y115365D02*
X31851Y115369D01*
Y119192D02*
X31855Y119195D01*
X47304Y154600D02*
X47400D01*
X46468Y153765D02*
X47304Y154600D01*
X24000Y78000D02*
Y113827D01*
X167200Y141500D02*
X168796D01*
X162600Y146100D02*
X167200Y141500D01*
X137416Y225816D02*
Y227036D01*
X137300Y225700D02*
X137416Y225816D01*
X33900Y69400D02*
X39323D01*
X66300Y63850D02*
X73500D01*
X6284Y78000D02*
Y113827D01*
X49558Y61796D02*
X59128D01*
X46955Y64400D02*
X49558Y61796D01*
X59128D02*
X60302Y62969D01*
X59128Y67004D02*
X60302Y65831D01*
Y62969D02*
Y65831D01*
X39323Y64400D02*
X46955D01*
X130416Y152570D02*
X137600D01*
X144849Y186459D02*
X145346Y186957D01*
X139457D02*
X142787D01*
X155000Y148900D02*
Y159600D01*
Y148900D02*
X157200Y146700D01*
Y141500D02*
Y146700D01*
X147600Y167000D02*
Y173830D01*
Y167000D02*
X155000Y159600D01*
X162600Y146100D02*
Y152570D01*
X158903Y191500D02*
X171972Y178430D01*
Y174458D02*
Y178430D01*
Y174458D02*
X172600Y173830D01*
X149967Y183671D02*
Y186459D01*
X150465Y186957D01*
X134000Y200350D02*
X134500Y200850D01*
X134000Y194650D02*
Y200350D01*
X147900Y183301D02*
Y186951D01*
X147906Y186957D01*
X6242Y113868D02*
Y123459D01*
X31605Y102887D02*
X31847Y103129D01*
Y109066D01*
X94000Y154650D02*
Y160850D01*
X94500Y161350D01*
D11*
X33000Y207199D02*
D03*
X31000Y193701D02*
D03*
D12*
X33000Y219601D02*
D03*
X31000Y181299D02*
D03*
D13*
X168750Y43900D02*
D03*
X175050D02*
D03*
X262250Y271700D02*
D03*
X255950D02*
D03*
X272850Y250300D02*
D03*
X279150D02*
D03*
X302750Y343700D02*
D03*
X309050D02*
D03*
X320250Y325700D02*
D03*
X326550D02*
D03*
X144150Y50500D02*
D03*
X150450D02*
D03*
X12500Y123500D02*
D03*
X6201D02*
D03*
X23850Y229000D02*
D03*
X30150D02*
D03*
X175750Y126900D02*
D03*
X169450D02*
D03*
D14*
X237900Y310550D02*
D03*
Y316850D02*
D03*
X318300Y270350D02*
D03*
Y264050D02*
D03*
X264100Y332650D02*
D03*
Y326350D02*
D03*
X346200Y286550D02*
D03*
Y280250D02*
D03*
X70525Y78650D02*
D03*
Y84950D02*
D03*
X73500Y70150D02*
D03*
Y63850D02*
D03*
X87700Y154850D02*
D03*
Y148550D02*
D03*
X94000Y148350D02*
D03*
Y154650D02*
D03*
X13000Y134550D02*
D03*
Y140850D02*
D03*
X19000Y140999D02*
D03*
Y134700D02*
D03*
X7200Y134550D02*
D03*
Y140850D02*
D03*
X38600Y141150D02*
D03*
Y134850D02*
D03*
X44600Y141050D02*
D03*
Y134750D02*
D03*
X62700Y134850D02*
D03*
Y141150D02*
D03*
X44700Y214150D02*
D03*
Y207850D02*
D03*
X134000Y188350D02*
D03*
Y194650D02*
D03*
X31847Y109066D02*
D03*
Y115365D02*
D03*
X32700Y141199D02*
D03*
Y134900D02*
D03*
X50600Y141050D02*
D03*
Y134750D02*
D03*
X68600D02*
D03*
Y141050D02*
D03*
X56700Y141128D02*
D03*
Y134828D02*
D03*
D15*
X70612Y165300D02*
D03*
X59588D02*
D03*
D16*
X149800Y120526D02*
D03*
D17*
Y111274D02*
D03*
D18*
X29000Y164500D02*
D03*
D19*
X20000D02*
D03*
D20*
X38989Y114567D02*
D03*
Y102264D02*
D03*
X40957D02*
D03*
X42926D02*
D03*
X44894D02*
D03*
X46863D02*
D03*
X48831D02*
D03*
X50800D02*
D03*
X52768D02*
D03*
X54737D02*
D03*
X56705D02*
D03*
Y114567D02*
D03*
X54737D02*
D03*
X52768D02*
D03*
X50800D02*
D03*
X48831D02*
D03*
X46863D02*
D03*
X44894D02*
D03*
X42926D02*
D03*
X40957D02*
D03*
D21*
X38743Y111369D02*
D03*
Y109400D02*
D03*
Y107431D02*
D03*
Y105463D02*
D03*
X56951D02*
D03*
Y107431D02*
D03*
Y109400D02*
D03*
Y111369D02*
D03*
D22*
X5500Y196500D02*
D03*
Y204374D02*
D03*
D23*
X16130Y195319D02*
D03*
Y197878D02*
D03*
Y200437D02*
D03*
Y202996D02*
D03*
Y205555D02*
D03*
D24*
X262231Y280772D02*
D03*
X320069Y316028D02*
D03*
X24000Y78000D02*
D03*
D25*
X262231Y316599D02*
D03*
X244515Y280772D02*
D03*
Y316599D02*
D03*
X337785Y280201D02*
D03*
Y316028D02*
D03*
X320069Y280201D02*
D03*
X24000Y113827D02*
D03*
X6284Y78000D02*
D03*
Y113827D02*
D03*
D26*
X273001Y258615D02*
D03*
X308828D02*
D03*
X273001Y276331D02*
D03*
X309099Y318669D02*
D03*
X273272Y336385D02*
D03*
X309099D02*
D03*
D27*
X308828Y276331D02*
D03*
X273272Y318669D02*
D03*
D28*
X175800Y59000D02*
D03*
X145400Y220600D02*
D03*
D29*
X175800Y61600D02*
D03*
Y64100D02*
D03*
X167700D02*
D03*
Y59000D02*
D03*
X145400Y223200D02*
D03*
Y225700D02*
D03*
X137300D02*
D03*
Y220600D02*
D03*
D30*
X290015Y302173D02*
D03*
X295114D02*
D03*
Y294073D02*
D03*
X292615D02*
D03*
X177400Y101900D02*
D03*
X172300D02*
D03*
Y110000D02*
D03*
X174800D02*
D03*
D31*
X290015Y294073D02*
D03*
X177400Y110000D02*
D03*
D32*
X137600Y152570D02*
D03*
D33*
X142600D02*
D03*
X147600D02*
D03*
X152600D02*
D03*
X157600D02*
D03*
X162600D02*
D03*
X167600D02*
D03*
X172600D02*
D03*
X137600Y173830D02*
D03*
X142600D02*
D03*
X147600D02*
D03*
X152600D02*
D03*
X157600D02*
D03*
X162600D02*
D03*
X167600D02*
D03*
X172600D02*
D03*
D34*
X159271Y106917D02*
D03*
Y102094D02*
D03*
X165668D02*
D03*
D35*
Y106917D02*
D03*
D36*
X69759Y195300D02*
D03*
D37*
X64641D02*
D03*
D38*
X22000Y208359D02*
D03*
D39*
Y203241D02*
D03*
D40*
X84100Y58900D02*
D03*
Y67561D02*
D03*
X90399D02*
D03*
D41*
Y58900D02*
D03*
D42*
X168850Y48800D02*
D03*
X18150Y228000D02*
D03*
X169550Y121200D02*
D03*
D43*
X175150Y48800D02*
D03*
X11850Y228000D02*
D03*
X175850Y121200D02*
D03*
D44*
X63800Y77750D02*
D03*
X66300Y63850D02*
D03*
X147700Y61850D02*
D03*
X44600Y225650D02*
D03*
X83100Y154950D02*
D03*
X94500Y167650D02*
D03*
X134500Y207150D02*
D03*
X31605Y96588D02*
D03*
D45*
X63800Y84050D02*
D03*
X66300Y70150D02*
D03*
X147700Y55550D02*
D03*
X44600Y219350D02*
D03*
X83100Y148650D02*
D03*
X94500Y161350D02*
D03*
X134500Y200850D02*
D03*
X31605Y102887D02*
D03*
D46*
X237033Y207135D02*
D03*
Y125245D02*
D03*
X237000Y30610D02*
D03*
Y112500D02*
D03*
X270500Y207445D02*
D03*
Y125555D02*
D03*
Y30555D02*
D03*
Y112445D02*
D03*
X304000Y207445D02*
D03*
Y125555D02*
D03*
Y30610D02*
D03*
Y112500D02*
D03*
X337500Y207445D02*
D03*
Y125555D02*
D03*
Y30610D02*
D03*
Y112500D02*
D03*
X371700Y207745D02*
D03*
Y125855D02*
D03*
X371000Y30610D02*
D03*
Y112500D02*
D03*
D47*
X89392Y88300D02*
D03*
X83408D02*
D03*
X127108Y49200D02*
D03*
X133092D02*
D03*
D48*
X45500Y186910D02*
D03*
Y200690D02*
D03*
D49*
X72090Y177200D02*
D03*
X58310D02*
D03*
X75490Y151700D02*
D03*
X61710D02*
D03*
D50*
X167700Y71200D02*
D03*
X176100D02*
D03*
X308900Y285000D02*
D03*
X300500D02*
D03*
X281400Y310000D02*
D03*
X273000D02*
D03*
X135200Y55700D02*
D03*
X126800D02*
D03*
X58300Y188900D02*
D03*
X66700D02*
D03*
X135084Y63766D02*
D03*
X126684D02*
D03*
D51*
X270900Y294400D02*
D03*
Y286000D02*
D03*
X311200Y310300D02*
D03*
Y301900D02*
D03*
X83200Y74800D02*
D03*
Y83200D02*
D03*
X90300Y83100D02*
D03*
Y74700D02*
D03*
X139600Y115700D02*
D03*
Y124100D02*
D03*
X130100D02*
D03*
Y115700D02*
D03*
X120800D02*
D03*
Y124100D02*
D03*
X111700D02*
D03*
Y115700D02*
D03*
X149200Y100700D02*
D03*
Y92300D02*
D03*
X141200D02*
D03*
Y100700D02*
D03*
X26000Y133800D02*
D03*
Y142200D02*
D03*
X161400Y219500D02*
D03*
Y227900D02*
D03*
X130200Y220000D02*
D03*
Y228400D02*
D03*
X174700Y95500D02*
D03*
Y87100D02*
D03*
X169900Y227900D02*
D03*
Y219500D02*
D03*
X130300Y166600D02*
D03*
Y158200D02*
D03*
D52*
X63500Y208000D02*
D03*
D53*
X71500D02*
D03*
D54*
X160300Y121337D02*
D03*
Y113463D02*
D03*
X48200Y179937D02*
D03*
Y172063D02*
D03*
X42100Y172163D02*
D03*
Y180037D02*
D03*
X152900Y219763D02*
D03*
Y227637D02*
D03*
X164600Y95774D02*
D03*
Y87900D02*
D03*
X83900Y183663D02*
D03*
Y191537D02*
D03*
X157200Y87900D02*
D03*
Y95774D02*
D03*
X98600Y68874D02*
D03*
Y61000D02*
D03*
X91800Y117937D02*
D03*
Y110063D02*
D03*
D55*
X20063Y153500D02*
D03*
X27937D02*
D03*
X56542Y123738D02*
D03*
X48668D02*
D03*
X44563Y94000D02*
D03*
X52437D02*
D03*
X32668Y123738D02*
D03*
X40542D02*
D03*
X86937Y123500D02*
D03*
X79063D02*
D03*
X78126Y116000D02*
D03*
X86000D02*
D03*
X11063Y220500D02*
D03*
X18937D02*
D03*
X177737Y54200D02*
D03*
X169863D02*
D03*
X170463Y116000D02*
D03*
X178337D02*
D03*
D56*
X158142Y210185D02*
D03*
X155583D02*
D03*
X153024D02*
D03*
X150465D02*
D03*
X147906D02*
D03*
X145346D02*
D03*
X142787D02*
D03*
X158142Y186957D02*
D03*
X155583D02*
D03*
X153024D02*
D03*
X150465D02*
D03*
X147906D02*
D03*
X145346D02*
D03*
D57*
X142787D02*
D03*
D58*
X51153Y161437D02*
D03*
Y159468D02*
D03*
Y155532D02*
D03*
Y153563D02*
D03*
X37846D02*
D03*
Y155532D02*
D03*
Y157500D02*
D03*
Y159468D02*
D03*
X51153Y157500D02*
D03*
D59*
X37846Y161437D02*
D03*
D60*
X40563Y164154D02*
D03*
X42531D02*
D03*
X44500D02*
D03*
X46468D02*
D03*
X48437D02*
D03*
Y150847D02*
D03*
X46468D02*
D03*
X44500D02*
D03*
X42531D02*
D03*
X40563D02*
D03*
D61*
X44500Y157500D02*
D03*
D62*
X101976Y100827D02*
D03*
D63*
X104673Y103524D02*
D03*
X106642D02*
D03*
X108610D02*
D03*
X110579D02*
D03*
X112547D02*
D03*
X114516D02*
D03*
X116484D02*
D03*
X118453D02*
D03*
X120421D02*
D03*
X122390D02*
D03*
X124358D02*
D03*
X126327D02*
D03*
Y76476D02*
D03*
X124358D02*
D03*
X122390D02*
D03*
X120421D02*
D03*
X118453D02*
D03*
X116484D02*
D03*
X114516D02*
D03*
X112547D02*
D03*
X110579D02*
D03*
X108610D02*
D03*
X106642D02*
D03*
X104673D02*
D03*
D64*
X129024Y100827D02*
D03*
Y98858D02*
D03*
Y96890D02*
D03*
Y94921D02*
D03*
Y92953D02*
D03*
Y90984D02*
D03*
Y89016D02*
D03*
Y87047D02*
D03*
Y85079D02*
D03*
Y83110D02*
D03*
Y81142D02*
D03*
Y79173D02*
D03*
X101976D02*
D03*
Y81142D02*
D03*
Y83110D02*
D03*
Y85079D02*
D03*
Y87047D02*
D03*
Y89016D02*
D03*
Y90984D02*
D03*
Y92953D02*
D03*
Y94921D02*
D03*
Y96890D02*
D03*
Y98858D02*
D03*
D65*
X115500Y90000D02*
D03*
D66*
X54677Y59400D02*
D03*
X39323D02*
D03*
X54677Y64400D02*
D03*
X39323D02*
D03*
X54677Y69400D02*
D03*
X39323D02*
D03*
X54677Y74400D02*
D03*
X39323D02*
D03*
X54677Y79400D02*
D03*
D67*
X39323D02*
D03*
D68*
X112500Y22000D02*
D03*
X127400D02*
D03*
D69*
X90300Y3850D02*
D03*
D70*
X18000Y176768D02*
D03*
Y180232D02*
D03*
X112400Y67432D02*
D03*
Y63968D02*
D03*
Y52432D02*
D03*
Y48968D02*
D03*
X31600Y74568D02*
D03*
Y78032D02*
D03*
D71*
X12968Y146400D02*
D03*
X16432D02*
D03*
X108868Y58200D02*
D03*
X34465Y87100D02*
D03*
X31000D02*
D03*
D72*
X112400Y58200D02*
D03*
D73*
X264100Y340749D02*
X271451Y348100D01*
X312000D02*
X326550Y333550D01*
X271451Y348100D02*
X312000D01*
X150100Y120526D02*
Y132400D01*
X125295D02*
X150100D01*
X156000D01*
X167600Y150700D02*
Y152570D01*
Y150700D02*
X169629Y148671D01*
X170219D02*
X170257Y148633D01*
X169629Y148671D02*
X170219D01*
X175050Y43900D02*
X175089Y43860D01*
Y40986D02*
X175128Y40947D01*
X175089Y40986D02*
Y43860D01*
X174700Y87309D02*
X174804Y87204D01*
X174700Y87309D02*
Y91300D01*
X142600Y167700D02*
Y173830D01*
X131083Y158100D02*
X133224Y155959D01*
X134002D02*
X134040Y155921D01*
X130400Y158100D02*
X131083D01*
X133224Y155959D02*
X134002D01*
X68600Y134750D02*
X69372Y133979D01*
X70808D02*
X71499Y133288D01*
X69372Y133979D02*
X70808D01*
X71499Y133288D02*
X71553D01*
X56700Y134996D02*
Y137656D01*
X56533Y134828D02*
X56700Y134996D01*
X32700Y134900D02*
Y137728D01*
X19000Y134700D02*
Y137528D01*
X48106Y186763D02*
X52162Y182706D01*
X87750Y154900D02*
X89839Y156989D01*
X90614D02*
X90653Y157027D01*
X87650Y154900D02*
X87750D01*
X89839Y156989D02*
X90614D01*
X32637Y123769D02*
X32668Y123738D01*
X26900Y123800D02*
X26931Y123769D01*
X32637D01*
X57243Y122643D02*
Y123300D01*
X59457Y120430D02*
X59567D01*
X59605Y120391D01*
X57243Y122643D02*
X59457Y120430D01*
X53063Y84337D02*
X60263Y91537D01*
X169563Y54300D02*
X172800D01*
X177437Y53906D02*
Y54300D01*
Y53906D02*
X179500Y51843D01*
X148422Y6200D02*
X198294D01*
X139300Y15322D02*
X148422Y6200D01*
X139300Y15322D02*
Y48028D01*
X195128Y13600D02*
X196300Y14772D01*
X154300Y13600D02*
X195128D01*
X190900Y30000D02*
X196300Y24600D01*
Y14772D02*
Y24600D01*
X203800Y11706D02*
Y121900D01*
X198294Y6200D02*
X203800Y11706D01*
X196800Y119200D02*
Y124800D01*
X181872Y121900D02*
X190200D01*
X327150Y325100D02*
X349600D01*
X358000Y316700D01*
X151444Y16456D02*
Y18756D01*
X149700Y20500D02*
X151444Y18756D01*
Y16456D02*
X154300Y13600D01*
X133092Y49200D02*
X138128D01*
X139300Y48028D01*
X130200Y228400D02*
X130545D01*
X129517D02*
X130200D01*
X114456Y115372D02*
Y116750D01*
X79000Y123500D02*
Y128463D01*
X165372Y39500D02*
X170700D01*
X164200Y40672D02*
X165372Y39500D01*
X164200Y40672D02*
Y57828D01*
X165372Y59000D01*
X180200Y30000D02*
X190900D01*
X170700Y39500D02*
X180200Y30000D01*
X182500Y35600D02*
X186100D01*
X179500Y38600D02*
X182500Y35600D01*
X179500Y38600D02*
Y48700D01*
X101750Y225250D02*
X108987Y232487D01*
X125430D02*
X129517Y228400D01*
X108987Y232487D02*
X125430D01*
X101750Y187850D02*
Y225250D01*
X131642Y225358D02*
Y227304D01*
X130545Y228400D02*
X131642Y227304D01*
Y225358D02*
X134300Y222700D01*
X70525Y84950D02*
X73896Y81578D01*
X67413Y88062D02*
X70525Y84950D01*
X101750Y169900D02*
Y187850D01*
X292600Y289100D02*
Y290300D01*
X175958Y126691D02*
X177962Y124688D01*
Y124438D02*
X178000Y124400D01*
X175750Y126691D02*
X175958D01*
X177962Y124438D02*
Y124688D01*
X180700Y123072D02*
Y128900D01*
Y123072D02*
X181872Y121900D01*
X178100Y131500D02*
X180700Y128900D01*
X99426Y61825D02*
X99569Y61968D01*
Y64115D02*
X100200Y64746D01*
X98600Y61000D02*
X99425Y61825D01*
X99426D01*
X100200Y64746D02*
Y64800D01*
X99569Y61968D02*
Y64115D01*
X93228Y147262D02*
Y147579D01*
X92838Y145138D02*
Y146872D01*
X93228Y147579D02*
X94000Y148350D01*
X92838Y146872D02*
X93228Y147262D01*
X92800Y145100D02*
X92838Y145138D01*
X120541Y106541D02*
Y108141D01*
X125295Y112895D01*
X45232Y167368D02*
X46358Y168494D01*
X51672D01*
X49100Y186910D02*
Y188500D01*
X42531Y167108D02*
Y171731D01*
X42150Y172113D02*
X42531Y171731D01*
X68078Y159112D02*
X71424Y155766D01*
X54688Y159112D02*
X68078D01*
X168800Y43950D02*
Y48750D01*
X168850Y48800D01*
X168750Y43900D02*
X168800Y43950D01*
X179500Y48700D02*
Y51843D01*
X179400Y48800D02*
X179500Y48700D01*
X175150Y48800D02*
X179400D01*
X170463Y116000D02*
X173700D01*
X156000Y132400D02*
X156900Y131500D01*
X178100D01*
X251600Y272960D02*
X252772Y271788D01*
X256009Y268491D02*
Y271642D01*
X255950Y271700D02*
X256009Y271642D01*
X252772Y271788D02*
X255862D01*
X256009Y268491D02*
X257900Y266600D01*
X326550Y325700D02*
X327150Y325100D01*
X326550Y325700D02*
Y333550D01*
X251600Y272960D02*
Y323600D01*
X260650Y332650D01*
X264100D01*
X257900Y266600D02*
X315750D01*
X318300Y264050D01*
X264100Y332650D02*
Y340749D01*
X125295Y112895D02*
Y132400D01*
X114627Y130209D02*
X116818Y132400D01*
X125295D01*
X109763Y130209D02*
X114627D01*
X80579Y128463D02*
X95016Y142900D01*
X99500D01*
X79000Y128463D02*
X80579D01*
X26000Y133800D02*
Y137650D01*
X105700Y108600D02*
X105738Y108562D01*
X47850Y225650D02*
X58000Y215500D01*
X44600Y225650D02*
X47850D01*
X58000Y215500D02*
X62500D01*
X78126Y116000D02*
Y122563D01*
X79063Y123500D01*
X53000Y128463D02*
X79000D01*
X91800Y117937D02*
X91962Y117775D01*
Y114538D02*
X92000Y114500D01*
X91962Y114538D02*
Y117775D01*
X30150Y229000D02*
X30650Y228500D01*
X14025Y231175D02*
X21676D01*
X23850Y229000D01*
X24350Y210023D02*
Y229000D01*
X18543Y220894D02*
Y227606D01*
X18150Y228000D02*
X18543Y227606D01*
Y220894D02*
X18937Y220500D01*
X11850Y228575D02*
X12425D01*
Y229575D02*
X14025Y231175D01*
X12425Y228575D02*
Y229575D01*
X63500Y208000D02*
X64496Y207004D01*
Y195445D02*
Y207004D01*
Y195445D02*
X64641Y195300D01*
X59935Y190625D02*
X64361Y195052D01*
X59396Y190625D02*
X59935D01*
X64361Y195052D02*
Y195087D01*
X63500Y208000D02*
Y214500D01*
X127154Y49554D02*
X127508Y49200D01*
X127154Y49554D02*
Y55346D01*
X91800Y110063D02*
X96100D01*
X91406D02*
X91800D01*
X58362Y82962D02*
X58400Y83000D01*
X58362Y79896D02*
Y82962D01*
X54677Y79400D02*
X57866D01*
X58362Y79896D01*
X116444Y118738D02*
Y126248D01*
X114456Y116750D02*
X116444Y118738D01*
Y126248D02*
X116500Y126304D01*
Y126800D02*
X119062Y129362D01*
X116500Y126304D02*
Y126800D01*
X128717Y129383D02*
X134850D01*
X146383D01*
X134850Y115700D02*
Y129383D01*
X40100Y87100D02*
X41062Y88062D01*
X49433D01*
X34465Y87100D02*
X40100D01*
X49433Y88062D02*
X49472Y88100D01*
X64638Y88062D02*
X67413D01*
X64600Y88100D02*
X64638Y88062D01*
X174700Y95500D02*
X175129Y95929D01*
X174426Y95774D02*
X174700Y95500D01*
X71424Y155766D02*
X73100D01*
X75490Y153376D01*
Y151700D02*
Y153376D01*
X99500Y142900D02*
Y167650D01*
Y126100D02*
Y142900D01*
X88600Y94800D02*
X95942D01*
X142457Y88538D02*
X142495Y88500D01*
X142457Y88538D02*
Y91204D01*
X141361Y92300D02*
X142457Y91204D01*
X141200Y92300D02*
X141361D01*
X147600Y100700D02*
X149200D01*
X112700Y125100D02*
Y127509D01*
X109000Y129500D02*
X109054D01*
X109763Y130209D01*
X84150Y54350D02*
Y58495D01*
X44775Y207925D02*
X48425D01*
X48328Y200862D02*
X53962D01*
X54000Y200900D01*
X47000Y202190D02*
X48328Y200862D01*
X42150Y172113D02*
X48150D01*
X48200Y172063D02*
X48594D01*
X73147Y205000D02*
X76500D01*
X61710Y151700D02*
X67100D01*
X5500Y196500D02*
X11500D01*
X5500D02*
Y204374D01*
X20200Y195300D02*
X21200D01*
X19726Y205592D02*
X22000Y207867D01*
X126800Y55700D02*
X127154Y55346D01*
X127300Y22750D02*
Y41300D01*
X130600Y44600D01*
X89392Y88300D02*
X89454Y88238D01*
X93662D02*
X93700Y88200D01*
X89454Y88238D02*
X93662D01*
X88700Y100000D02*
X95800D01*
X90438Y106728D02*
Y109095D01*
X90164Y106454D02*
X90438Y106728D01*
X90164Y106400D02*
Y106454D01*
X83500Y75100D02*
Y78100D01*
X83200Y74800D02*
X83500Y75100D01*
X90500Y74900D02*
Y78200D01*
X90300Y74700D02*
X90500Y74900D01*
X96757Y83157D02*
X98600Y85000D01*
X90295Y83107D02*
X90345Y83157D01*
X90250Y83150D02*
X90300Y83100D01*
X90345Y83157D02*
X96757D01*
X83250Y83150D02*
X90250D01*
X83200Y83200D02*
X83250Y83150D01*
X83200Y83200D02*
X83304Y83304D01*
Y88196D02*
X83408Y88300D01*
X83304Y83304D02*
Y88196D01*
X90438Y109095D02*
X91406Y110063D01*
X73500Y70150D02*
X73896Y70546D01*
Y81578D01*
X122815Y66100D02*
X122815D01*
X123423Y65491D02*
X125588D01*
X122815Y66100D02*
X123423Y65491D01*
X115901Y73014D02*
X122815Y66100D01*
X135084Y63766D02*
X140166D01*
X126742Y55758D02*
Y63708D01*
X126684Y63766D02*
X126742Y63708D01*
Y55758D02*
X126800Y55700D01*
X125588Y65491D02*
X126684Y64395D01*
Y63766D02*
Y64395D01*
X136285Y55700D02*
X140400D01*
X30650Y221951D02*
Y228500D01*
Y221951D02*
X33000Y219601D01*
X22213Y208639D02*
X22966D01*
X24350Y210023D01*
X7000Y221500D02*
X11063D01*
X62500Y215500D02*
X63500Y214500D01*
X58305Y177205D02*
X58310Y177200D01*
X58300Y188900D02*
X58305Y188895D01*
Y177205D02*
Y188895D01*
X58300Y189529D02*
X59396Y190625D01*
X58300Y188900D02*
Y189529D01*
X66629Y189300D02*
X71500D01*
X84869Y192506D02*
X88156D01*
X93500Y197850D01*
X83900Y191537D02*
X84869Y192506D01*
X99500Y167650D02*
X101750Y169900D01*
X93500Y187850D02*
X101750D01*
X94500Y167650D02*
X99500D01*
X92300Y124532D02*
X96062Y120770D01*
X92300Y124532D02*
Y129500D01*
X99500Y126100D02*
X102400Y123200D01*
X52162Y176025D02*
Y182706D01*
X48200Y176600D02*
Y179937D01*
X48594Y172063D02*
X49562Y173031D01*
Y173425D02*
X52162Y176025D01*
X49562Y173031D02*
Y173425D01*
X45500Y186910D02*
X48106D01*
Y186763D02*
Y186910D01*
X45500D02*
X47441Y188851D01*
X48748D01*
X42100Y176700D02*
Y179837D01*
X139600Y120600D02*
Y124100D01*
X166631Y72269D02*
Y73659D01*
X165428Y74862D02*
X166631Y73659D01*
X163392Y74862D02*
X165428D01*
X163354Y74900D02*
X163392Y74862D01*
X175896Y71404D02*
Y74504D01*
X173000Y75100D02*
X175300D01*
X175896Y74504D01*
X172246Y80500D02*
X172300D01*
X164600Y80400D02*
X172146D01*
X172246Y80500D01*
X126570Y106816D02*
X133300D01*
X130200Y215600D02*
Y220000D01*
X72090Y177200D02*
Y185510D01*
X149200Y88200D02*
Y92300D01*
X156437Y113463D02*
X160300D01*
X130100Y120600D02*
Y124100D01*
X120800Y120500D02*
Y124100D01*
X16000Y153500D02*
X20063D01*
X102500Y135446D02*
X102600Y135346D01*
X102500Y135446D02*
Y135500D01*
X102600Y126818D02*
Y135346D01*
X153600Y129500D02*
X156400Y126700D01*
X164028D01*
X165200Y125528D01*
Y114200D02*
Y125528D01*
X102400Y119300D02*
Y123200D01*
X96062Y110101D02*
Y120770D01*
Y110101D02*
X96100Y110063D01*
X97540D01*
X99246Y108357D01*
X99300D01*
X111538Y115862D02*
Y119462D01*
X111500Y119500D02*
X111538Y119462D01*
X152100Y182567D02*
X153024Y183491D01*
X152100Y182400D02*
Y182567D01*
X169500Y86200D02*
Y95761D01*
X169513Y95774D01*
X165200Y114200D02*
X169513Y109887D01*
Y95774D02*
Y109887D01*
Y95774D02*
X174426D01*
X164600D02*
X169513D01*
X154289Y96267D02*
X156707D01*
X149856Y100700D02*
X154289Y96267D01*
X121662Y129362D02*
X121700Y129400D01*
X119062Y129362D02*
X121662D01*
X150100Y120526D02*
X159489D01*
X160300Y121337D01*
X48668Y124132D02*
X53000Y128463D01*
X48668Y123738D02*
Y124132D01*
X157200Y87900D02*
X164600D01*
X141200Y100700D02*
X147600D01*
X51672Y168494D02*
X58310Y175133D01*
X172670Y152500D02*
X176800D01*
X134075Y188275D02*
X137525D01*
X152900Y227900D02*
X157100D01*
X161400D02*
X165600D01*
X170000Y227800D02*
X174700D01*
X12500Y123500D02*
X17500D01*
X31851Y115369D02*
Y119192D01*
X6242Y113868D02*
X6284Y113827D01*
X6201Y123500D02*
X6242Y123459D01*
X40957Y117090D02*
Y123586D01*
X40805Y123738D02*
X40957Y123586D01*
X40805Y123738D02*
X48405D01*
X9948Y168637D02*
X18000Y176689D01*
Y176768D01*
X9948Y167948D02*
Y168637D01*
X7000Y165000D02*
X9948Y167948D01*
X20313Y176768D02*
X24844Y181299D01*
X31000D01*
X18000Y176768D02*
X20313D01*
D74*
X148934Y224294D02*
X149258D01*
X148127Y223487D02*
X148934Y224294D01*
X145687Y223487D02*
X148127D01*
X145400Y223200D02*
X145687Y223487D01*
X147828Y219500D02*
X152900D01*
X159752Y216786D02*
Y217942D01*
X150100Y216200D02*
X159166D01*
X161310Y219500D02*
X161400D01*
X152900D02*
X161400D01*
X159166Y216200D02*
X159752Y216786D01*
Y217942D02*
X161310Y219500D01*
X179593Y114744D02*
X180956D01*
X185168Y107632D02*
Y110532D01*
X177167Y117170D02*
X179593Y114744D01*
X185168Y107632D02*
X185900Y106900D01*
X180956Y114744D02*
X185168Y110532D01*
X112417Y72783D02*
X112547Y72913D01*
X110567Y74215D02*
Y76465D01*
X109110Y72758D02*
X110567Y74215D01*
X112547Y72913D02*
Y76476D01*
X114528Y74731D02*
Y76465D01*
Y74731D02*
X115901Y73358D01*
X114516Y76476D02*
X114528Y76465D01*
X99425Y61825D02*
X100200Y62600D01*
X87650Y154900D02*
X87700Y154850D01*
X120433Y103535D02*
Y104883D01*
X120541Y104991D02*
Y106541D01*
X120421Y103524D02*
X120433Y103535D01*
Y104883D02*
X120541Y104991D01*
X118441Y109011D02*
X119485Y110055D01*
X118441Y103535D02*
Y109011D01*
X122770Y105667D02*
Y106887D01*
X123100Y107217D02*
Y107400D01*
X122402Y103535D02*
Y105299D01*
X122770Y105667D01*
X122390Y103524D02*
X122402Y103535D01*
X122770Y106887D02*
X123100Y107217D01*
X118441Y103535D02*
X118453Y103524D01*
X49453Y161425D02*
X51142D01*
X51153Y161437D01*
X48302Y161302D02*
X49330D01*
X47496Y160496D02*
X48302Y161302D01*
X49330D02*
X49453Y161425D01*
X44512Y164165D02*
Y166242D01*
X44500Y164154D02*
X44512Y164165D01*
Y166242D02*
X45232Y166962D01*
X42531Y164154D02*
Y167108D01*
X51153Y159468D02*
X54331D01*
X54688Y159112D01*
X110567Y76465D02*
X110579Y76476D01*
X177167Y117170D02*
Y119727D01*
X175850Y121045D02*
X177167Y119727D01*
X175850Y121045D02*
Y121200D01*
X175750Y126691D02*
Y126900D01*
X270900Y294400D02*
Y299200D01*
X237900Y306700D02*
Y310550D01*
X311200Y297300D02*
Y301900D01*
X295500Y285000D02*
X300500D01*
X281600Y309800D02*
X286100D01*
X281400Y310000D02*
X281600Y309800D01*
X279150Y250300D02*
X283200D01*
X346200Y286550D02*
Y290500D01*
X297900Y343700D02*
X302750D01*
X145400Y219100D02*
Y220113D01*
X146955Y220600D02*
X147242Y220313D01*
X145400Y220600D02*
X146955D01*
X145400Y220113D02*
Y220600D01*
X147242Y220086D02*
X147828Y219500D01*
X147242Y220086D02*
Y220313D01*
X56533Y134828D02*
X56700D01*
X106738Y108562D02*
X108598Y106702D01*
X105738Y108562D02*
X106738D01*
X108598Y103535D02*
Y106702D01*
Y103535D02*
X108610Y103524D01*
X44500Y94000D02*
X44894Y94394D01*
Y102264D01*
X46468Y161035D02*
Y164154D01*
X47129Y160375D02*
X47375D01*
X46468Y161035D02*
X47129Y160375D01*
X152224Y214700D02*
X164444D01*
X150850Y210571D02*
Y213327D01*
X152224Y214700D01*
X147906Y214005D02*
X150100Y216200D01*
X147906Y210185D02*
Y214005D01*
X174881Y170669D02*
Y177819D01*
X150465Y202235D02*
X174881Y177819D01*
X110579Y76476D02*
Y85079D01*
X115500Y90000D01*
X111700Y124100D02*
X112700Y125100D01*
X84150Y58495D02*
X84370Y58715D01*
X84150Y54350D02*
X84200Y54300D01*
X44700Y207850D02*
X44775Y207925D01*
X48425D02*
X48500Y208000D01*
X142900Y46900D02*
Y47200D01*
X143200Y47500D02*
Y49550D01*
X142900Y47200D02*
X143200Y47500D01*
X34465Y87100D02*
Y93729D01*
X88419Y65306D02*
X90950Y67837D01*
X88270Y65306D02*
X88419D01*
X87684Y64720D02*
X88270Y65306D01*
X87684Y62715D02*
Y64720D01*
X90950Y67837D02*
Y68555D01*
X84100Y58900D02*
Y59175D01*
X86081Y61156D01*
X86125D02*
X87684Y62715D01*
X86081Y61156D02*
X86125D01*
X98600Y85000D02*
X98679Y85079D01*
X101976D01*
X140166Y63766D02*
X140200Y63800D01*
X66229Y188900D02*
X66629Y189300D01*
X34300Y158800D02*
X34969Y159468D01*
X37846D01*
X42000Y179937D02*
X42100Y179837D01*
X59651Y109400D02*
X60237Y108814D01*
Y107263D02*
X60300Y107200D01*
X60237Y107263D02*
Y108814D01*
X50100Y109400D02*
X59651D01*
X108610Y83110D02*
X110579Y85079D01*
X108610Y76476D02*
Y83110D01*
X106642Y81142D02*
X107500Y82000D01*
X106642Y76476D02*
Y81142D01*
X159271Y106917D02*
X159870Y106318D01*
X162014D02*
X162600Y105732D01*
Y103540D02*
X163186Y102954D01*
X164809D01*
X162600Y103540D02*
Y105732D01*
X164809Y102954D02*
X165668Y102094D01*
X159870Y106318D02*
X162014D01*
X125970Y100470D02*
Y101986D01*
X126327Y102342D02*
Y103524D01*
X123500Y98000D02*
X125970Y100470D01*
Y101986D02*
X126327Y102342D01*
X47496Y160400D02*
Y160496D01*
X37846Y161437D02*
X37858Y161425D01*
X39627D01*
X39972Y161080D02*
X39979D01*
X39627Y161425D02*
X39972Y161080D01*
X40024Y161035D02*
X40965D01*
X39979Y161080D02*
X40024Y161035D01*
X40965D02*
X41600Y160400D01*
X37858Y153575D02*
X39547D01*
X40698Y153698D02*
X41600Y154600D01*
X39547Y153575D02*
X39671Y153698D01*
X40698D01*
X37846Y153563D02*
X37858Y153575D01*
X38989Y98689D02*
Y105455D01*
X38900Y98600D02*
X38989Y98689D01*
X38981Y105463D02*
X38989Y105455D01*
X38743Y105463D02*
X38981D01*
X46870Y112630D02*
Y114559D01*
Y112630D02*
X50100Y109400D01*
X46863Y114567D02*
X46870Y114559D01*
X164444Y214700D02*
X169244Y219500D01*
X150465Y210185D02*
X150850Y210571D01*
X138309Y178300D02*
X166000D01*
X167055Y177244D01*
X137723Y177714D02*
X138309Y178300D01*
X137600Y173830D02*
X137723Y173953D01*
Y177714D01*
X167055Y174374D02*
X167600Y173830D01*
X167055Y174374D02*
Y177244D01*
X173727Y169679D02*
X173891D01*
X173548Y169500D02*
X173727Y169679D01*
X173891D02*
X174881Y170669D01*
X119485Y110055D02*
Y115700D01*
X124715Y105522D02*
X126009Y106816D01*
X124715Y105522D02*
Y105522D01*
X124358Y103524D02*
X124370Y103535D01*
Y105177D01*
X124715Y105522D01*
X175896Y71404D02*
X176100Y71200D01*
X174700Y87100D02*
X174804Y87204D01*
X165668Y99769D02*
Y102214D01*
X126009Y106816D02*
X126570D01*
X143200Y49550D02*
X144150Y50500D01*
X162417Y99319D02*
X162635Y99100D01*
X165000D01*
X165668Y99769D01*
X170060Y169500D02*
X173548D01*
X60069Y107431D02*
X60300Y107200D01*
X56951Y107431D02*
X60069D01*
X137600Y172117D02*
Y173830D01*
X35433Y112200D02*
X36252Y111381D01*
X35000Y112200D02*
X35433D01*
X36252Y111381D02*
X38730D01*
X38743Y111369D01*
X36094Y79400D02*
X39323D01*
X31115Y84380D02*
Y86985D01*
Y84380D02*
X36094Y79400D01*
X31000Y87100D02*
X31115Y86985D01*
X31605Y96588D02*
X34465Y93729D01*
X48847Y94016D02*
X52421D01*
X116484Y103524D02*
Y106606D01*
X139300Y100600D02*
X139600Y100300D01*
X135600Y100600D02*
X139300D01*
X131890Y96890D02*
X135600Y100600D01*
X129024Y96890D02*
X131890D01*
X172600Y152570D02*
X172670Y152500D01*
X137525Y188275D02*
X137600Y188200D01*
X134000Y188350D02*
X134075Y188275D01*
X46468Y150847D02*
Y153765D01*
X35199Y100183D02*
Y106632D01*
X35991Y107424D01*
X38735D01*
X66300Y63850D02*
X66300Y63850D01*
X142600Y152570D02*
Y158900D01*
X130300Y166600D02*
X130956D01*
X134900D02*
X142600Y158900D01*
X130956Y166600D02*
X134900D01*
X167600Y171960D02*
X170060Y169500D01*
X150465Y202235D02*
Y210185D01*
X135355Y208005D02*
Y209055D01*
X145400Y219100D01*
X134500Y207150D02*
X135355Y208005D01*
X161400Y219500D02*
X169244D01*
X169900D01*
X135614Y171258D02*
X136741D01*
X137600Y172117D01*
X130956Y166600D02*
X135614Y171258D01*
X167600Y171960D02*
Y173830D01*
X38735Y107424D02*
X38743Y107431D01*
X31605Y96588D02*
X35199Y100183D01*
X48823Y102272D02*
X48831Y102264D01*
X38743Y107431D02*
X44776D01*
X48823Y103385D01*
Y102272D02*
Y103385D01*
X38743Y107431D02*
Y109400D01*
X38750Y109408D02*
X39666D01*
X40957Y110699D02*
Y114567D01*
X39666Y109408D02*
X40957Y110699D01*
X38743Y109400D02*
X38750Y109408D01*
X40957Y114567D02*
Y117090D01*
D75*
X165372Y59000D02*
X167700D01*
X135707Y220637D02*
Y221292D01*
Y220637D02*
X135745Y220600D01*
X137300D01*
X134300Y222700D02*
X135707Y221292D01*
X292600Y290300D02*
Y294058D01*
X174763Y107463D02*
Y109963D01*
X174800Y110000D01*
X173400Y106100D02*
X174763Y107463D01*
X173400Y106000D02*
Y106100D01*
X22000Y200100D02*
Y203241D01*
X16149Y195300D02*
X20200D01*
X16130Y205555D02*
X16167Y205592D01*
X22000Y207867D02*
Y208359D01*
X16167Y205592D02*
X19726D01*
X175800Y61600D02*
X179700D01*
X153024Y183491D02*
Y186957D01*
X145423Y210262D02*
Y215223D01*
X69759Y195300D02*
X73200D01*
D76*
X37600Y174750D02*
Y188663D01*
X36136Y173285D02*
X37600Y174750D01*
X24785Y173285D02*
X36136D01*
X32699Y191411D02*
X33982Y190128D01*
X36136D02*
X37600Y188663D01*
X31000Y193701D02*
X32699D01*
Y191411D02*
Y193701D01*
X33982Y190128D02*
X36136D01*
X7200Y148872D02*
X17578Y159250D01*
X7200Y141151D02*
Y148872D01*
X27937Y153894D02*
X28655Y154612D01*
X30112D02*
X34300Y158800D01*
X28655Y154612D02*
X30112D01*
X20000Y160500D02*
Y164500D01*
X32000Y194701D02*
Y207199D01*
X20000Y160500D02*
X25888Y154612D01*
X27937Y153500D02*
Y153894D01*
X25888Y154612D02*
X27218D01*
X27937Y153894D01*
X20000Y164500D02*
Y168500D01*
X24785Y173285D01*
X31000Y193110D02*
Y193701D01*
X18750Y159250D02*
X20000Y160500D01*
X17578Y159250D02*
X18750D01*
X18030Y180281D02*
X18171D01*
X18000Y180232D02*
Y180252D01*
X18171Y180281D02*
X31000Y193110D01*
X18000Y180252D02*
X18030Y180281D01*
D77*
X90300Y3850D02*
X112450D01*
X112500Y3900D02*
Y22000D01*
X112450Y3850D02*
X112500Y3900D01*
D78*
X112400Y72766D02*
X112417Y72783D01*
X112400Y67432D02*
Y72766D01*
Y52432D02*
Y58200D01*
Y36600D02*
Y48968D01*
D79*
X282567Y216386D02*
X285496Y219315D01*
X282567Y208882D02*
Y216386D01*
X285496Y219315D02*
X299648D01*
X308900Y219200D02*
X309100Y219400D01*
X318900D01*
X337500Y207445D02*
X369500D01*
X304000D02*
X337500D01*
X308110Y30857D02*
X309300Y32047D01*
X307863Y30610D02*
X308110Y30857D01*
X340157D01*
X304000Y30610D02*
X307863D01*
X309300Y32047D02*
Y40200D01*
X281130Y207445D02*
X304000D01*
X237840Y206697D02*
X280382D01*
X281130Y207445D02*
X282567Y208882D01*
X280382Y206697D02*
X281130Y207445D01*
X236092Y206194D02*
X237033Y207135D01*
X340258Y30958D02*
X340408Y30808D01*
X374608D01*
X374758Y30658D01*
X235329Y31056D02*
X304000D01*
X340157Y30857D02*
X340258Y30958D01*
X237433Y112945D02*
Y124201D01*
X340258Y112848D02*
Y125848D01*
X340000Y126055D02*
X340200Y125855D01*
X270633Y112645D02*
X270733Y112745D01*
X304933Y112645D02*
Y125845D01*
X270733Y112745D02*
Y125945D01*
X374758Y112548D02*
Y125748D01*
X376158Y125848D02*
X376258Y125748D01*
D80*
X112400Y58268D02*
Y63968D01*
D81*
X112500Y22000D02*
Y36500D01*
D82*
X186100Y85600D02*
D03*
Y75600D02*
D03*
Y65600D02*
D03*
Y55600D02*
D03*
Y45600D02*
D03*
X123200Y141000D02*
D03*
X133200D02*
D03*
X143200D02*
D03*
X185900Y96900D02*
D03*
Y106900D02*
D03*
Y116900D02*
D03*
X171000Y20700D02*
D03*
X181000D02*
D03*
X191000D02*
D03*
X358300Y272100D02*
D03*
Y282100D02*
D03*
Y292100D02*
D03*
D83*
X186100Y35600D02*
D03*
X185900Y126900D02*
D03*
X358300Y302100D02*
D03*
D84*
X113200Y141000D02*
D03*
X161000Y20700D02*
D03*
D85*
X93500Y197850D02*
D03*
Y187850D02*
D03*
X167200Y141500D02*
D03*
X177200D02*
D03*
X67200Y101800D02*
D03*
Y111800D02*
D03*
X8000Y175000D02*
D03*
X308900Y219200D02*
D03*
X149700Y30500D02*
D03*
X358000Y326700D02*
D03*
D86*
X93500Y177850D02*
D03*
X67200Y121800D02*
D03*
X8000Y165000D02*
D03*
X149700Y20500D02*
D03*
X358000Y316700D02*
D03*
D87*
X157200Y141500D02*
D03*
X298900Y219200D02*
D03*
D88*
X5500Y186658D02*
D03*
Y214216D02*
D03*
D89*
X16130Y190594D02*
D03*
Y210279D02*
D03*
D90*
X235600Y17000D02*
D03*
X236100Y220400D02*
D03*
X381200D02*
D03*
X378500Y17000D02*
D03*
X358900Y342700D02*
D03*
X240900Y341700D02*
D03*
X358900Y253700D02*
D03*
X240900D02*
D03*
D91*
X115032Y198571D02*
D03*
X185898D02*
D03*
X185898Y220224D02*
D03*
X115032D02*
D03*
X185898Y176917D02*
D03*
X115032D02*
D03*
D92*
X212800Y228800D02*
D03*
X8700Y52900D02*
D03*
X213000Y7300D02*
D03*
D93*
X170257Y148633D02*
D03*
X175128Y40947D02*
D03*
X174700Y91300D02*
D03*
X149258Y224294D02*
D03*
X142600Y167700D02*
D03*
X110837Y132909D02*
D03*
X134040Y155921D02*
D03*
X71553Y133288D02*
D03*
X56700Y137656D02*
D03*
X32700Y137728D02*
D03*
X19000Y137528D02*
D03*
X90653Y157027D02*
D03*
X26900Y123800D02*
D03*
X59605Y120391D02*
D03*
X41600Y160400D02*
D03*
X47400D02*
D03*
X41600Y154600D02*
D03*
X47400D02*
D03*
X44500Y157500D02*
D03*
X107500Y82000D02*
D03*
X123500D02*
D03*
X118500D02*
D03*
X113000D02*
D03*
X123500Y87000D02*
D03*
X118500D02*
D03*
X113000D02*
D03*
X107500D02*
D03*
X123500Y92500D02*
D03*
X118500D02*
D03*
X113000D02*
D03*
X123500Y98000D02*
D03*
X118500D02*
D03*
X113000D02*
D03*
X60263Y91537D02*
D03*
X172800Y54300D02*
D03*
X203800Y121900D02*
D03*
X196800Y119200D02*
D03*
X194384Y59984D02*
D03*
X199000Y64510D02*
D03*
X190200Y121900D02*
D03*
X136282Y30551D02*
D03*
X132081Y32951D02*
D03*
X5500Y44500D02*
D03*
X3507Y39713D02*
D03*
X105500Y59500D02*
D03*
X136051Y44559D02*
D03*
X105664Y69552D02*
D03*
X109264Y67052D02*
D03*
X109347Y72135D02*
D03*
X109352Y49542D02*
D03*
X109333Y54512D02*
D03*
X120784Y47559D02*
D03*
X120950Y43082D02*
D03*
X115500Y49500D02*
D03*
X120616Y52649D02*
D03*
X120593Y57535D02*
D03*
X120612Y62567D02*
D03*
X115500Y54500D02*
D03*
Y59600D02*
D03*
X115392Y64520D02*
D03*
X115374Y69368D02*
D03*
X132174Y3168D02*
D03*
Y13168D02*
D03*
Y23168D02*
D03*
X132073Y38168D02*
D03*
Y28168D02*
D03*
Y18168D02*
D03*
Y8168D02*
D03*
X136074Y10568D02*
D03*
Y20568D02*
D03*
Y40568D02*
D03*
X136173Y35568D02*
D03*
Y25568D02*
D03*
Y15568D02*
D03*
Y5568D02*
D03*
X109373Y62068D02*
D03*
Y44468D02*
D03*
X105473Y44568D02*
D03*
X120880Y39485D02*
D03*
X116374Y39568D02*
D03*
X128574D02*
D03*
X125774D02*
D03*
X130573Y44568D02*
D03*
X125574D02*
D03*
X115574D02*
D03*
X108073Y39568D02*
D03*
X105573Y64568D02*
D03*
Y54568D02*
D03*
X103074Y49568D02*
D03*
Y39568D02*
D03*
X100574Y54568D02*
D03*
X98074Y49568D02*
D03*
X100574Y44568D02*
D03*
X98074Y39568D02*
D03*
X95574Y44568D02*
D03*
X93073Y39568D02*
D03*
X90574Y44568D02*
D03*
X88073Y39568D02*
D03*
X85574Y44568D02*
D03*
X83074Y39568D02*
D03*
X80573Y44568D02*
D03*
X78074Y39568D02*
D03*
X75573Y44568D02*
D03*
X73074Y39568D02*
D03*
X70574Y44568D02*
D03*
X68073Y39568D02*
D03*
X65574Y44568D02*
D03*
X63073Y39568D02*
D03*
X60574Y44568D02*
D03*
X58074Y39568D02*
D03*
X55573Y44568D02*
D03*
X53074Y39568D02*
D03*
X50573Y44568D02*
D03*
X48074Y39568D02*
D03*
X45573Y44568D02*
D03*
X43073Y39568D02*
D03*
X40573Y44568D02*
D03*
X38074Y39568D02*
D03*
X35574Y44568D02*
D03*
X33073Y39568D02*
D03*
X30573Y44568D02*
D03*
X28073Y39568D02*
D03*
X25574Y44568D02*
D03*
X23074Y39568D02*
D03*
X20573Y44568D02*
D03*
X18074Y39568D02*
D03*
X15574Y44568D02*
D03*
X13073Y39568D02*
D03*
X10573Y44568D02*
D03*
X8073Y39568D02*
D03*
X178000Y124400D02*
D03*
X93300Y132900D02*
D03*
X92800Y145100D02*
D03*
X173700Y116000D02*
D03*
X295400Y284900D02*
D03*
X286100Y309800D02*
D03*
X283200Y250300D02*
D03*
X292600Y289100D02*
D03*
X270800Y299300D02*
D03*
X311300Y297200D02*
D03*
X237900Y306700D02*
D03*
X297900Y343700D02*
D03*
X346200Y290500D02*
D03*
X26000Y137650D02*
D03*
X105700Y108600D02*
D03*
X92000Y114500D02*
D03*
X58400Y83000D02*
D03*
X49472Y88100D02*
D03*
X53063Y84337D02*
D03*
X64600Y88100D02*
D03*
X95942Y94800D02*
D03*
X142495Y88500D02*
D03*
X112700Y127509D02*
D03*
X84200Y54300D02*
D03*
X62700Y54600D02*
D03*
X48500Y208000D02*
D03*
X54000Y200900D02*
D03*
X22000Y200100D02*
D03*
X67100Y151700D02*
D03*
X21200Y195300D02*
D03*
X142900Y46900D02*
D03*
X96900Y88500D02*
D03*
X93700Y88200D02*
D03*
X88600Y94800D02*
D03*
X88700Y100000D02*
D03*
X95800D02*
D03*
X90164Y106400D02*
D03*
X93855Y106481D02*
D03*
X83500Y78100D02*
D03*
X90500Y78200D02*
D03*
X140200Y63800D02*
D03*
X140400Y55700D02*
D03*
X71500Y189300D02*
D03*
X92300Y129500D02*
D03*
X48200Y176600D02*
D03*
X42100Y176700D02*
D03*
X139600Y120600D02*
D03*
X164600Y80400D02*
D03*
X172300Y80500D02*
D03*
X130200Y215600D02*
D03*
X76500Y205000D02*
D03*
X72000Y185600D02*
D03*
X149200Y88200D02*
D03*
X100200Y64800D02*
D03*
X179700Y61600D02*
D03*
X173000Y75100D02*
D03*
X173400Y106000D02*
D03*
X162417Y99319D02*
D03*
X156400Y113500D02*
D03*
X130100Y120600D02*
D03*
X120800Y120500D02*
D03*
X16000Y153500D02*
D03*
X102500Y135500D02*
D03*
X102600Y126818D02*
D03*
X196800Y124800D02*
D03*
X153600Y129500D02*
D03*
X109000D02*
D03*
X102400Y119300D02*
D03*
X111500Y119500D02*
D03*
X152100Y182400D02*
D03*
X163354Y74900D02*
D03*
X169500Y86200D02*
D03*
X146400Y129400D02*
D03*
X128700D02*
D03*
X121700D02*
D03*
X99300Y108357D02*
D03*
X60300Y107200D02*
D03*
X35000Y112200D02*
D03*
X38900Y98600D02*
D03*
X48847Y94016D02*
D03*
X176800Y152500D02*
D03*
X137600Y188200D02*
D03*
X145500Y215300D02*
D03*
X157100Y227900D02*
D03*
X165600D02*
D03*
X174700Y227800D02*
D03*
X17500Y123500D02*
D03*
X31855Y119195D02*
D03*
X11500Y196500D02*
D03*
X73200Y195300D02*
D03*
X7000Y221500D02*
D03*
X62700Y60300D02*
D03*
D94*
X107500Y98000D02*
D03*
Y92500D02*
D03*
D95*
X318900Y219400D02*
D03*
X309300Y40200D02*
D03*
M02*
