G04*
G04 #@! TF.GenerationSoftware,Altium Limited,Altium Designer,22.3.1 (43)*
G04*
G04 Layer_Physical_Order=2*
G04 Layer_Color=16711680*
%FSLAX25Y25*%
%MOIN*%
G70*
G04*
G04 #@! TF.SameCoordinates,D24DD32C-06ED-42A8-9E91-4A9B2BA8F1A5*
G04*
G04*
G04 #@! TF.FilePolarity,Positive*
G04*
G01*
G75*
%ADD10C,0.00600*%
%ADD73C,0.02000*%
%ADD79C,0.05000*%
%ADD82C,0.06000*%
G04:AMPARAMS|DCode=83|XSize=60mil|YSize=60mil|CornerRadius=15mil|HoleSize=0mil|Usage=FLASHONLY|Rotation=270.000|XOffset=0mil|YOffset=0mil|HoleType=Round|Shape=RoundedRectangle|*
%AMROUNDEDRECTD83*
21,1,0.06000,0.03000,0,0,270.0*
21,1,0.03000,0.06000,0,0,270.0*
1,1,0.03000,-0.01500,-0.01500*
1,1,0.03000,-0.01500,0.01500*
1,1,0.03000,0.01500,0.01500*
1,1,0.03000,0.01500,-0.01500*
%
%ADD83ROUNDEDRECTD83*%
G04:AMPARAMS|DCode=84|XSize=60mil|YSize=60mil|CornerRadius=15mil|HoleSize=0mil|Usage=FLASHONLY|Rotation=180.000|XOffset=0mil|YOffset=0mil|HoleType=Round|Shape=RoundedRectangle|*
%AMROUNDEDRECTD84*
21,1,0.06000,0.03000,0,0,180.0*
21,1,0.03000,0.06000,0,0,180.0*
1,1,0.03000,-0.01500,0.01500*
1,1,0.03000,0.01500,0.01500*
1,1,0.03000,0.01500,-0.01500*
1,1,0.03000,-0.01500,-0.01500*
%
%ADD84ROUNDEDRECTD84*%
%ADD85C,0.06496*%
G04:AMPARAMS|DCode=86|XSize=64.96mil|YSize=64.96mil|CornerRadius=16.24mil|HoleSize=0mil|Usage=FLASHONLY|Rotation=90.000|XOffset=0mil|YOffset=0mil|HoleType=Round|Shape=RoundedRectangle|*
%AMROUNDEDRECTD86*
21,1,0.06496,0.03248,0,0,90.0*
21,1,0.03248,0.06496,0,0,90.0*
1,1,0.03248,0.01624,0.01624*
1,1,0.03248,0.01624,-0.01624*
1,1,0.03248,-0.01624,-0.01624*
1,1,0.03248,-0.01624,0.01624*
%
%ADD86ROUNDEDRECTD86*%
G04:AMPARAMS|DCode=87|XSize=64.96mil|YSize=64.96mil|CornerRadius=16.24mil|HoleSize=0mil|Usage=FLASHONLY|Rotation=0.000|XOffset=0mil|YOffset=0mil|HoleType=Round|Shape=RoundedRectangle|*
%AMROUNDEDRECTD87*
21,1,0.06496,0.03248,0,0,0.0*
21,1,0.03248,0.06496,0,0,0.0*
1,1,0.03248,0.01624,-0.01624*
1,1,0.03248,-0.01624,-0.01624*
1,1,0.03248,-0.01624,0.01624*
1,1,0.03248,0.01624,0.01624*
%
%ADD87ROUNDEDRECTD87*%
%ADD88O,0.06102X0.03200*%
%ADD89O,0.03200X0.05118*%
%ADD90C,0.07874*%
%ADD91C,0.18000*%
%ADD92C,0.10236*%
%ADD93C,0.02200*%
%ADD94C,0.02400*%
%ADD95C,0.05000*%
G36*
X364963Y245050D02*
X234963D01*
Y350550D01*
X364963D01*
Y245050D01*
D02*
G37*
G36*
X206300Y73700D02*
Y2000D01*
X131000D01*
Y38500D01*
X2000D01*
Y184322D01*
X2500Y184569D01*
X2738Y184386D01*
X3370Y184124D01*
X4049Y184035D01*
X5000D01*
Y186658D01*
Y189280D01*
X4049D01*
X3370Y189191D01*
X2738Y188929D01*
X2500Y188746D01*
X2000Y188993D01*
Y211881D01*
X2500Y212128D01*
X2738Y211945D01*
X3370Y211684D01*
X4049Y211594D01*
X5000D01*
Y214216D01*
Y216839D01*
X4049D01*
X3370Y216750D01*
X2738Y216488D01*
X2500Y216305D01*
X2000Y216552D01*
Y234000D01*
X206300D01*
Y73700D01*
D02*
G37*
%LPC*%
G36*
X359550Y347637D02*
X359400D01*
Y343200D01*
X363837D01*
Y343350D01*
X363501Y344606D01*
X362851Y345731D01*
X361931Y346651D01*
X360806Y347301D01*
X359550Y347637D01*
D02*
G37*
G36*
X358400D02*
X358250D01*
X356994Y347301D01*
X355869Y346651D01*
X354949Y345731D01*
X354299Y344606D01*
X353963Y343350D01*
Y343200D01*
X358400D01*
Y347637D01*
D02*
G37*
G36*
X241550Y346637D02*
X241400D01*
Y342200D01*
X245837D01*
Y342350D01*
X245501Y343606D01*
X244851Y344731D01*
X243931Y345651D01*
X242806Y346301D01*
X241550Y346637D01*
D02*
G37*
G36*
X240400D02*
X240250D01*
X238994Y346301D01*
X237869Y345651D01*
X236949Y344731D01*
X236299Y343606D01*
X235963Y342350D01*
Y342200D01*
X240400D01*
Y346637D01*
D02*
G37*
G36*
X363837Y342200D02*
X359400D01*
Y337763D01*
X359550D01*
X360806Y338099D01*
X361931Y338749D01*
X362851Y339669D01*
X363501Y340794D01*
X363837Y342050D01*
Y342200D01*
D02*
G37*
G36*
X358400D02*
X353963D01*
Y342050D01*
X354299Y340794D01*
X354949Y339669D01*
X355869Y338749D01*
X356994Y338099D01*
X358250Y337763D01*
X358400D01*
Y342200D01*
D02*
G37*
G36*
X245837Y341200D02*
X241400D01*
Y336763D01*
X241550D01*
X242806Y337099D01*
X243931Y337749D01*
X244851Y338669D01*
X245501Y339794D01*
X245837Y341050D01*
Y341200D01*
D02*
G37*
G36*
X240400D02*
X235963D01*
Y341050D01*
X236299Y339794D01*
X236949Y338669D01*
X237869Y337749D01*
X238994Y337099D01*
X240250Y336763D01*
X240400D01*
Y341200D01*
D02*
G37*
G36*
X358559Y330948D02*
X358500D01*
Y327200D01*
X362248D01*
Y327259D01*
X361959Y328340D01*
X361399Y329308D01*
X360608Y330099D01*
X359640Y330659D01*
X358559Y330948D01*
D02*
G37*
G36*
X357500D02*
X357441D01*
X356360Y330659D01*
X355392Y330099D01*
X354601Y329308D01*
X354042Y328340D01*
X353752Y327259D01*
Y327200D01*
X357500D01*
Y330948D01*
D02*
G37*
G36*
X362248Y326200D02*
X358500D01*
Y322452D01*
X358559D01*
X359640Y322742D01*
X360608Y323301D01*
X361399Y324092D01*
X361959Y325060D01*
X362248Y326141D01*
Y326200D01*
D02*
G37*
G36*
X357500D02*
X353752D01*
Y326141D01*
X354042Y325060D01*
X354601Y324092D01*
X355392Y323301D01*
X356360Y322742D01*
X357441Y322452D01*
X357500D01*
Y326200D01*
D02*
G37*
G36*
X359624Y320592D02*
X356376D01*
X355508Y320419D01*
X354773Y319927D01*
X354281Y319192D01*
X354108Y318324D01*
Y315076D01*
X354281Y314208D01*
X354773Y313473D01*
X355508Y312981D01*
X356376Y312808D01*
X359624D01*
X360492Y312981D01*
X361227Y313473D01*
X361719Y314208D01*
X361892Y315076D01*
Y318324D01*
X361719Y319192D01*
X361227Y319927D01*
X360492Y320419D01*
X359624Y320592D01*
D02*
G37*
G36*
X359800Y305741D02*
X356800D01*
X355981Y305578D01*
X355286Y305114D01*
X354822Y304419D01*
X354659Y303600D01*
Y300600D01*
X354822Y299781D01*
X355286Y299086D01*
X355981Y298622D01*
X356800Y298459D01*
X359800D01*
X360619Y298622D01*
X361314Y299086D01*
X361778Y299781D01*
X361941Y300600D01*
Y303600D01*
X361778Y304419D01*
X361314Y305114D01*
X360619Y305578D01*
X359800Y305741D01*
D02*
G37*
G36*
X358774Y295700D02*
X357826D01*
X356910Y295455D01*
X356090Y294981D01*
X355419Y294310D01*
X354945Y293490D01*
X354700Y292574D01*
Y291626D01*
X354945Y290710D01*
X355419Y289890D01*
X356090Y289219D01*
X356910Y288745D01*
X357826Y288500D01*
X358774D01*
X359690Y288745D01*
X360510Y289219D01*
X361181Y289890D01*
X361655Y290710D01*
X361900Y291626D01*
Y292574D01*
X361655Y293490D01*
X361181Y294310D01*
X360510Y294981D01*
X359690Y295455D01*
X358774Y295700D01*
D02*
G37*
G36*
Y285700D02*
X357826D01*
X356910Y285455D01*
X356090Y284981D01*
X355419Y284310D01*
X354945Y283490D01*
X354700Y282574D01*
Y281626D01*
X354945Y280710D01*
X355419Y279890D01*
X356090Y279219D01*
X356910Y278745D01*
X357826Y278500D01*
X358774D01*
X359690Y278745D01*
X360510Y279219D01*
X361181Y279890D01*
X361655Y280710D01*
X361900Y281626D01*
Y282574D01*
X361655Y283490D01*
X361181Y284310D01*
X360510Y284981D01*
X359690Y285455D01*
X358774Y285700D01*
D02*
G37*
G36*
Y275700D02*
X357826D01*
X356910Y275455D01*
X356090Y274981D01*
X355419Y274310D01*
X354945Y273490D01*
X354700Y272574D01*
Y271626D01*
X354945Y270710D01*
X355419Y269890D01*
X356090Y269219D01*
X356910Y268745D01*
X357826Y268500D01*
X358774D01*
X359690Y268745D01*
X360510Y269219D01*
X361181Y269890D01*
X361655Y270710D01*
X361900Y271626D01*
Y272574D01*
X361655Y273490D01*
X361181Y274310D01*
X360510Y274981D01*
X359690Y275455D01*
X358774Y275700D01*
D02*
G37*
G36*
X359550Y258637D02*
X359400D01*
Y254200D01*
X363837D01*
Y254350D01*
X363501Y255606D01*
X362851Y256731D01*
X361931Y257651D01*
X360806Y258301D01*
X359550Y258637D01*
D02*
G37*
G36*
X358400D02*
X358250D01*
X356994Y258301D01*
X355869Y257651D01*
X354949Y256731D01*
X354299Y255606D01*
X353963Y254350D01*
Y254200D01*
X358400D01*
Y258637D01*
D02*
G37*
G36*
X241550D02*
X241400D01*
Y254200D01*
X245837D01*
Y254350D01*
X245501Y255606D01*
X244851Y256731D01*
X243931Y257651D01*
X242806Y258301D01*
X241550Y258637D01*
D02*
G37*
G36*
X240400D02*
X240250D01*
X238994Y258301D01*
X237869Y257651D01*
X236949Y256731D01*
X236299Y255606D01*
X235963Y254350D01*
Y254200D01*
X240400D01*
Y258637D01*
D02*
G37*
G36*
X363837Y253200D02*
X359400D01*
Y248763D01*
X359550D01*
X360806Y249099D01*
X361931Y249749D01*
X362851Y250669D01*
X363501Y251794D01*
X363837Y253050D01*
Y253200D01*
D02*
G37*
G36*
X358400D02*
X353963D01*
Y253050D01*
X354299Y251794D01*
X354949Y250669D01*
X355869Y249749D01*
X356994Y249099D01*
X358250Y248763D01*
X358400D01*
Y253200D01*
D02*
G37*
G36*
X245837D02*
X241400D01*
Y248763D01*
X241550D01*
X242806Y249099D01*
X243931Y249749D01*
X244851Y250669D01*
X245501Y251794D01*
X245837Y253050D01*
Y253200D01*
D02*
G37*
G36*
X240400D02*
X235963D01*
Y253050D01*
X236299Y251794D01*
X236949Y250669D01*
X237869Y249749D01*
X238994Y249099D01*
X240250Y248763D01*
X240400D01*
Y253200D01*
D02*
G37*
G36*
X186882Y230224D02*
X186398D01*
Y220724D01*
X195898D01*
Y221209D01*
X195513Y223141D01*
X194760Y224961D01*
X193665Y226599D01*
X192272Y227992D01*
X190634Y229086D01*
X188814Y229840D01*
X186882Y230224D01*
D02*
G37*
G36*
X185398D02*
X184913D01*
X182981Y229840D01*
X181161Y229086D01*
X179523Y227992D01*
X178130Y226599D01*
X177036Y224961D01*
X176282Y223141D01*
X175898Y221209D01*
Y220724D01*
X185398D01*
Y230224D01*
D02*
G37*
G36*
X116016D02*
X115532D01*
Y220724D01*
X125031D01*
Y221209D01*
X124647Y223141D01*
X123893Y224961D01*
X122799Y226599D01*
X121406Y227992D01*
X119768Y229086D01*
X117948Y229840D01*
X116016Y230224D01*
D02*
G37*
G36*
X114532D02*
X114047D01*
X112115Y229840D01*
X110295Y229086D01*
X108657Y227992D01*
X107264Y226599D01*
X106170Y224961D01*
X105416Y223141D01*
X105032Y221209D01*
Y220724D01*
X114532D01*
Y230224D01*
D02*
G37*
G36*
X6951Y216839D02*
X6000D01*
Y214717D01*
X9508D01*
X9484Y214895D01*
X9222Y215528D01*
X8805Y216071D01*
X8262Y216488D01*
X7630Y216750D01*
X6951Y216839D01*
D02*
G37*
G36*
X9508Y213717D02*
X6000D01*
Y211594D01*
X6951D01*
X7630Y211684D01*
X8262Y211945D01*
X8805Y212362D01*
X9222Y212905D01*
X9484Y213538D01*
X9508Y213717D01*
D02*
G37*
G36*
X16630Y213795D02*
Y210780D01*
X18752D01*
Y211239D01*
X18663Y211917D01*
X18401Y212550D01*
X17984Y213093D01*
X17441Y213510D01*
X16809Y213772D01*
X16630Y213795D01*
D02*
G37*
G36*
X15630D02*
X15451Y213772D01*
X14819Y213510D01*
X14276Y213093D01*
X13859Y212550D01*
X13597Y211917D01*
X13508Y211239D01*
Y210780D01*
X15630D01*
Y213795D01*
D02*
G37*
G36*
X195898Y219724D02*
X186398D01*
Y210224D01*
X186882D01*
X188814Y210609D01*
X190634Y211363D01*
X192272Y212457D01*
X193665Y213850D01*
X194760Y215488D01*
X195513Y217307D01*
X195898Y219239D01*
Y219724D01*
D02*
G37*
G36*
X185398D02*
X175898D01*
Y219239D01*
X176282Y217307D01*
X177036Y215488D01*
X178130Y213850D01*
X179523Y212457D01*
X181161Y211363D01*
X182981Y210609D01*
X184913Y210224D01*
X185398D01*
Y219724D01*
D02*
G37*
G36*
X125031D02*
X115532D01*
Y210224D01*
X116016D01*
X117948Y210609D01*
X119768Y211363D01*
X121406Y212457D01*
X122799Y213850D01*
X123893Y215488D01*
X124647Y217307D01*
X125031Y219239D01*
Y219724D01*
D02*
G37*
G36*
X114532D02*
X105032D01*
Y219239D01*
X105416Y217307D01*
X106170Y215488D01*
X107264Y213850D01*
X108657Y212457D01*
X110295Y211363D01*
X112115Y210609D01*
X114047Y210224D01*
X114532D01*
Y219724D01*
D02*
G37*
G36*
X18752Y209780D02*
X16630D01*
Y206764D01*
X16809Y206787D01*
X17441Y207049D01*
X17984Y207466D01*
X18401Y208009D01*
X18663Y208642D01*
X18752Y209320D01*
Y209780D01*
D02*
G37*
G36*
X15630D02*
X13508D01*
Y209320D01*
X13597Y208642D01*
X13859Y208009D01*
X14276Y207466D01*
X14819Y207049D01*
X15451Y206787D01*
X15630Y206764D01*
Y209780D01*
D02*
G37*
G36*
X186882Y208571D02*
X186398D01*
Y199071D01*
X195898D01*
Y199556D01*
X195513Y201488D01*
X194760Y203308D01*
X193665Y204945D01*
X192272Y206338D01*
X190634Y207433D01*
X188814Y208187D01*
X186882Y208571D01*
D02*
G37*
G36*
X185398D02*
X184913D01*
X182981Y208187D01*
X181161Y207433D01*
X179523Y206338D01*
X178130Y204945D01*
X177036Y203308D01*
X176282Y201488D01*
X175898Y199556D01*
Y199071D01*
X185398D01*
Y208571D01*
D02*
G37*
G36*
X116016D02*
X115532D01*
Y199071D01*
X125031D01*
Y199556D01*
X124647Y201488D01*
X123893Y203308D01*
X122799Y204945D01*
X121406Y206338D01*
X119768Y207433D01*
X117948Y208187D01*
X116016Y208571D01*
D02*
G37*
G36*
X114532D02*
X114047D01*
X112115Y208187D01*
X110295Y207433D01*
X108657Y206338D01*
X107264Y204945D01*
X106170Y203308D01*
X105416Y201488D01*
X105032Y199556D01*
Y199071D01*
X114532D01*
Y208571D01*
D02*
G37*
G36*
X94007Y201698D02*
X92993D01*
X92015Y201436D01*
X91137Y200929D01*
X90421Y200213D01*
X89914Y199335D01*
X89652Y198357D01*
Y197343D01*
X89914Y196365D01*
X90421Y195487D01*
X91137Y194771D01*
X92015Y194264D01*
X92993Y194002D01*
X94007D01*
X94985Y194264D01*
X95863Y194771D01*
X96579Y195487D01*
X97086Y196365D01*
X97348Y197343D01*
Y198357D01*
X97086Y199335D01*
X96579Y200213D01*
X95863Y200929D01*
X94985Y201436D01*
X94007Y201698D01*
D02*
G37*
G36*
X16630Y194110D02*
Y191095D01*
X18752D01*
Y191553D01*
X18663Y192232D01*
X18401Y192865D01*
X17984Y193408D01*
X17441Y193825D01*
X16809Y194087D01*
X16630Y194110D01*
D02*
G37*
G36*
X15630D02*
X15451Y194087D01*
X14819Y193825D01*
X14276Y193408D01*
X13859Y192865D01*
X13597Y192232D01*
X13508Y191553D01*
Y191095D01*
X15630D01*
Y194110D01*
D02*
G37*
G36*
X195898Y198071D02*
X186398D01*
Y188571D01*
X186882D01*
X188814Y188955D01*
X190634Y189709D01*
X192272Y190803D01*
X193665Y192196D01*
X194760Y193834D01*
X195513Y195654D01*
X195898Y197586D01*
Y198071D01*
D02*
G37*
G36*
X185398D02*
X175898D01*
Y197586D01*
X176282Y195654D01*
X177036Y193834D01*
X178130Y192196D01*
X179523Y190803D01*
X181161Y189709D01*
X182981Y188955D01*
X184913Y188571D01*
X185398D01*
Y198071D01*
D02*
G37*
G36*
X125031D02*
X115532D01*
Y188571D01*
X116016D01*
X117948Y188955D01*
X119768Y189709D01*
X121406Y190803D01*
X122799Y192196D01*
X123893Y193834D01*
X124647Y195654D01*
X125031Y197586D01*
Y198071D01*
D02*
G37*
G36*
X114532D02*
X105032D01*
Y197586D01*
X105416Y195654D01*
X106170Y193834D01*
X107264Y192196D01*
X108657Y190803D01*
X110295Y189709D01*
X112115Y188955D01*
X114047Y188571D01*
X114532D01*
Y198071D01*
D02*
G37*
G36*
X6951Y189280D02*
X6000D01*
Y187157D01*
X9508D01*
X9484Y187336D01*
X9222Y187969D01*
X8805Y188512D01*
X8262Y188929D01*
X7630Y189191D01*
X6951Y189280D01*
D02*
G37*
G36*
X18752Y190094D02*
X16630D01*
Y187079D01*
X16809Y187102D01*
X17441Y187364D01*
X17984Y187781D01*
X18401Y188324D01*
X18663Y188957D01*
X18752Y189635D01*
Y190094D01*
D02*
G37*
G36*
X15630D02*
X13508D01*
Y189635D01*
X13597Y188957D01*
X13859Y188324D01*
X14276Y187781D01*
X14819Y187364D01*
X15451Y187102D01*
X15630Y187079D01*
Y190094D01*
D02*
G37*
G36*
X9508Y186158D02*
X6000D01*
Y184035D01*
X6951D01*
X7630Y184124D01*
X8262Y184386D01*
X8805Y184803D01*
X9222Y185346D01*
X9484Y185979D01*
X9508Y186158D01*
D02*
G37*
G36*
X94007Y191698D02*
X92993D01*
X92015Y191436D01*
X91137Y190929D01*
X90421Y190213D01*
X89914Y189335D01*
X89652Y188357D01*
Y187343D01*
X89914Y186365D01*
X90421Y185487D01*
X91137Y184771D01*
X92015Y184264D01*
X92993Y184002D01*
X94007D01*
X94985Y184264D01*
X95863Y184771D01*
X96579Y185487D01*
X97086Y186365D01*
X97348Y187343D01*
Y188357D01*
X97086Y189335D01*
X96579Y190213D01*
X95863Y190929D01*
X94985Y191436D01*
X94007Y191698D01*
D02*
G37*
G36*
X186882Y186917D02*
X186398D01*
Y177417D01*
X195898D01*
Y177902D01*
X195513Y179834D01*
X194760Y181654D01*
X193665Y183292D01*
X192272Y184685D01*
X190634Y185779D01*
X188814Y186533D01*
X186882Y186917D01*
D02*
G37*
G36*
X185398D02*
X184913D01*
X182981Y186533D01*
X181161Y185779D01*
X179523Y184685D01*
X178130Y183292D01*
X177036Y181654D01*
X176282Y179834D01*
X175898Y177902D01*
Y177417D01*
X185398D01*
Y186917D01*
D02*
G37*
G36*
X116016D02*
X115532D01*
Y177417D01*
X125031D01*
Y177902D01*
X124647Y179834D01*
X123893Y181654D01*
X122799Y183292D01*
X121406Y184685D01*
X119768Y185779D01*
X117948Y186533D01*
X116016Y186917D01*
D02*
G37*
G36*
X114532D02*
X114047D01*
X112115Y186533D01*
X110295Y185779D01*
X108657Y184685D01*
X107264Y183292D01*
X106170Y181654D01*
X105416Y179834D01*
X105032Y177902D01*
Y177417D01*
X114532D01*
Y186917D01*
D02*
G37*
G36*
X8559Y179248D02*
X8500D01*
Y175500D01*
X12248D01*
Y175559D01*
X11958Y176640D01*
X11399Y177608D01*
X10608Y178399D01*
X9640Y178958D01*
X8559Y179248D01*
D02*
G37*
G36*
X7500D02*
X7441D01*
X6360Y178958D01*
X5392Y178399D01*
X4601Y177608D01*
X4042Y176640D01*
X3752Y175559D01*
Y175500D01*
X7500D01*
Y179248D01*
D02*
G37*
G36*
X95124Y181742D02*
X91876D01*
X91008Y181569D01*
X90273Y181077D01*
X89781Y180342D01*
X89608Y179474D01*
Y176226D01*
X89781Y175358D01*
X90273Y174623D01*
X91008Y174131D01*
X91876Y173958D01*
X95124D01*
X95992Y174131D01*
X96727Y174623D01*
X97219Y175358D01*
X97392Y176226D01*
Y179474D01*
X97219Y180342D01*
X96727Y181077D01*
X95992Y181569D01*
X95124Y181742D01*
D02*
G37*
G36*
X12248Y174500D02*
X8500D01*
Y170752D01*
X8559D01*
X9640Y171042D01*
X10608Y171601D01*
X11399Y172392D01*
X11958Y173360D01*
X12248Y174441D01*
Y174500D01*
D02*
G37*
G36*
X7500D02*
X3752D01*
Y174441D01*
X4042Y173360D01*
X4601Y172392D01*
X5392Y171601D01*
X6360Y171042D01*
X7441Y170752D01*
X7500D01*
Y174500D01*
D02*
G37*
G36*
X195898Y176417D02*
X186398D01*
Y166917D01*
X186882D01*
X188814Y167302D01*
X190634Y168055D01*
X192272Y169150D01*
X193665Y170543D01*
X194760Y172180D01*
X195513Y174000D01*
X195898Y175932D01*
Y176417D01*
D02*
G37*
G36*
X185398D02*
X175898D01*
Y175932D01*
X176282Y174000D01*
X177036Y172180D01*
X178130Y170543D01*
X179523Y169150D01*
X181161Y168055D01*
X182981Y167302D01*
X184913Y166917D01*
X185398D01*
Y176417D01*
D02*
G37*
G36*
X125031D02*
X115532D01*
Y166917D01*
X116016D01*
X117948Y167302D01*
X119768Y168055D01*
X121406Y169150D01*
X122799Y170543D01*
X123893Y172180D01*
X124647Y174000D01*
X125031Y175932D01*
Y176417D01*
D02*
G37*
G36*
X114532D02*
X105032D01*
Y175932D01*
X105416Y174000D01*
X106170Y172180D01*
X107264Y170543D01*
X108657Y169150D01*
X110295Y168055D01*
X112115Y167302D01*
X114047Y166917D01*
X114532D01*
Y176417D01*
D02*
G37*
G36*
X9624Y168892D02*
X6376D01*
X5508Y168719D01*
X4773Y168227D01*
X4281Y167492D01*
X4108Y166624D01*
Y163376D01*
X4281Y162508D01*
X4773Y161773D01*
X5508Y161281D01*
X6376Y161108D01*
X9624D01*
X10492Y161281D01*
X11227Y161773D01*
X11719Y162508D01*
X11892Y163376D01*
Y166624D01*
X11719Y167492D01*
X11227Y168227D01*
X10492Y168719D01*
X9624Y168892D01*
D02*
G37*
G36*
X143727Y145000D02*
X143700D01*
Y141500D01*
X147200D01*
Y141527D01*
X146927Y142544D01*
X146401Y143456D01*
X145656Y144201D01*
X144744Y144727D01*
X143727Y145000D01*
D02*
G37*
G36*
X142700D02*
X142673D01*
X141656Y144727D01*
X140744Y144201D01*
X139999Y143456D01*
X139473Y142544D01*
X139200Y141527D01*
Y141500D01*
X142700D01*
Y145000D01*
D02*
G37*
G36*
X177707Y145348D02*
X176693D01*
X175715Y145086D01*
X174837Y144579D01*
X174121Y143863D01*
X173614Y142985D01*
X173352Y142007D01*
Y140993D01*
X173614Y140015D01*
X174121Y139137D01*
X174837Y138421D01*
X175715Y137914D01*
X176693Y137652D01*
X177707D01*
X178685Y137914D01*
X179563Y138421D01*
X180279Y139137D01*
X180786Y140015D01*
X181048Y140993D01*
Y142007D01*
X180786Y142985D01*
X180279Y143863D01*
X179563Y144579D01*
X178685Y145086D01*
X177707Y145348D01*
D02*
G37*
G36*
X167707D02*
X166693D01*
X165715Y145086D01*
X164837Y144579D01*
X164121Y143863D01*
X163614Y142985D01*
X163352Y142007D01*
Y140993D01*
X163614Y140015D01*
X164121Y139137D01*
X164837Y138421D01*
X165715Y137914D01*
X166693Y137652D01*
X167707D01*
X168685Y137914D01*
X169563Y138421D01*
X170279Y139137D01*
X170786Y140015D01*
X171048Y140993D01*
Y142007D01*
X170786Y142985D01*
X170279Y143863D01*
X169563Y144579D01*
X168685Y145086D01*
X167707Y145348D01*
D02*
G37*
G36*
X158824Y145392D02*
X155576D01*
X154708Y145219D01*
X153973Y144727D01*
X153481Y143992D01*
X153308Y143124D01*
Y139876D01*
X153481Y139008D01*
X153973Y138273D01*
X154708Y137781D01*
X155576Y137608D01*
X158824D01*
X159692Y137781D01*
X160427Y138273D01*
X160919Y139008D01*
X161092Y139876D01*
Y143124D01*
X160919Y143992D01*
X160427Y144727D01*
X159692Y145219D01*
X158824Y145392D01*
D02*
G37*
G36*
X133674Y144600D02*
X132726D01*
X131810Y144355D01*
X130990Y143881D01*
X130319Y143210D01*
X129845Y142390D01*
X129600Y141474D01*
Y140526D01*
X129845Y139610D01*
X130319Y138790D01*
X130990Y138119D01*
X131810Y137645D01*
X132726Y137400D01*
X133674D01*
X134590Y137645D01*
X135410Y138119D01*
X136081Y138790D01*
X136555Y139610D01*
X136800Y140526D01*
Y141474D01*
X136555Y142390D01*
X136081Y143210D01*
X135410Y143881D01*
X134590Y144355D01*
X133674Y144600D01*
D02*
G37*
G36*
X123674D02*
X122726D01*
X121810Y144355D01*
X120990Y143881D01*
X120319Y143210D01*
X119845Y142390D01*
X119600Y141474D01*
Y140526D01*
X119845Y139610D01*
X120319Y138790D01*
X120990Y138119D01*
X121810Y137645D01*
X122726Y137400D01*
X123674D01*
X124590Y137645D01*
X125410Y138119D01*
X126081Y138790D01*
X126555Y139610D01*
X126800Y140526D01*
Y141474D01*
X126555Y142390D01*
X126081Y143210D01*
X125410Y143881D01*
X124590Y144355D01*
X123674Y144600D01*
D02*
G37*
G36*
X114700Y144641D02*
X111700D01*
X110881Y144478D01*
X110186Y144014D01*
X109722Y143319D01*
X109559Y142500D01*
Y139500D01*
X109722Y138681D01*
X110186Y137986D01*
X110881Y137522D01*
X111700Y137359D01*
X114700D01*
X115519Y137522D01*
X116214Y137986D01*
X116678Y138681D01*
X116841Y139500D01*
Y142500D01*
X116678Y143319D01*
X116214Y144014D01*
X115519Y144478D01*
X114700Y144641D01*
D02*
G37*
G36*
X147200Y140500D02*
X143700D01*
Y137000D01*
X143727D01*
X144744Y137273D01*
X145656Y137799D01*
X146401Y138544D01*
X146927Y139456D01*
X147200Y140473D01*
Y140500D01*
D02*
G37*
G36*
X142700D02*
X139200D01*
Y140473D01*
X139473Y139456D01*
X139999Y138544D01*
X140744Y137799D01*
X141656Y137273D01*
X142673Y137000D01*
X142700D01*
Y140500D01*
D02*
G37*
G36*
X111176Y134609D02*
X110499D01*
X109874Y134350D01*
X109396Y133872D01*
X109377Y133827D01*
X94756D01*
X94741Y133863D01*
X94263Y134341D01*
X93638Y134600D01*
X92962D01*
X92337Y134341D01*
X91859Y133863D01*
X91600Y133238D01*
Y132562D01*
X91859Y131937D01*
X92096Y131700D01*
X92019Y131414D01*
X91910Y131179D01*
X91337Y130941D01*
X90859Y130463D01*
X90600Y129838D01*
Y129162D01*
X90859Y128537D01*
X91337Y128059D01*
X91962Y127800D01*
X92638D01*
X92848Y127887D01*
X108452D01*
X108662Y127800D01*
X109338D01*
X109963Y128059D01*
X110441Y128537D01*
X110700Y129162D01*
Y129838D01*
X110441Y130463D01*
X110363Y130541D01*
X110051Y130854D01*
X110334Y131277D01*
D01*
X110499Y131209D01*
X111176D01*
X111800Y131468D01*
X112278Y131946D01*
X112537Y132571D01*
Y133247D01*
X112278Y133872D01*
X111800Y134350D01*
X111176Y134609D01*
D02*
G37*
G36*
X153938Y131200D02*
X153262D01*
X152855Y131031D01*
X146904D01*
X146738Y131100D01*
X146062D01*
X145437Y130841D01*
X144959Y130363D01*
X144700Y129738D01*
Y129062D01*
X144959Y128437D01*
X145437Y127959D01*
X146062Y127700D01*
X146738D01*
X146904Y127769D01*
X153446D01*
X153603Y127800D01*
X153938D01*
X154563Y128059D01*
X155041Y128537D01*
X155300Y129162D01*
Y129838D01*
X155041Y130463D01*
X154563Y130941D01*
X153938Y131200D01*
D02*
G37*
G36*
X129038Y131100D02*
X128362D01*
X128196Y131031D01*
X122204D01*
X122038Y131100D01*
X121362D01*
X120737Y130841D01*
X120259Y130363D01*
X120000Y129738D01*
Y129062D01*
X120259Y128437D01*
X120737Y127959D01*
X121362Y127700D01*
X122038D01*
X122204Y127769D01*
X128196D01*
X128362Y127700D01*
X129038D01*
X129663Y127959D01*
X130141Y128437D01*
X130400Y129062D01*
Y129738D01*
X130141Y130363D01*
X129663Y130841D01*
X129038Y131100D01*
D02*
G37*
G36*
X204138Y123600D02*
X203462D01*
X203296Y123531D01*
X190704D01*
X190538Y123600D01*
X189862D01*
X189237Y123341D01*
X188759Y122863D01*
X188500Y122238D01*
Y121562D01*
X188759Y120937D01*
X189237Y120459D01*
X189862Y120200D01*
X190538D01*
X190704Y120269D01*
X203296D01*
X203462Y120200D01*
X204138D01*
X204763Y120459D01*
X205241Y120937D01*
X205500Y121562D01*
Y122238D01*
X205241Y122863D01*
X204763Y123341D01*
X204138Y123600D01*
D02*
G37*
G36*
X187400Y130541D02*
X184400D01*
X183581Y130378D01*
X182886Y129914D01*
X182422Y129219D01*
X182259Y128400D01*
Y125400D01*
X182422Y124581D01*
X182886Y123886D01*
X183581Y123422D01*
X184400Y123259D01*
X187400D01*
X188219Y123422D01*
X188914Y123886D01*
X189378Y124581D01*
X189541Y125400D01*
Y128400D01*
X189378Y129219D01*
X188914Y129914D01*
X188219Y130378D01*
X187400Y130541D01*
D02*
G37*
G36*
X111838Y121200D02*
X111162D01*
X110537Y120941D01*
X110527Y120931D01*
X102904D01*
X102738Y121000D01*
X102062D01*
X101437Y120741D01*
X100959Y120263D01*
X100700Y119638D01*
Y118962D01*
X100959Y118337D01*
X101437Y117859D01*
X102062Y117600D01*
X102738D01*
X102904Y117669D01*
X111246D01*
X111870Y117793D01*
X111951Y117847D01*
X112463Y118059D01*
X112941Y118537D01*
X113200Y119162D01*
Y119838D01*
X112941Y120463D01*
X112463Y120941D01*
X111838Y121200D01*
D02*
G37*
G36*
X68824Y125692D02*
X65576D01*
X64708Y125519D01*
X63973Y125027D01*
X63481Y124292D01*
X63308Y123424D01*
Y120176D01*
X63481Y119308D01*
X63973Y118573D01*
X64708Y118081D01*
X65576Y117908D01*
X68824D01*
X69692Y118081D01*
X70427Y118573D01*
X70919Y119308D01*
X71092Y120176D01*
Y123424D01*
X70919Y124292D01*
X70427Y125027D01*
X69692Y125519D01*
X68824Y125692D01*
D02*
G37*
G36*
X186374Y120500D02*
X185426D01*
X184510Y120255D01*
X183690Y119781D01*
X183019Y119110D01*
X182545Y118290D01*
X182300Y117374D01*
Y116426D01*
X182545Y115510D01*
X183019Y114690D01*
X183690Y114019D01*
X184510Y113545D01*
X185426Y113300D01*
X186374D01*
X187290Y113545D01*
X188110Y114019D01*
X188781Y114690D01*
X189255Y115510D01*
X189500Y116426D01*
Y117374D01*
X189255Y118290D01*
X188781Y119110D01*
X188110Y119781D01*
X187290Y120255D01*
X186374Y120500D01*
D02*
G37*
G36*
X67707Y115648D02*
X66693D01*
X65715Y115386D01*
X64837Y114879D01*
X64121Y114163D01*
X63614Y113285D01*
X63352Y112307D01*
Y111293D01*
X63614Y110315D01*
X64121Y109437D01*
X64837Y108721D01*
X65715Y108214D01*
X66693Y107952D01*
X67707D01*
X68685Y108214D01*
X69563Y108721D01*
X70279Y109437D01*
X70786Y110315D01*
X71048Y111293D01*
Y112307D01*
X70786Y113285D01*
X70279Y114163D01*
X69563Y114879D01*
X68685Y115386D01*
X67707Y115648D01*
D02*
G37*
G36*
X94193Y108181D02*
X93517D01*
X92892Y107922D01*
X92414Y107444D01*
X92323Y107226D01*
X91733Y107108D01*
X91695Y107147D01*
X91605Y107363D01*
X91127Y107841D01*
X90502Y108100D01*
X89826D01*
X89201Y107841D01*
X88723Y107363D01*
X88464Y106738D01*
Y106062D01*
X88723Y105437D01*
X89201Y104959D01*
X89317Y104911D01*
X90143Y104085D01*
Y91626D01*
X90267Y91002D01*
X90620Y90473D01*
X92030Y89062D01*
Y88612D01*
X92000Y88538D01*
Y87862D01*
X92259Y87237D01*
X92737Y86759D01*
X93362Y86500D01*
X94038D01*
X94663Y86759D01*
X95123Y87219D01*
X95142Y87237D01*
X95705Y87291D01*
X95937Y87059D01*
X96562Y86800D01*
X97238D01*
X97863Y87059D01*
X98341Y87537D01*
X98600Y88162D01*
Y88838D01*
X98341Y89463D01*
X97863Y89941D01*
X97238Y90200D01*
X97185D01*
X94718Y92667D01*
Y104999D01*
X94818Y105040D01*
X95296Y105518D01*
X95555Y106143D01*
Y106819D01*
X95296Y107444D01*
X94818Y107922D01*
X94193Y108181D01*
D02*
G37*
G36*
X106038Y110300D02*
X105362D01*
X105196Y110231D01*
X99597D01*
X98973Y110107D01*
X98793Y109987D01*
X98337Y109798D01*
X97859Y109320D01*
X97600Y108695D01*
Y108019D01*
X97859Y107394D01*
X98337Y106915D01*
X98962Y106657D01*
X99638D01*
X100263Y106915D01*
X100316Y106969D01*
X105196D01*
X105362Y106900D01*
X106038D01*
X106663Y107159D01*
X107141Y107637D01*
X107400Y108262D01*
Y108938D01*
X107141Y109563D01*
X106663Y110041D01*
X106038Y110300D01*
D02*
G37*
G36*
X186374Y110500D02*
X185426D01*
X184510Y110255D01*
X183690Y109781D01*
X183019Y109110D01*
X182545Y108290D01*
X182300Y107374D01*
Y106426D01*
X182545Y105510D01*
X183019Y104690D01*
X183690Y104019D01*
X184510Y103545D01*
X185426Y103300D01*
X186374D01*
X187290Y103545D01*
X188110Y104019D01*
X188781Y104690D01*
X189255Y105510D01*
X189500Y106426D01*
Y107374D01*
X189255Y108290D01*
X188781Y109110D01*
X188110Y109781D01*
X187290Y110255D01*
X186374Y110500D01*
D02*
G37*
G36*
X67759Y106048D02*
X67700D01*
Y102300D01*
X71448D01*
Y102359D01*
X71158Y103440D01*
X70599Y104408D01*
X69808Y105199D01*
X68840Y105759D01*
X67759Y106048D01*
D02*
G37*
G36*
X66700D02*
X66641D01*
X65560Y105759D01*
X64592Y105199D01*
X63801Y104408D01*
X63241Y103440D01*
X62952Y102359D01*
Y102300D01*
X66700D01*
Y106048D01*
D02*
G37*
G36*
X71448Y101300D02*
X67700D01*
Y97552D01*
X67759D01*
X68840Y97842D01*
X69808Y98401D01*
X70599Y99192D01*
X71158Y100160D01*
X71448Y101241D01*
Y101300D01*
D02*
G37*
G36*
X66700D02*
X62952D01*
Y101241D01*
X63241Y100160D01*
X63801Y99192D01*
X64592Y98401D01*
X65560Y97842D01*
X66641Y97552D01*
X66700D01*
Y101300D01*
D02*
G37*
G36*
X186427Y100900D02*
X186400D01*
Y97400D01*
X189900D01*
Y97427D01*
X189627Y98444D01*
X189101Y99356D01*
X188356Y100101D01*
X187444Y100627D01*
X186427Y100900D01*
D02*
G37*
G36*
X185400D02*
X185373D01*
X184356Y100627D01*
X183444Y100101D01*
X182699Y99356D01*
X182173Y98444D01*
X181900Y97427D01*
Y97400D01*
X185400D01*
Y100900D01*
D02*
G37*
G36*
X189900Y96400D02*
X186400D01*
Y92900D01*
X186427D01*
X187444Y93173D01*
X188356Y93699D01*
X189101Y94444D01*
X189627Y95356D01*
X189900Y96373D01*
Y96400D01*
D02*
G37*
G36*
X185400D02*
X181900D01*
Y96373D01*
X182173Y95356D01*
X182699Y94444D01*
X183444Y93699D01*
X184356Y93173D01*
X185373Y92900D01*
X185400D01*
Y96400D01*
D02*
G37*
G36*
X64938Y89800D02*
X64262D01*
X64096Y89731D01*
X49975D01*
X49810Y89800D01*
X49133D01*
X48509Y89541D01*
X48030Y89063D01*
X47772Y88438D01*
Y87762D01*
X48030Y87137D01*
X48509Y86659D01*
X49133Y86400D01*
X49810D01*
X49975Y86469D01*
X64096D01*
X64262Y86400D01*
X64938D01*
X65563Y86659D01*
X66041Y87137D01*
X66300Y87762D01*
Y88438D01*
X66041Y89063D01*
X65563Y89541D01*
X64938Y89800D01*
D02*
G37*
G36*
X186574Y89200D02*
X185626D01*
X184710Y88955D01*
X183890Y88481D01*
X183219Y87810D01*
X182745Y86989D01*
X182500Y86074D01*
Y85126D01*
X182745Y84210D01*
X183219Y83390D01*
X183890Y82719D01*
X184710Y82245D01*
X185626Y82000D01*
X186574D01*
X187490Y82245D01*
X188310Y82719D01*
X188981Y83390D01*
X189455Y84210D01*
X189700Y85126D01*
Y86074D01*
X189455Y86989D01*
X188981Y87810D01*
X188310Y88481D01*
X187490Y88955D01*
X186574Y89200D01*
D02*
G37*
G36*
X169838Y87900D02*
X169162D01*
X168537Y87641D01*
X168059Y87163D01*
X167800Y86538D01*
Y85862D01*
X167869Y85696D01*
Y81722D01*
X162557Y76410D01*
X162391Y76341D01*
X161913Y75863D01*
X161654Y75238D01*
Y75000D01*
Y74562D01*
X161913Y73937D01*
X162391Y73459D01*
X163016Y73200D01*
X163692D01*
X164317Y73459D01*
X164795Y73937D01*
X164864Y74103D01*
X164961Y74200D01*
X170653Y79892D01*
X171007Y80422D01*
X171131Y81046D01*
Y85696D01*
X171200Y85862D01*
Y86538D01*
X170941Y87163D01*
X170463Y87641D01*
X169838Y87900D01*
D02*
G37*
G36*
X186574Y79200D02*
X185626D01*
X184710Y78955D01*
X183890Y78481D01*
X183219Y77811D01*
X182745Y76990D01*
X182500Y76074D01*
Y75126D01*
X182534Y75000D01*
X182745Y74211D01*
X183219Y73390D01*
X183890Y72719D01*
X184710Y72245D01*
X185626Y72000D01*
X186574D01*
X187490Y72245D01*
X188310Y72719D01*
X188981Y73390D01*
X189455Y74211D01*
X189666Y75000D01*
X189700Y75126D01*
Y76074D01*
X189455Y76990D01*
X188981Y77811D01*
X188310Y78481D01*
X187490Y78955D01*
X186574Y79200D01*
D02*
G37*
G36*
X199338Y66210D02*
X198662D01*
X198037Y65951D01*
X197559Y65473D01*
X197300Y64848D01*
Y64198D01*
X194768Y61665D01*
X194722Y61684D01*
X194046D01*
X193421Y61426D01*
X192943Y60947D01*
X192684Y60322D01*
Y59646D01*
X192943Y59021D01*
X193421Y58543D01*
X194046Y58284D01*
X194722D01*
X195347Y58543D01*
X195826Y59021D01*
X196084Y59646D01*
Y60322D01*
X196065Y60368D01*
X198553Y62855D01*
X198662Y62810D01*
X199338D01*
X199963Y63069D01*
X200441Y63547D01*
X200700Y64172D01*
Y64848D01*
X200441Y65473D01*
X199963Y65951D01*
X199338Y66210D01*
D02*
G37*
G36*
X186574Y69200D02*
X185626D01*
X184710Y68955D01*
X183890Y68481D01*
X183219Y67810D01*
X182745Y66989D01*
X182500Y66074D01*
Y65126D01*
X182745Y64210D01*
X183219Y63389D01*
X183890Y62719D01*
X184710Y62245D01*
X185626Y62000D01*
X186574D01*
X187490Y62245D01*
X188310Y62719D01*
X188981Y63389D01*
X189455Y64210D01*
X189700Y65126D01*
Y66074D01*
X189455Y66989D01*
X188981Y67810D01*
X188310Y68481D01*
X187490Y68955D01*
X186574Y69200D01*
D02*
G37*
G36*
X9303Y59018D02*
X9200D01*
Y53400D01*
X14818D01*
Y53503D01*
X14583Y54685D01*
X14122Y55798D01*
X13452Y56800D01*
X12600Y57652D01*
X11598Y58322D01*
X10485Y58783D01*
X9303Y59018D01*
D02*
G37*
G36*
X8200D02*
X8097D01*
X6915Y58783D01*
X5802Y58322D01*
X4800Y57652D01*
X3948Y56800D01*
X3278Y55798D01*
X2817Y54685D01*
X2582Y53503D01*
Y53400D01*
X8200D01*
Y59018D01*
D02*
G37*
G36*
X63038Y62000D02*
X62362D01*
X61737Y61741D01*
X61259Y61263D01*
X61000Y60638D01*
Y59962D01*
X61259Y59337D01*
X61737Y58859D01*
X61782Y58840D01*
Y56060D01*
X61737Y56041D01*
X61259Y55563D01*
X61000Y54938D01*
Y54262D01*
X61259Y53637D01*
X61737Y53159D01*
X62362Y52900D01*
X63038D01*
X63663Y53159D01*
X64141Y53637D01*
X64400Y54262D01*
Y54938D01*
X64141Y55563D01*
X63663Y56041D01*
X63618Y56060D01*
Y58840D01*
X63663Y58859D01*
X64141Y59337D01*
X64400Y59962D01*
Y60638D01*
X64141Y61263D01*
X63663Y61741D01*
X63038Y62000D01*
D02*
G37*
G36*
X186574Y59200D02*
X185626D01*
X184710Y58955D01*
X183890Y58481D01*
X183219Y57810D01*
X182745Y56990D01*
X182500Y56074D01*
Y55126D01*
X182745Y54211D01*
X183219Y53390D01*
X183890Y52719D01*
X184710Y52245D01*
X185626Y52000D01*
X186574D01*
X187490Y52245D01*
X188310Y52719D01*
X188981Y53390D01*
X189455Y54211D01*
X189700Y55126D01*
Y56074D01*
X189455Y56990D01*
X188981Y57810D01*
X188310Y58481D01*
X187490Y58955D01*
X186574Y59200D01*
D02*
G37*
G36*
X14818Y52400D02*
X9200D01*
Y46782D01*
X9303D01*
X10485Y47017D01*
X11598Y47478D01*
X12600Y48148D01*
X13452Y49000D01*
X14122Y50002D01*
X14583Y51115D01*
X14818Y52297D01*
Y52400D01*
D02*
G37*
G36*
X8200D02*
X2582D01*
Y52297D01*
X2817Y51115D01*
X3278Y50002D01*
X3948Y49000D01*
X4800Y48148D01*
X5802Y47478D01*
X6915Y47017D01*
X8097Y46782D01*
X8200D01*
Y52400D01*
D02*
G37*
G36*
X186627Y49600D02*
X186600D01*
Y46100D01*
X190100D01*
Y46127D01*
X189827Y47144D01*
X189301Y48056D01*
X188556Y48801D01*
X187644Y49327D01*
X186627Y49600D01*
D02*
G37*
G36*
X185600D02*
X185573D01*
X184556Y49327D01*
X183644Y48801D01*
X182899Y48056D01*
X182373Y47144D01*
X182100Y46127D01*
Y46100D01*
X185600D01*
Y49600D01*
D02*
G37*
G36*
X190100Y45100D02*
X186600D01*
Y41600D01*
X186627D01*
X187644Y41873D01*
X188556Y42399D01*
X189301Y43144D01*
X189827Y44056D01*
X190100Y45073D01*
Y45100D01*
D02*
G37*
G36*
X185600D02*
X182100D01*
Y45073D01*
X182373Y44056D01*
X182899Y43144D01*
X183644Y42399D01*
X184556Y41873D01*
X185573Y41600D01*
X185600D01*
Y45100D01*
D02*
G37*
G36*
X187600Y39241D02*
X184600D01*
X183781Y39078D01*
X183086Y38614D01*
X182622Y37919D01*
X182459Y37100D01*
Y34100D01*
X182622Y33281D01*
X183086Y32586D01*
X183781Y32122D01*
X184600Y31959D01*
X187600D01*
X188419Y32122D01*
X189114Y32586D01*
X189578Y33281D01*
X189741Y34100D01*
Y37100D01*
X189578Y37919D01*
X189114Y38614D01*
X188419Y39078D01*
X187600Y39241D01*
D02*
G37*
G36*
X150259Y34748D02*
X150200D01*
Y31000D01*
X153948D01*
Y31059D01*
X153658Y32140D01*
X153099Y33108D01*
X152308Y33899D01*
X151340Y34459D01*
X150259Y34748D01*
D02*
G37*
G36*
X149200D02*
X149141D01*
X148060Y34459D01*
X147092Y33899D01*
X146301Y33108D01*
X145741Y32140D01*
X145452Y31059D01*
Y31000D01*
X149200D01*
Y34748D01*
D02*
G37*
G36*
X153948Y30000D02*
X150200D01*
Y26252D01*
X150259D01*
X151340Y26542D01*
X152308Y27101D01*
X153099Y27892D01*
X153658Y28860D01*
X153948Y29941D01*
Y30000D01*
D02*
G37*
G36*
X149200D02*
X145452D01*
Y29941D01*
X145741Y28860D01*
X146301Y27892D01*
X147092Y27101D01*
X148060Y26542D01*
X149141Y26252D01*
X149200D01*
Y30000D01*
D02*
G37*
G36*
X191474Y24300D02*
X190526D01*
X189610Y24055D01*
X188790Y23581D01*
X188119Y22910D01*
X187645Y22090D01*
X187400Y21174D01*
Y20226D01*
X187645Y19310D01*
X188119Y18489D01*
X188790Y17819D01*
X189610Y17345D01*
X190526Y17100D01*
X191474D01*
X192390Y17345D01*
X193210Y17819D01*
X193881Y18489D01*
X194355Y19310D01*
X194600Y20226D01*
Y21174D01*
X194355Y22090D01*
X193881Y22910D01*
X193210Y23581D01*
X192390Y24055D01*
X191474Y24300D01*
D02*
G37*
G36*
X181474D02*
X180526D01*
X179610Y24055D01*
X178790Y23581D01*
X178119Y22910D01*
X177645Y22090D01*
X177400Y21174D01*
Y20226D01*
X177645Y19310D01*
X178119Y18489D01*
X178790Y17819D01*
X179610Y17345D01*
X180526Y17100D01*
X181474D01*
X182390Y17345D01*
X183210Y17819D01*
X183881Y18489D01*
X184355Y19310D01*
X184600Y20226D01*
Y21174D01*
X184355Y22090D01*
X183881Y22910D01*
X183210Y23581D01*
X182390Y24055D01*
X181474Y24300D01*
D02*
G37*
G36*
X171474D02*
X170526D01*
X169610Y24055D01*
X168790Y23581D01*
X168119Y22910D01*
X167645Y22090D01*
X167400Y21174D01*
Y20226D01*
X167645Y19310D01*
X168119Y18489D01*
X168790Y17819D01*
X169610Y17345D01*
X170526Y17100D01*
X171474D01*
X172390Y17345D01*
X173210Y17819D01*
X173881Y18489D01*
X174355Y19310D01*
X174600Y20226D01*
Y21174D01*
X174355Y22090D01*
X173881Y22910D01*
X173210Y23581D01*
X172390Y24055D01*
X171474Y24300D01*
D02*
G37*
G36*
X162500Y24341D02*
X159500D01*
X158681Y24178D01*
X157986Y23714D01*
X157522Y23019D01*
X157359Y22200D01*
Y19200D01*
X157522Y18381D01*
X157986Y17686D01*
X158681Y17222D01*
X159500Y17059D01*
X162500D01*
X163319Y17222D01*
X164014Y17686D01*
X164478Y18381D01*
X164641Y19200D01*
Y22200D01*
X164478Y23019D01*
X164014Y23714D01*
X163319Y24178D01*
X162500Y24341D01*
D02*
G37*
G36*
X151324Y24392D02*
X148076D01*
X147208Y24219D01*
X146473Y23727D01*
X145981Y22992D01*
X145808Y22124D01*
Y18876D01*
X145981Y18008D01*
X146473Y17273D01*
X147208Y16781D01*
X148076Y16608D01*
X151324D01*
X152192Y16781D01*
X152927Y17273D01*
X153419Y18008D01*
X153592Y18876D01*
Y22124D01*
X153419Y22992D01*
X152927Y23727D01*
X152192Y24219D01*
X151324Y24392D01*
D02*
G37*
%LPD*%
D10*
X93300Y132900D02*
X93309Y132909D01*
X110837D01*
X194384Y59984D02*
X198910Y64510D01*
X199000D01*
X62700Y54600D02*
Y60300D01*
X93800Y92287D02*
X96594Y89493D01*
Y88806D02*
Y89493D01*
Y88806D02*
X96900Y88500D01*
X93800Y92287D02*
Y106426D01*
X93855Y106481D01*
D73*
X190200Y121900D02*
X203800D01*
X108982Y129518D02*
X109000Y129500D01*
X92300D02*
X92318Y129518D01*
X108982D01*
X99300Y108357D02*
X99354D01*
X99597Y108600D02*
X105646D01*
X99354Y108357D02*
X99597Y108600D01*
X49472Y88100D02*
X64600D01*
X91774Y91626D02*
X93662Y89738D01*
Y88238D02*
X93700Y88200D01*
X93662Y88238D02*
Y89738D01*
X91774Y91626D02*
Y104761D01*
X90164Y106371D02*
Y106400D01*
Y106371D02*
X91774Y104761D01*
X153546Y129500D02*
X153600D01*
X153446Y129400D02*
X153546Y129500D01*
X111246Y119300D02*
X111446Y119500D01*
X111500D01*
X102400Y119300D02*
X111246D01*
X169500Y81046D02*
Y86200D01*
X163354Y74900D02*
X169500Y81046D01*
X146400Y129400D02*
X153446D01*
X121700D02*
X128700D01*
D79*
X327800Y58700D02*
Y210622D01*
X319022Y219400D02*
X327800Y210622D01*
X318900Y219400D02*
X319022D01*
X309300Y40200D02*
X327800Y58700D01*
D82*
X186100Y85600D02*
D03*
Y75600D02*
D03*
Y65600D02*
D03*
Y55600D02*
D03*
Y45600D02*
D03*
X123200Y141000D02*
D03*
X133200D02*
D03*
X143200D02*
D03*
X185900Y96900D02*
D03*
Y106900D02*
D03*
Y116900D02*
D03*
X171000Y20700D02*
D03*
X181000D02*
D03*
X191000D02*
D03*
X358300Y272100D02*
D03*
Y282100D02*
D03*
Y292100D02*
D03*
D83*
X186100Y35600D02*
D03*
X185900Y126900D02*
D03*
X358300Y302100D02*
D03*
D84*
X113200Y141000D02*
D03*
X161000Y20700D02*
D03*
D85*
X93500Y197850D02*
D03*
Y187850D02*
D03*
X167200Y141500D02*
D03*
X177200D02*
D03*
X67200Y101800D02*
D03*
Y111800D02*
D03*
X8000Y175000D02*
D03*
X308900Y219200D02*
D03*
X149700Y30500D02*
D03*
X358000Y326700D02*
D03*
D86*
X93500Y177850D02*
D03*
X67200Y121800D02*
D03*
X8000Y165000D02*
D03*
X149700Y20500D02*
D03*
X358000Y316700D02*
D03*
D87*
X157200Y141500D02*
D03*
X298900Y219200D02*
D03*
D88*
X5500Y186658D02*
D03*
Y214216D02*
D03*
D89*
X16130Y190594D02*
D03*
Y210279D02*
D03*
D90*
X235600Y17000D02*
D03*
X236100Y220400D02*
D03*
X381200D02*
D03*
X378500Y17000D02*
D03*
X358900Y342700D02*
D03*
X240900Y341700D02*
D03*
X358900Y253700D02*
D03*
X240900D02*
D03*
D91*
X115032Y198571D02*
D03*
X185898D02*
D03*
X185898Y220224D02*
D03*
X115032D02*
D03*
X185898Y176917D02*
D03*
X115032D02*
D03*
D92*
X212800Y228800D02*
D03*
X8700Y52900D02*
D03*
X213000Y7300D02*
D03*
D93*
X170257Y148633D02*
D03*
X175128Y40947D02*
D03*
X174700Y91300D02*
D03*
X149258Y224294D02*
D03*
X142600Y167700D02*
D03*
X110837Y132909D02*
D03*
X134040Y155921D02*
D03*
X71553Y133288D02*
D03*
X56700Y137656D02*
D03*
X32700Y137728D02*
D03*
X19000Y137528D02*
D03*
X90653Y157027D02*
D03*
X26900Y123800D02*
D03*
X59605Y120391D02*
D03*
X41600Y160400D02*
D03*
X47400D02*
D03*
X41600Y154600D02*
D03*
X47400D02*
D03*
X44500Y157500D02*
D03*
X107500Y82000D02*
D03*
X123500D02*
D03*
X118500D02*
D03*
X113000D02*
D03*
X123500Y87000D02*
D03*
X118500D02*
D03*
X113000D02*
D03*
X107500D02*
D03*
X123500Y92500D02*
D03*
X118500D02*
D03*
X113000D02*
D03*
X123500Y98000D02*
D03*
X118500D02*
D03*
X113000D02*
D03*
X60263Y91537D02*
D03*
X172800Y54300D02*
D03*
X203800Y121900D02*
D03*
X196800Y119200D02*
D03*
X194384Y59984D02*
D03*
X199000Y64510D02*
D03*
X190200Y121900D02*
D03*
X136282Y30551D02*
D03*
X132081Y32951D02*
D03*
X5500Y44500D02*
D03*
X3507Y39713D02*
D03*
X105500Y59500D02*
D03*
X136051Y44559D02*
D03*
X105664Y69552D02*
D03*
X109264Y67052D02*
D03*
X109347Y72135D02*
D03*
X109352Y49542D02*
D03*
X109333Y54512D02*
D03*
X120784Y47559D02*
D03*
X120950Y43082D02*
D03*
X115500Y49500D02*
D03*
X120616Y52649D02*
D03*
X120593Y57535D02*
D03*
X120612Y62567D02*
D03*
X115500Y54500D02*
D03*
Y59600D02*
D03*
X115392Y64520D02*
D03*
X115374Y69368D02*
D03*
X132174Y3168D02*
D03*
Y13168D02*
D03*
Y23168D02*
D03*
X132073Y38168D02*
D03*
Y28168D02*
D03*
Y18168D02*
D03*
Y8168D02*
D03*
X136074Y10568D02*
D03*
Y20568D02*
D03*
Y40568D02*
D03*
X136173Y35568D02*
D03*
Y25568D02*
D03*
Y15568D02*
D03*
Y5568D02*
D03*
X109373Y62068D02*
D03*
Y44468D02*
D03*
X105473Y44568D02*
D03*
X120880Y39485D02*
D03*
X116374Y39568D02*
D03*
X128574D02*
D03*
X125774D02*
D03*
X130573Y44568D02*
D03*
X125574D02*
D03*
X115574D02*
D03*
X108073Y39568D02*
D03*
X105573Y64568D02*
D03*
Y54568D02*
D03*
X103074Y49568D02*
D03*
Y39568D02*
D03*
X100574Y54568D02*
D03*
X98074Y49568D02*
D03*
X100574Y44568D02*
D03*
X98074Y39568D02*
D03*
X95574Y44568D02*
D03*
X93073Y39568D02*
D03*
X90574Y44568D02*
D03*
X88073Y39568D02*
D03*
X85574Y44568D02*
D03*
X83074Y39568D02*
D03*
X80573Y44568D02*
D03*
X78074Y39568D02*
D03*
X75573Y44568D02*
D03*
X73074Y39568D02*
D03*
X70574Y44568D02*
D03*
X68073Y39568D02*
D03*
X65574Y44568D02*
D03*
X63073Y39568D02*
D03*
X60574Y44568D02*
D03*
X58074Y39568D02*
D03*
X55573Y44568D02*
D03*
X53074Y39568D02*
D03*
X50573Y44568D02*
D03*
X48074Y39568D02*
D03*
X45573Y44568D02*
D03*
X43073Y39568D02*
D03*
X40573Y44568D02*
D03*
X38074Y39568D02*
D03*
X35574Y44568D02*
D03*
X33073Y39568D02*
D03*
X30573Y44568D02*
D03*
X28073Y39568D02*
D03*
X25574Y44568D02*
D03*
X23074Y39568D02*
D03*
X20573Y44568D02*
D03*
X18074Y39568D02*
D03*
X15574Y44568D02*
D03*
X13073Y39568D02*
D03*
X10573Y44568D02*
D03*
X8073Y39568D02*
D03*
X178000Y124400D02*
D03*
X93300Y132900D02*
D03*
X92800Y145100D02*
D03*
X173700Y116000D02*
D03*
X295400Y284900D02*
D03*
X286100Y309800D02*
D03*
X283200Y250300D02*
D03*
X292600Y289100D02*
D03*
X270800Y299300D02*
D03*
X311300Y297200D02*
D03*
X237900Y306700D02*
D03*
X297900Y343700D02*
D03*
X346200Y290500D02*
D03*
X26000Y137650D02*
D03*
X105700Y108600D02*
D03*
X92000Y114500D02*
D03*
X58400Y83000D02*
D03*
X49472Y88100D02*
D03*
X53063Y84337D02*
D03*
X64600Y88100D02*
D03*
X95942Y94800D02*
D03*
X142495Y88500D02*
D03*
X112700Y127509D02*
D03*
X84200Y54300D02*
D03*
X62700Y54600D02*
D03*
X48500Y208000D02*
D03*
X54000Y200900D02*
D03*
X22000Y200100D02*
D03*
X67100Y151700D02*
D03*
X21200Y195300D02*
D03*
X142900Y46900D02*
D03*
X96900Y88500D02*
D03*
X93700Y88200D02*
D03*
X88600Y94800D02*
D03*
X88700Y100000D02*
D03*
X95800D02*
D03*
X90164Y106400D02*
D03*
X93855Y106481D02*
D03*
X83500Y78100D02*
D03*
X90500Y78200D02*
D03*
X140200Y63800D02*
D03*
X140400Y55700D02*
D03*
X71500Y189300D02*
D03*
X92300Y129500D02*
D03*
X48200Y176600D02*
D03*
X42100Y176700D02*
D03*
X139600Y120600D02*
D03*
X164600Y80400D02*
D03*
X172300Y80500D02*
D03*
X130200Y215600D02*
D03*
X76500Y205000D02*
D03*
X72000Y185600D02*
D03*
X149200Y88200D02*
D03*
X100200Y64800D02*
D03*
X179700Y61600D02*
D03*
X173000Y75100D02*
D03*
X173400Y106000D02*
D03*
X162417Y99319D02*
D03*
X156400Y113500D02*
D03*
X130100Y120600D02*
D03*
X120800Y120500D02*
D03*
X16000Y153500D02*
D03*
X102500Y135500D02*
D03*
X102600Y126818D02*
D03*
X196800Y124800D02*
D03*
X153600Y129500D02*
D03*
X109000D02*
D03*
X102400Y119300D02*
D03*
X111500Y119500D02*
D03*
X152100Y182400D02*
D03*
X163354Y74900D02*
D03*
X169500Y86200D02*
D03*
X146400Y129400D02*
D03*
X128700D02*
D03*
X121700D02*
D03*
X99300Y108357D02*
D03*
X60300Y107200D02*
D03*
X35000Y112200D02*
D03*
X38900Y98600D02*
D03*
X48847Y94016D02*
D03*
X176800Y152500D02*
D03*
X137600Y188200D02*
D03*
X145500Y215300D02*
D03*
X157100Y227900D02*
D03*
X165600D02*
D03*
X174700Y227800D02*
D03*
X17500Y123500D02*
D03*
X31855Y119195D02*
D03*
X11500Y196500D02*
D03*
X73200Y195300D02*
D03*
X7000Y221500D02*
D03*
X62700Y60300D02*
D03*
D94*
X107500Y98000D02*
D03*
Y92500D02*
D03*
D95*
X318900Y219400D02*
D03*
X309300Y40200D02*
D03*
M02*
